<mxfile host="app.diagrams.net" modified="2024-07-02T00:25:02.775Z" agent="Mozilla/5.0 (Windows NT 10.0; Win64; x64) AppleWebKit/537.36 (KHTML, like Gecko) Chrome/126.0.0.0 Safari/537.36" etag="MWbXCuYMxRponocnwCbV" version="24.6.4" type="google">
  <diagram name="Page-1" id="rlAw1uW1w5WgoeO-FyUG">
    <mxGraphModel grid="1" page="1" gridSize="10" guides="1" tooltips="1" connect="1" arrows="1" fold="1" pageScale="1" pageWidth="850" pageHeight="1100" math="0" shadow="0">
      <root>
        <mxCell id="0" />
        <mxCell id="1" parent="0" />
        <mxCell id="3njZrD6ApjCg7004VLz5-1" value="User" style="rounded=0;whiteSpace=wrap;html=1;" vertex="1" parent="1">
          <mxGeometry x="460.63" y="2980" width="120" height="60" as="geometry" />
        </mxCell>
        <mxCell id="3njZrD6ApjCg7004VLz5-2" value="&lt;u&gt;User_ID&lt;/u&gt;" style="ellipse;whiteSpace=wrap;html=1;" vertex="1" parent="1">
          <mxGeometry x="122.5" y="2835" width="120" height="50" as="geometry" />
        </mxCell>
        <mxCell id="3njZrD6ApjCg7004VLz5-3" value="Address" style="ellipse;whiteSpace=wrap;html=1;" vertex="1" parent="1">
          <mxGeometry x="760" y="3195" width="120" height="50" as="geometry" />
        </mxCell>
        <mxCell id="3njZrD6ApjCg7004VLz5-4" value="Email" style="ellipse;whiteSpace=wrap;html=1;" vertex="1" parent="1">
          <mxGeometry x="772.5" y="2770" width="120" height="50" as="geometry" />
        </mxCell>
        <mxCell id="3njZrD6ApjCg7004VLz5-5" value="Name" style="ellipse;whiteSpace=wrap;html=1;" vertex="1" parent="1">
          <mxGeometry x="120" y="2750" width="120" height="50" as="geometry" />
        </mxCell>
        <mxCell id="3njZrD6ApjCg7004VLz5-6" value="" style="endArrow=none;html=1;rounded=0;entryX=1;entryY=0.5;entryDx=0;entryDy=0;exitX=0;exitY=0;exitDx=0;exitDy=0;" edge="1" parent="1" source="3njZrD6ApjCg7004VLz5-1" target="3njZrD6ApjCg7004VLz5-5">
          <mxGeometry width="50" height="50" relative="1" as="geometry">
            <mxPoint x="597.5" y="2990" as="sourcePoint" />
            <mxPoint x="647.5" y="2940" as="targetPoint" />
          </mxGeometry>
        </mxCell>
        <mxCell id="3njZrD6ApjCg7004VLz5-7" value="" style="endArrow=none;html=1;rounded=0;exitX=1;exitY=0.5;exitDx=0;exitDy=0;entryX=0;entryY=0;entryDx=0;entryDy=0;" edge="1" parent="1" source="3njZrD6ApjCg7004VLz5-2" target="3njZrD6ApjCg7004VLz5-1">
          <mxGeometry width="50" height="50" relative="1" as="geometry">
            <mxPoint x="617.5" y="3010" as="sourcePoint" />
            <mxPoint x="462.5" y="3005" as="targetPoint" />
          </mxGeometry>
        </mxCell>
        <mxCell id="3njZrD6ApjCg7004VLz5-8" value="" style="endArrow=none;html=1;rounded=0;exitX=1;exitY=0.5;exitDx=0;exitDy=0;entryX=0;entryY=1;entryDx=0;entryDy=0;" edge="1" parent="1" source="3njZrD6ApjCg7004VLz5-325" target="3njZrD6ApjCg7004VLz5-1">
          <mxGeometry width="50" height="50" relative="1" as="geometry">
            <mxPoint x="245" y="3185" as="sourcePoint" />
            <mxPoint x="677.5" y="2970" as="targetPoint" />
          </mxGeometry>
        </mxCell>
        <mxCell id="3njZrD6ApjCg7004VLz5-9" value="" style="endArrow=none;html=1;rounded=0;exitX=0;exitY=0.5;exitDx=0;exitDy=0;entryX=1;entryY=0;entryDx=0;entryDy=0;" edge="1" parent="1" source="3njZrD6ApjCg7004VLz5-4" target="3njZrD6ApjCg7004VLz5-1">
          <mxGeometry width="50" height="50" relative="1" as="geometry">
            <mxPoint x="637.5" y="3030" as="sourcePoint" />
            <mxPoint x="687.5" y="2980" as="targetPoint" />
          </mxGeometry>
        </mxCell>
        <mxCell id="3njZrD6ApjCg7004VLz5-10" value="" style="endArrow=none;html=1;rounded=0;exitX=0;exitY=0.5;exitDx=0;exitDy=0;entryX=1;entryY=1;entryDx=0;entryDy=0;" edge="1" parent="1" source="3njZrD6ApjCg7004VLz5-3" target="3njZrD6ApjCg7004VLz5-1">
          <mxGeometry width="50" height="50" relative="1" as="geometry">
            <mxPoint x="657.5" y="3050" as="sourcePoint" />
            <mxPoint x="707.5" y="3000" as="targetPoint" />
          </mxGeometry>
        </mxCell>
        <mxCell id="3njZrD6ApjCg7004VLz5-11" value="Employment_Opportunity" style="rounded=0;whiteSpace=wrap;html=1;" vertex="1" parent="1">
          <mxGeometry x="-1175" y="920" width="160" height="60" as="geometry" />
        </mxCell>
        <mxCell id="3njZrD6ApjCg7004VLz5-12" value="&lt;u&gt;&lt;b&gt;Opportunity_ID&lt;/b&gt;&lt;/u&gt;" style="ellipse;whiteSpace=wrap;html=1;" vertex="1" parent="1">
          <mxGeometry x="-1435" y="805" width="120" height="50" as="geometry" />
        </mxCell>
        <mxCell id="3njZrD6ApjCg7004VLz5-13" value="Application_Deadline" style="ellipse;whiteSpace=wrap;html=1;" vertex="1" parent="1">
          <mxGeometry x="-930" y="1030" width="120" height="50" as="geometry" />
        </mxCell>
        <mxCell id="3njZrD6ApjCg7004VLz5-14" value="Position_title" style="ellipse;whiteSpace=wrap;html=1;" vertex="1" parent="1">
          <mxGeometry x="-1437.5" y="710" width="120" height="50" as="geometry" />
        </mxCell>
        <mxCell id="3njZrD6ApjCg7004VLz5-15" value="location" style="ellipse;whiteSpace=wrap;html=1;" vertex="1" parent="1">
          <mxGeometry x="-1437.5" y="1080" width="120" height="50" as="geometry" />
        </mxCell>
        <mxCell id="3njZrD6ApjCg7004VLz5-16" value="Salary_range" style="ellipse;whiteSpace=wrap;html=1;" vertex="1" parent="1">
          <mxGeometry x="-930" y="1110" width="120" height="50" as="geometry" />
        </mxCell>
        <mxCell id="3njZrD6ApjCg7004VLz5-17" value="Description" style="ellipse;whiteSpace=wrap;html=1;" vertex="1" parent="1">
          <mxGeometry x="-930" y="805" width="120" height="50" as="geometry" />
        </mxCell>
        <mxCell id="3njZrD6ApjCg7004VLz5-18" value="" style="endArrow=none;html=1;rounded=0;entryX=1;entryY=0.5;entryDx=0;entryDy=0;exitX=0;exitY=0;exitDx=0;exitDy=0;" edge="1" parent="1" source="3njZrD6ApjCg7004VLz5-11" target="3njZrD6ApjCg7004VLz5-14">
          <mxGeometry width="50" height="50" relative="1" as="geometry">
            <mxPoint x="-1025" y="930" as="sourcePoint" />
            <mxPoint x="-975" y="880" as="targetPoint" />
          </mxGeometry>
        </mxCell>
        <mxCell id="3njZrD6ApjCg7004VLz5-19" value="" style="endArrow=none;html=1;rounded=0;entryX=0;entryY=0.5;entryDx=0;entryDy=0;exitX=1;exitY=0;exitDx=0;exitDy=0;" edge="1" parent="1" source="3njZrD6ApjCg7004VLz5-11" target="3njZrD6ApjCg7004VLz5-17">
          <mxGeometry width="50" height="50" relative="1" as="geometry">
            <mxPoint x="-1345" y="860" as="sourcePoint" />
            <mxPoint x="-965" y="890" as="targetPoint" />
          </mxGeometry>
        </mxCell>
        <mxCell id="3njZrD6ApjCg7004VLz5-20" value="" style="endArrow=none;html=1;rounded=0;exitX=1;exitY=0.5;exitDx=0;exitDy=0;entryX=0;entryY=0;entryDx=0;entryDy=0;" edge="1" parent="1" source="3njZrD6ApjCg7004VLz5-12" target="3njZrD6ApjCg7004VLz5-11">
          <mxGeometry width="50" height="50" relative="1" as="geometry">
            <mxPoint x="-1005" y="950" as="sourcePoint" />
            <mxPoint x="-955" y="900" as="targetPoint" />
          </mxGeometry>
        </mxCell>
        <mxCell id="3njZrD6ApjCg7004VLz5-21" value="" style="endArrow=none;html=1;rounded=0;exitX=1;exitY=0.5;exitDx=0;exitDy=0;entryX=0;entryY=0.75;entryDx=0;entryDy=0;" edge="1" parent="1" source="3njZrD6ApjCg7004VLz5-15" target="3njZrD6ApjCg7004VLz5-11">
          <mxGeometry width="50" height="50" relative="1" as="geometry">
            <mxPoint x="-1365" y="1010" as="sourcePoint" />
            <mxPoint x="-945" y="910" as="targetPoint" />
          </mxGeometry>
        </mxCell>
        <mxCell id="3njZrD6ApjCg7004VLz5-22" value="" style="endArrow=none;html=1;rounded=0;exitX=0;exitY=0.5;exitDx=0;exitDy=0;entryX=1;entryY=1;entryDx=0;entryDy=0;" edge="1" parent="1" source="3njZrD6ApjCg7004VLz5-16" target="3njZrD6ApjCg7004VLz5-11">
          <mxGeometry width="50" height="50" relative="1" as="geometry">
            <mxPoint x="-975" y="980" as="sourcePoint" />
            <mxPoint x="-1195" y="910" as="targetPoint" />
          </mxGeometry>
        </mxCell>
        <mxCell id="3njZrD6ApjCg7004VLz5-23" value="" style="endArrow=none;html=1;rounded=0;exitX=0;exitY=0.5;exitDx=0;exitDy=0;entryX=1;entryY=1;entryDx=0;entryDy=0;" edge="1" parent="1" source="3njZrD6ApjCg7004VLz5-13" target="3njZrD6ApjCg7004VLz5-11">
          <mxGeometry width="50" height="50" relative="1" as="geometry">
            <mxPoint x="-965" y="990" as="sourcePoint" />
            <mxPoint x="-915" y="940" as="targetPoint" />
          </mxGeometry>
        </mxCell>
        <mxCell id="3njZrD6ApjCg7004VLz5-24" value="Password" style="ellipse;whiteSpace=wrap;html=1;" vertex="1" parent="1">
          <mxGeometry x="772.5" y="2680" width="120" height="50" as="geometry" />
        </mxCell>
        <mxCell id="3njZrD6ApjCg7004VLz5-25" value="" style="endArrow=none;html=1;rounded=0;exitX=0;exitY=0.5;exitDx=0;exitDy=0;entryX=1;entryY=0;entryDx=0;entryDy=0;" edge="1" parent="1" source="3njZrD6ApjCg7004VLz5-24" target="3njZrD6ApjCg7004VLz5-1">
          <mxGeometry width="50" height="50" relative="1" as="geometry">
            <mxPoint x="527.5" y="3210" as="sourcePoint" />
            <mxPoint x="467.5" y="3010" as="targetPoint" />
          </mxGeometry>
        </mxCell>
        <mxCell id="3njZrD6ApjCg7004VLz5-26" value="Reservation" style="rounded=0;whiteSpace=wrap;html=1;" vertex="1" parent="1">
          <mxGeometry x="-660" y="1595" width="120" height="65" as="geometry" />
        </mxCell>
        <mxCell id="3njZrD6ApjCg7004VLz5-27" value="&lt;u&gt;&lt;b&gt;Reservation_ID&lt;/b&gt;&lt;/u&gt;" style="ellipse;whiteSpace=wrap;html=1;" vertex="1" parent="1">
          <mxGeometry x="-930" y="1605" width="120" height="50" as="geometry" />
        </mxCell>
        <mxCell id="3njZrD6ApjCg7004VLz5-28" value="status" style="ellipse;whiteSpace=wrap;html=1;" vertex="1" parent="1">
          <mxGeometry x="-930" y="1700" width="120" height="50" as="geometry" />
        </mxCell>
        <mxCell id="3njZrD6ApjCg7004VLz5-29" value="Duration" style="ellipse;whiteSpace=wrap;html=1;" vertex="1" parent="1">
          <mxGeometry x="-930" y="1500" width="120" height="50" as="geometry" />
        </mxCell>
        <mxCell id="3njZrD6ApjCg7004VLz5-30" value="" style="endArrow=none;html=1;rounded=0;entryX=1;entryY=0.5;entryDx=0;entryDy=0;exitX=0;exitY=0.5;exitDx=0;exitDy=0;" edge="1" parent="1" source="3njZrD6ApjCg7004VLz5-26" target="3njZrD6ApjCg7004VLz5-29">
          <mxGeometry width="50" height="50" relative="1" as="geometry">
            <mxPoint x="-690" y="1545" as="sourcePoint" />
            <mxPoint x="-310" y="1575" as="targetPoint" />
          </mxGeometry>
        </mxCell>
        <mxCell id="3njZrD6ApjCg7004VLz5-31" value="" style="endArrow=none;html=1;rounded=0;exitX=1;exitY=0.5;exitDx=0;exitDy=0;entryX=0;entryY=0.5;entryDx=0;entryDy=0;" edge="1" parent="1" source="3njZrD6ApjCg7004VLz5-27" target="3njZrD6ApjCg7004VLz5-26">
          <mxGeometry width="50" height="50" relative="1" as="geometry">
            <mxPoint x="-350" y="1635" as="sourcePoint" />
            <mxPoint x="-300" y="1585" as="targetPoint" />
          </mxGeometry>
        </mxCell>
        <mxCell id="3njZrD6ApjCg7004VLz5-32" value="" style="endArrow=none;html=1;rounded=0;exitX=1;exitY=0.5;exitDx=0;exitDy=0;entryX=0;entryY=0.5;entryDx=0;entryDy=0;" edge="1" parent="1" source="3njZrD6ApjCg7004VLz5-28" target="3njZrD6ApjCg7004VLz5-26">
          <mxGeometry width="50" height="50" relative="1" as="geometry">
            <mxPoint x="-310" y="1675" as="sourcePoint" />
            <mxPoint x="-260" y="1625" as="targetPoint" />
          </mxGeometry>
        </mxCell>
        <mxCell id="3njZrD6ApjCg7004VLz5-33" value="Requirements" style="ellipse;whiteSpace=wrap;html=1;" vertex="1" parent="1">
          <mxGeometry x="-930" y="710" width="120" height="50" as="geometry" />
        </mxCell>
        <mxCell id="3njZrD6ApjCg7004VLz5-34" value="" style="endArrow=none;html=1;rounded=0;exitX=0;exitY=0.5;exitDx=0;exitDy=0;entryX=1;entryY=0;entryDx=0;entryDy=0;" edge="1" parent="1" source="3njZrD6ApjCg7004VLz5-33" target="3njZrD6ApjCg7004VLz5-11">
          <mxGeometry width="50" height="50" relative="1" as="geometry">
            <mxPoint x="-975" y="920" as="sourcePoint" />
            <mxPoint x="-925" y="870" as="targetPoint" />
          </mxGeometry>
        </mxCell>
        <mxCell id="3njZrD6ApjCg7004VLz5-35" value="Amenity" style="rounded=0;whiteSpace=wrap;html=1;" vertex="1" parent="1">
          <mxGeometry x="-380" y="1195" width="120" height="60" as="geometry" />
        </mxCell>
        <mxCell id="3njZrD6ApjCg7004VLz5-36" value="&lt;u&gt;&lt;b&gt;Amenity_ID&lt;/b&gt;&lt;/u&gt;" style="ellipse;whiteSpace=wrap;html=1;" vertex="1" parent="1">
          <mxGeometry x="-700" y="1230" width="120" height="50" as="geometry" />
        </mxCell>
        <mxCell id="3njZrD6ApjCg7004VLz5-37" value="Description" style="ellipse;whiteSpace=wrap;html=1;" vertex="1" parent="1">
          <mxGeometry x="-700" y="1315" width="120" height="50" as="geometry" />
        </mxCell>
        <mxCell id="3njZrD6ApjCg7004VLz5-38" value="Amenity_Name" style="ellipse;whiteSpace=wrap;html=1;" vertex="1" parent="1">
          <mxGeometry x="-700" y="1140" width="120" height="50" as="geometry" />
        </mxCell>
        <mxCell id="3njZrD6ApjCg7004VLz5-39" value="Type" style="ellipse;whiteSpace=wrap;html=1;" vertex="1" parent="1">
          <mxGeometry x="-700" y="1060" width="120" height="50" as="geometry" />
        </mxCell>
        <mxCell id="3njZrD6ApjCg7004VLz5-40" value="" style="endArrow=none;html=1;rounded=0;entryX=1;entryY=0.5;entryDx=0;entryDy=0;exitX=0;exitY=0.5;exitDx=0;exitDy=0;" edge="1" parent="1" source="3njZrD6ApjCg7004VLz5-35" target="3njZrD6ApjCg7004VLz5-38">
          <mxGeometry width="50" height="50" relative="1" as="geometry">
            <mxPoint x="-220" y="1210" as="sourcePoint" />
            <mxPoint x="-170" y="1160" as="targetPoint" />
          </mxGeometry>
        </mxCell>
        <mxCell id="3njZrD6ApjCg7004VLz5-41" value="" style="endArrow=none;html=1;rounded=0;entryX=1;entryY=0.5;entryDx=0;entryDy=0;exitX=0;exitY=0.5;exitDx=0;exitDy=0;" edge="1" parent="1" source="3njZrD6ApjCg7004VLz5-35" target="3njZrD6ApjCg7004VLz5-39">
          <mxGeometry width="50" height="50" relative="1" as="geometry">
            <mxPoint x="-540" y="1140" as="sourcePoint" />
            <mxPoint x="-160" y="1170" as="targetPoint" />
          </mxGeometry>
        </mxCell>
        <mxCell id="3njZrD6ApjCg7004VLz5-42" value="" style="endArrow=none;html=1;rounded=0;exitX=1;exitY=0.5;exitDx=0;exitDy=0;entryX=0;entryY=0.5;entryDx=0;entryDy=0;" edge="1" parent="1" source="3njZrD6ApjCg7004VLz5-36" target="3njZrD6ApjCg7004VLz5-35">
          <mxGeometry width="50" height="50" relative="1" as="geometry">
            <mxPoint x="-200" y="1230" as="sourcePoint" />
            <mxPoint x="-150" y="1180" as="targetPoint" />
          </mxGeometry>
        </mxCell>
        <mxCell id="3njZrD6ApjCg7004VLz5-43" value="" style="endArrow=none;html=1;rounded=0;exitX=1;exitY=0.5;exitDx=0;exitDy=0;entryX=0;entryY=0.5;entryDx=0;entryDy=0;" edge="1" parent="1" source="3njZrD6ApjCg7004VLz5-37" target="3njZrD6ApjCg7004VLz5-35">
          <mxGeometry width="50" height="50" relative="1" as="geometry">
            <mxPoint x="-580" y="1415" as="sourcePoint" />
            <mxPoint x="-110" y="1220" as="targetPoint" />
          </mxGeometry>
        </mxCell>
        <mxCell id="3njZrD6ApjCg7004VLz5-44" value="Contact us" style="rounded=0;whiteSpace=wrap;html=1;" vertex="1" parent="1">
          <mxGeometry x="750" y="-270" width="120" height="60" as="geometry" />
        </mxCell>
        <mxCell id="3njZrD6ApjCg7004VLz5-45" value="&lt;u&gt;&lt;b&gt;Contact_us_ID&lt;/b&gt;&lt;/u&gt;" style="ellipse;whiteSpace=wrap;html=1;" vertex="1" parent="1">
          <mxGeometry x="1029.38" y="-495" width="120" height="50" as="geometry" />
        </mxCell>
        <mxCell id="3njZrD6ApjCg7004VLz5-46" value="website" style="ellipse;whiteSpace=wrap;html=1;" vertex="1" parent="1">
          <mxGeometry x="469.38" y="-400" width="120" height="50" as="geometry" />
        </mxCell>
        <mxCell id="3njZrD6ApjCg7004VLz5-47" value="Social_Media" style="ellipse;whiteSpace=wrap;html=1;" vertex="1" parent="1">
          <mxGeometry x="468.75" y="-145" width="120" height="50" as="geometry" />
        </mxCell>
        <mxCell id="3njZrD6ApjCg7004VLz5-48" value="Address" style="ellipse;whiteSpace=wrap;html=1;" vertex="1" parent="1">
          <mxGeometry x="460.63" y="-495" width="120" height="50" as="geometry" />
        </mxCell>
        <mxCell id="3njZrD6ApjCg7004VLz5-49" value="" style="endArrow=none;html=1;rounded=0;entryX=1;entryY=0.5;entryDx=0;entryDy=0;exitX=0;exitY=0;exitDx=0;exitDy=0;" edge="1" parent="1" source="3njZrD6ApjCg7004VLz5-44" target="3njZrD6ApjCg7004VLz5-46">
          <mxGeometry width="50" height="50" relative="1" as="geometry">
            <mxPoint x="924.38" y="-280" as="sourcePoint" />
            <mxPoint x="974.38" y="-330" as="targetPoint" />
          </mxGeometry>
        </mxCell>
        <mxCell id="3njZrD6ApjCg7004VLz5-50" value="" style="endArrow=none;html=1;rounded=0;entryX=1;entryY=0.5;entryDx=0;entryDy=0;exitX=0;exitY=0;exitDx=0;exitDy=0;" edge="1" parent="1" source="3njZrD6ApjCg7004VLz5-44" target="3njZrD6ApjCg7004VLz5-48">
          <mxGeometry width="50" height="50" relative="1" as="geometry">
            <mxPoint x="604.38" y="-350" as="sourcePoint" />
            <mxPoint x="984.38" y="-320" as="targetPoint" />
          </mxGeometry>
        </mxCell>
        <mxCell id="3njZrD6ApjCg7004VLz5-51" value="" style="endArrow=none;html=1;rounded=0;exitX=0;exitY=0.5;exitDx=0;exitDy=0;entryX=1;entryY=0;entryDx=0;entryDy=0;" edge="1" parent="1" source="3njZrD6ApjCg7004VLz5-45" target="3njZrD6ApjCg7004VLz5-44">
          <mxGeometry width="50" height="50" relative="1" as="geometry">
            <mxPoint x="944.38" y="-260" as="sourcePoint" />
            <mxPoint x="994.38" y="-310" as="targetPoint" />
          </mxGeometry>
        </mxCell>
        <mxCell id="3njZrD6ApjCg7004VLz5-52" value="" style="endArrow=none;html=1;rounded=0;exitX=0;exitY=0.5;exitDx=0;exitDy=0;entryX=1;entryY=0;entryDx=0;entryDy=0;" edge="1" parent="1" source="3njZrD6ApjCg7004VLz5-320" target="3njZrD6ApjCg7004VLz5-44">
          <mxGeometry width="50" height="50" relative="1" as="geometry">
            <mxPoint x="1029.3800000000156" y="-375" as="sourcePoint" />
            <mxPoint x="1004.38" y="-300" as="targetPoint" />
          </mxGeometry>
        </mxCell>
        <mxCell id="3njZrD6ApjCg7004VLz5-53" value="" style="endArrow=none;html=1;rounded=0;exitX=1;exitY=0.5;exitDx=0;exitDy=0;entryX=0;entryY=1;entryDx=0;entryDy=0;" edge="1" parent="1" source="3njZrD6ApjCg7004VLz5-47" target="3njZrD6ApjCg7004VLz5-44">
          <mxGeometry width="50" height="50" relative="1" as="geometry">
            <mxPoint x="974.38" y="-230" as="sourcePoint" />
            <mxPoint x="754.38" y="-300" as="targetPoint" />
          </mxGeometry>
        </mxCell>
        <mxCell id="3njZrD6ApjCg7004VLz5-54" value="" style="endArrow=none;html=1;rounded=0;exitX=0;exitY=0.5;exitDx=0;exitDy=0;entryX=1;entryY=1;entryDx=0;entryDy=0;" edge="1" parent="1" source="3njZrD6ApjCg7004VLz5-319" target="3njZrD6ApjCg7004VLz5-44">
          <mxGeometry width="50" height="50" relative="1" as="geometry">
            <mxPoint x="1024.3799999999842" y="-115" as="sourcePoint" />
            <mxPoint x="1034.38" y="-270" as="targetPoint" />
          </mxGeometry>
        </mxCell>
        <mxCell id="3njZrD6ApjCg7004VLz5-55" value="Resources" style="rounded=0;whiteSpace=wrap;html=1;" vertex="1" parent="1">
          <mxGeometry x="1320" y="730" width="120" height="60" as="geometry" />
        </mxCell>
        <mxCell id="3njZrD6ApjCg7004VLz5-56" value="&lt;b style=&quot;&quot;&gt;&lt;font style=&quot;font-size: 12px;&quot;&gt;d&lt;/font&gt;&lt;/b&gt;" style="ellipse;whiteSpace=wrap;html=1;" vertex="1" parent="1">
          <mxGeometry x="1362.5" y="790" width="35" height="30" as="geometry" />
        </mxCell>
        <mxCell id="3njZrD6ApjCg7004VLz5-57" value="" style="endArrow=none;html=1;rounded=0;exitX=0.5;exitY=0;exitDx=0;exitDy=0;entryX=0.5;entryY=1;entryDx=0;entryDy=0;" edge="1" parent="1" source="3njZrD6ApjCg7004VLz5-56" target="3njZrD6ApjCg7004VLz5-55">
          <mxGeometry width="50" height="50" relative="1" as="geometry">
            <mxPoint x="1160" y="700" as="sourcePoint" />
            <mxPoint x="1210" y="650" as="targetPoint" />
          </mxGeometry>
        </mxCell>
        <mxCell id="3njZrD6ApjCg7004VLz5-58" value="" style="endArrow=none;html=1;rounded=0;" edge="1" parent="1">
          <mxGeometry width="50" height="50" relative="1" as="geometry">
            <mxPoint x="1340" y="820" as="sourcePoint" />
            <mxPoint x="1420" y="820" as="targetPoint" />
            <Array as="points">
              <mxPoint x="1370" y="820" />
            </Array>
          </mxGeometry>
        </mxCell>
        <mxCell id="3njZrD6ApjCg7004VLz5-59" value="Lake" style="rounded=0;whiteSpace=wrap;html=1;" vertex="1" parent="1">
          <mxGeometry x="1320" y="1030" width="120" height="60" as="geometry" />
        </mxCell>
        <mxCell id="3njZrD6ApjCg7004VLz5-60" value="Natural Resources" style="rounded=0;whiteSpace=wrap;html=1;" vertex="1" parent="1">
          <mxGeometry x="2980" y="1025" width="120" height="60" as="geometry" />
        </mxCell>
        <mxCell id="3njZrD6ApjCg7004VLz5-61" value="" style="endArrow=none;html=1;rounded=0;exitX=0.5;exitY=0;exitDx=0;exitDy=0;entryX=0.5;entryY=1;entryDx=0;entryDy=0;" edge="1" parent="1" source="7_UV4Mxnz30BFYZljL8q-1" target="3njZrD6ApjCg7004VLz5-56">
          <mxGeometry width="50" height="50" relative="1" as="geometry">
            <mxPoint x="1410" y="920" as="sourcePoint" />
            <mxPoint x="1460" y="870" as="targetPoint" />
          </mxGeometry>
        </mxCell>
        <mxCell id="3njZrD6ApjCg7004VLz5-64" value="contains" style="rhombus;whiteSpace=wrap;html=1;" vertex="1" parent="1">
          <mxGeometry x="270" y="1285" width="80" height="80" as="geometry" />
        </mxCell>
        <mxCell id="3njZrD6ApjCg7004VLz5-65" value="" style="endArrow=none;html=1;rounded=0;entryX=0.5;entryY=1;entryDx=0;entryDy=0;exitX=0.5;exitY=0;exitDx=0;exitDy=0;" edge="1" parent="1" source="3njZrD6ApjCg7004VLz5-64">
          <mxGeometry width="50" height="50" relative="1" as="geometry">
            <mxPoint x="380" y="1125" as="sourcePoint" />
            <mxPoint x="310" y="995" as="targetPoint" />
          </mxGeometry>
        </mxCell>
        <mxCell id="3njZrD6ApjCg7004VLz5-66" value="" style="endArrow=none;html=1;rounded=0;entryX=0.5;entryY=1;entryDx=0;entryDy=0;exitX=0.5;exitY=0;exitDx=0;exitDy=0;" edge="1" parent="1" source="3njZrD6ApjCg7004VLz5-68" target="3njZrD6ApjCg7004VLz5-64">
          <mxGeometry width="50" height="50" relative="1" as="geometry">
            <mxPoint x="310" y="1464.7390879755435" as="sourcePoint" />
            <mxPoint x="320" y="1005" as="targetPoint" />
          </mxGeometry>
        </mxCell>
        <mxCell id="3njZrD6ApjCg7004VLz5-67" style="edgeStyle=orthogonalEdgeStyle;rounded=0;orthogonalLoop=1;jettySize=auto;html=1;exitX=0.5;exitY=1;exitDx=0;exitDy=0;" edge="1" parent="1" source="3njZrD6ApjCg7004VLz5-68">
          <mxGeometry relative="1" as="geometry">
            <mxPoint x="309.54545454545405" y="1655.545454545454" as="targetPoint" />
          </mxGeometry>
        </mxCell>
        <mxCell id="3njZrD6ApjCg7004VLz5-68" value="Site" style="rounded=0;whiteSpace=wrap;html=1;" vertex="1" parent="1">
          <mxGeometry x="250" y="1595" width="120" height="60" as="geometry" />
        </mxCell>
        <mxCell id="3njZrD6ApjCg7004VLz5-69" value="&lt;u&gt;&lt;b&gt;Site_id&lt;/b&gt;&lt;/u&gt;" style="ellipse;whiteSpace=wrap;html=1;" vertex="1" parent="1">
          <mxGeometry x="40" y="1865" width="120" height="50" as="geometry" />
        </mxCell>
        <mxCell id="3njZrD6ApjCg7004VLz5-70" value="Allowed_Equipments" style="ellipse;whiteSpace=wrap;html=1;" vertex="1" parent="1">
          <mxGeometry x="425" y="1765" width="130" height="50" as="geometry" />
        </mxCell>
        <mxCell id="3njZrD6ApjCg7004VLz5-71" value="Site_Name" style="ellipse;whiteSpace=wrap;html=1;" vertex="1" parent="1">
          <mxGeometry x="-100" y="1865" width="120" height="50" as="geometry" />
        </mxCell>
        <mxCell id="3njZrD6ApjCg7004VLz5-72" value="Capacity" style="ellipse;whiteSpace=wrap;html=1;" vertex="1" parent="1">
          <mxGeometry x="420" y="1325" width="120" height="50" as="geometry" />
        </mxCell>
        <mxCell id="3njZrD6ApjCg7004VLz5-73" value="Rate" style="ellipse;whiteSpace=wrap;html=1;" vertex="1" parent="1">
          <mxGeometry x="568.75" y="1325" width="120" height="50" as="geometry" />
        </mxCell>
        <mxCell id="3njZrD6ApjCg7004VLz5-74" value="Site_Location" style="ellipse;whiteSpace=wrap;html=1;" vertex="1" parent="1">
          <mxGeometry x="-260" y="1865" width="120" height="50" as="geometry" />
        </mxCell>
        <mxCell id="3njZrD6ApjCg7004VLz5-75" value="" style="endArrow=none;html=1;rounded=0;entryX=0.5;entryY=0;entryDx=0;entryDy=0;exitX=0;exitY=1;exitDx=0;exitDy=0;" edge="1" parent="1" source="3njZrD6ApjCg7004VLz5-68" target="3njZrD6ApjCg7004VLz5-71">
          <mxGeometry width="50" height="50" relative="1" as="geometry">
            <mxPoint x="560" y="1215" as="sourcePoint" />
            <mxPoint x="610" y="1165" as="targetPoint" />
          </mxGeometry>
        </mxCell>
        <mxCell id="3njZrD6ApjCg7004VLz5-76" value="" style="endArrow=none;html=1;rounded=0;entryX=0.5;entryY=0;entryDx=0;entryDy=0;exitX=0;exitY=1;exitDx=0;exitDy=0;" edge="1" parent="1" source="3njZrD6ApjCg7004VLz5-68" target="3njZrD6ApjCg7004VLz5-74">
          <mxGeometry width="50" height="50" relative="1" as="geometry">
            <mxPoint x="240" y="1145" as="sourcePoint" />
            <mxPoint x="620" y="1175" as="targetPoint" />
          </mxGeometry>
        </mxCell>
        <mxCell id="3njZrD6ApjCg7004VLz5-77" value="" style="endArrow=none;html=1;rounded=0;exitX=0.5;exitY=0;exitDx=0;exitDy=0;entryX=0;entryY=1;entryDx=0;entryDy=0;" edge="1" parent="1" source="3njZrD6ApjCg7004VLz5-69" target="3njZrD6ApjCg7004VLz5-68">
          <mxGeometry width="50" height="50" relative="1" as="geometry">
            <mxPoint x="580" y="1235" as="sourcePoint" />
            <mxPoint x="630" y="1185" as="targetPoint" />
          </mxGeometry>
        </mxCell>
        <mxCell id="3njZrD6ApjCg7004VLz5-78" value="" style="endArrow=none;html=1;rounded=0;exitX=0.5;exitY=1;exitDx=0;exitDy=0;entryX=1;entryY=0;entryDx=0;entryDy=0;" edge="1" parent="1" source="3njZrD6ApjCg7004VLz5-72" target="3njZrD6ApjCg7004VLz5-68">
          <mxGeometry width="50" height="50" relative="1" as="geometry">
            <mxPoint x="220" y="1295" as="sourcePoint" />
            <mxPoint x="640" y="1195" as="targetPoint" />
          </mxGeometry>
        </mxCell>
        <mxCell id="3njZrD6ApjCg7004VLz5-79" value="" style="endArrow=none;html=1;rounded=0;exitX=0.5;exitY=1;exitDx=0;exitDy=0;entryX=1;entryY=0;entryDx=0;entryDy=0;" edge="1" parent="1" source="3njZrD6ApjCg7004VLz5-73" target="3njZrD6ApjCg7004VLz5-68">
          <mxGeometry width="50" height="50" relative="1" as="geometry">
            <mxPoint x="1300" y="1260" as="sourcePoint" />
            <mxPoint x="1080" y="1190" as="targetPoint" />
          </mxGeometry>
        </mxCell>
        <mxCell id="3njZrD6ApjCg7004VLz5-80" value="" style="endArrow=none;html=1;rounded=0;exitX=0;exitY=0.5;exitDx=0;exitDy=0;entryX=1;entryY=1;entryDx=0;entryDy=0;" edge="1" parent="1" source="3njZrD6ApjCg7004VLz5-70" target="3njZrD6ApjCg7004VLz5-68">
          <mxGeometry width="50" height="50" relative="1" as="geometry">
            <mxPoint x="1310" y="1270" as="sourcePoint" />
            <mxPoint x="1360" y="1220" as="targetPoint" />
          </mxGeometry>
        </mxCell>
        <mxCell id="3njZrD6ApjCg7004VLz5-81" value="Site_Number" style="ellipse;whiteSpace=wrap;html=1;" vertex="1" parent="1">
          <mxGeometry x="-410" y="1865" width="120" height="50" as="geometry" />
        </mxCell>
        <mxCell id="3njZrD6ApjCg7004VLz5-82" value="" style="endArrow=none;html=1;rounded=0;exitX=0.5;exitY=0;exitDx=0;exitDy=0;entryX=0;entryY=1;entryDx=0;entryDy=0;" edge="1" parent="1" source="3njZrD6ApjCg7004VLz5-81" target="3njZrD6ApjCg7004VLz5-68">
          <mxGeometry width="50" height="50" relative="1" as="geometry">
            <mxPoint x="610" y="1205" as="sourcePoint" />
            <mxPoint x="660" y="1155" as="targetPoint" />
          </mxGeometry>
        </mxCell>
        <mxCell id="3njZrD6ApjCg7004VLz5-83" value="Park" style="rounded=0;whiteSpace=wrap;html=1;" vertex="1" parent="1">
          <mxGeometry x="250" y="935" width="120" height="60" as="geometry" />
        </mxCell>
        <mxCell id="3njZrD6ApjCg7004VLz5-84" value="&lt;u&gt;&lt;b&gt;Park_Id&lt;/b&gt;&lt;/u&gt;" style="ellipse;whiteSpace=wrap;html=1;" vertex="1" parent="1">
          <mxGeometry x="560" y="790" width="120" height="50" as="geometry" />
        </mxCell>
        <mxCell id="3njZrD6ApjCg7004VLz5-85" value="Park_Location" style="ellipse;whiteSpace=wrap;html=1;" vertex="1" parent="1">
          <mxGeometry x="-40" y="1325" width="120" height="50" as="geometry" />
        </mxCell>
        <mxCell id="3njZrD6ApjCg7004VLz5-86" value="Opening Hours" style="ellipse;whiteSpace=wrap;html=1;" vertex="1" parent="1">
          <mxGeometry x="560" y="530" width="120" height="50" as="geometry" />
        </mxCell>
        <mxCell id="3njZrD6ApjCg7004VLz5-87" value="Size" style="ellipse;whiteSpace=wrap;html=1;" vertex="1" parent="1">
          <mxGeometry x="560" y="700" width="120" height="50" as="geometry" />
        </mxCell>
        <mxCell id="3njZrD6ApjCg7004VLz5-88" value="Park_Area" style="ellipse;whiteSpace=wrap;html=1;" vertex="1" parent="1">
          <mxGeometry x="-40" y="1135" width="120" height="50" as="geometry" />
        </mxCell>
        <mxCell id="3njZrD6ApjCg7004VLz5-89" value="Description" style="ellipse;whiteSpace=wrap;html=1;" vertex="1" parent="1">
          <mxGeometry x="-40" y="1235" width="120" height="50" as="geometry" />
        </mxCell>
        <mxCell id="3njZrD6ApjCg7004VLz5-90" value="Park_Name" style="ellipse;whiteSpace=wrap;html=1;" vertex="1" parent="1">
          <mxGeometry x="560" y="620" width="120" height="50" as="geometry" />
        </mxCell>
        <mxCell id="3njZrD6ApjCg7004VLz5-91" value="" style="endArrow=none;html=1;rounded=0;entryX=0;entryY=0.5;entryDx=0;entryDy=0;exitX=1;exitY=0;exitDx=0;exitDy=0;" edge="1" parent="1" source="3njZrD6ApjCg7004VLz5-83" target="3njZrD6ApjCg7004VLz5-87">
          <mxGeometry width="50" height="50" relative="1" as="geometry">
            <mxPoint x="540" y="945" as="sourcePoint" />
            <mxPoint x="590" y="895" as="targetPoint" />
          </mxGeometry>
        </mxCell>
        <mxCell id="3njZrD6ApjCg7004VLz5-92" value="" style="endArrow=none;html=1;rounded=0;entryX=0;entryY=0.5;entryDx=0;entryDy=0;exitX=1;exitY=0;exitDx=0;exitDy=0;" edge="1" parent="1" source="3njZrD6ApjCg7004VLz5-83" target="3njZrD6ApjCg7004VLz5-90">
          <mxGeometry width="50" height="50" relative="1" as="geometry">
            <mxPoint x="220" y="875" as="sourcePoint" />
            <mxPoint x="600" y="905" as="targetPoint" />
          </mxGeometry>
        </mxCell>
        <mxCell id="3njZrD6ApjCg7004VLz5-93" value="" style="endArrow=none;html=1;rounded=0;exitX=0;exitY=0.5;exitDx=0;exitDy=0;entryX=1;entryY=0;entryDx=0;entryDy=0;" edge="1" parent="1" source="3njZrD6ApjCg7004VLz5-84" target="3njZrD6ApjCg7004VLz5-83">
          <mxGeometry width="50" height="50" relative="1" as="geometry">
            <mxPoint x="560" y="965" as="sourcePoint" />
            <mxPoint x="610" y="915" as="targetPoint" />
          </mxGeometry>
        </mxCell>
        <mxCell id="3njZrD6ApjCg7004VLz5-94" value="" style="endArrow=none;html=1;rounded=0;exitX=1;exitY=0.5;exitDx=0;exitDy=0;entryX=0;entryY=1;entryDx=0;entryDy=0;" edge="1" parent="1" source="3njZrD6ApjCg7004VLz5-88" target="3njZrD6ApjCg7004VLz5-83">
          <mxGeometry width="50" height="50" relative="1" as="geometry">
            <mxPoint x="200" y="1025" as="sourcePoint" />
            <mxPoint x="620" y="925" as="targetPoint" />
          </mxGeometry>
        </mxCell>
        <mxCell id="3njZrD6ApjCg7004VLz5-95" value="" style="endArrow=none;html=1;rounded=0;exitX=0;exitY=0.5;exitDx=0;exitDy=0;entryX=1;entryY=0;entryDx=0;entryDy=0;" edge="1" parent="1" source="3njZrD6ApjCg7004VLz5-86" target="3njZrD6ApjCg7004VLz5-83">
          <mxGeometry width="50" height="50" relative="1" as="geometry">
            <mxPoint x="580" y="985" as="sourcePoint" />
            <mxPoint x="630" y="935" as="targetPoint" />
          </mxGeometry>
        </mxCell>
        <mxCell id="3njZrD6ApjCg7004VLz5-96" value="" style="endArrow=none;html=1;rounded=0;exitX=1;exitY=0.5;exitDx=0;exitDy=0;entryX=0;entryY=1;entryDx=0;entryDy=0;" edge="1" parent="1" source="3njZrD6ApjCg7004VLz5-89" target="3njZrD6ApjCg7004VLz5-83">
          <mxGeometry width="50" height="50" relative="1" as="geometry">
            <mxPoint x="590" y="995" as="sourcePoint" />
            <mxPoint x="370" y="925" as="targetPoint" />
          </mxGeometry>
        </mxCell>
        <mxCell id="3njZrD6ApjCg7004VLz5-97" value="" style="endArrow=none;html=1;rounded=0;exitX=1;exitY=0.5;exitDx=0;exitDy=0;entryX=0;entryY=1;entryDx=0;entryDy=0;" edge="1" parent="1" source="3njZrD6ApjCg7004VLz5-85" target="3njZrD6ApjCg7004VLz5-83">
          <mxGeometry width="50" height="50" relative="1" as="geometry">
            <mxPoint x="600" y="1005" as="sourcePoint" />
            <mxPoint x="650" y="955" as="targetPoint" />
          </mxGeometry>
        </mxCell>
        <mxCell id="3njZrD6ApjCg7004VLz5-98" value="manages" style="rhombus;whiteSpace=wrap;html=1;" vertex="1" parent="1">
          <mxGeometry x="-320" y="1585" width="80" height="80" as="geometry" />
        </mxCell>
        <mxCell id="3njZrD6ApjCg7004VLz5-99" value="" style="endArrow=none;html=1;rounded=0;exitX=1;exitY=0.5;exitDx=0;exitDy=0;entryX=0;entryY=0.5;entryDx=0;entryDy=0;" edge="1" parent="1" source="3njZrD6ApjCg7004VLz5-26" target="3njZrD6ApjCg7004VLz5-98">
          <mxGeometry width="50" height="50" relative="1" as="geometry">
            <mxPoint x="-50" y="1345" as="sourcePoint" />
            <mxPoint y="1295" as="targetPoint" />
          </mxGeometry>
        </mxCell>
        <mxCell id="3njZrD6ApjCg7004VLz5-100" value="" style="endArrow=none;html=1;rounded=0;exitX=1;exitY=0.5;exitDx=0;exitDy=0;entryX=0;entryY=0.5;entryDx=0;entryDy=0;" edge="1" parent="1" source="3njZrD6ApjCg7004VLz5-98" target="3njZrD6ApjCg7004VLz5-68">
          <mxGeometry width="50" height="50" relative="1" as="geometry">
            <mxPoint x="190" y="1345" as="sourcePoint" />
            <mxPoint x="240" y="1295" as="targetPoint" />
          </mxGeometry>
        </mxCell>
        <mxCell id="3njZrD6ApjCg7004VLz5-101" value="Offers" style="rhombus;whiteSpace=wrap;html=1;" vertex="1" parent="1">
          <mxGeometry x="-360" y="1030" width="80" height="80" as="geometry" />
        </mxCell>
        <mxCell id="3njZrD6ApjCg7004VLz5-102" value="" style="endArrow=none;html=1;rounded=0;entryX=0;entryY=0.75;entryDx=0;entryDy=0;exitX=0.5;exitY=0;exitDx=0;exitDy=0;" edge="1" parent="1" source="3njZrD6ApjCg7004VLz5-101" target="3njZrD6ApjCg7004VLz5-83">
          <mxGeometry width="50" height="50" relative="1" as="geometry">
            <mxPoint x="-30" y="1010" as="sourcePoint" />
            <mxPoint x="460" y="1015" as="targetPoint" />
            <Array as="points">
              <mxPoint x="-320" y="980" />
            </Array>
          </mxGeometry>
        </mxCell>
        <mxCell id="3njZrD6ApjCg7004VLz5-103" value="Fishing Area" style="rounded=0;whiteSpace=wrap;html=1;" vertex="1" parent="1">
          <mxGeometry x="1290" y="1998" width="160" height="60" as="geometry" />
        </mxCell>
        <mxCell id="3njZrD6ApjCg7004VLz5-104" value="Area_Name" style="ellipse;whiteSpace=wrap;html=1;" vertex="1" parent="1">
          <mxGeometry x="1490" y="1800" width="120" height="50" as="geometry" />
        </mxCell>
        <mxCell id="3njZrD6ApjCg7004VLz5-105" value="location" style="ellipse;whiteSpace=wrap;html=1;" vertex="1" parent="1">
          <mxGeometry x="995" y="1958" width="120" height="50" as="geometry" />
        </mxCell>
        <mxCell id="3njZrD6ApjCg7004VLz5-106" value="Area_Map" style="ellipse;whiteSpace=wrap;html=1;" vertex="1" parent="1">
          <mxGeometry x="990" y="2093" width="120" height="50" as="geometry" />
        </mxCell>
        <mxCell id="3njZrD6ApjCg7004VLz5-107" value="Description" style="ellipse;whiteSpace=wrap;html=1;" vertex="1" parent="1">
          <mxGeometry x="1490" y="1885" width="120" height="50" as="geometry" />
        </mxCell>
        <mxCell id="3njZrD6ApjCg7004VLz5-108" value="" style="endArrow=none;html=1;rounded=0;entryX=0;entryY=0.5;entryDx=0;entryDy=0;exitX=1;exitY=0;exitDx=0;exitDy=0;" edge="1" parent="1" source="3njZrD6ApjCg7004VLz5-103" target="3njZrD6ApjCg7004VLz5-104">
          <mxGeometry width="50" height="50" relative="1" as="geometry">
            <mxPoint x="1555" y="2780" as="sourcePoint" />
            <mxPoint x="1605" y="2730" as="targetPoint" />
          </mxGeometry>
        </mxCell>
        <mxCell id="3njZrD6ApjCg7004VLz5-109" value="" style="endArrow=none;html=1;rounded=0;entryX=0;entryY=0.5;entryDx=0;entryDy=0;exitX=1;exitY=0;exitDx=0;exitDy=0;" edge="1" parent="1" source="3njZrD6ApjCg7004VLz5-103" target="3njZrD6ApjCg7004VLz5-107">
          <mxGeometry width="50" height="50" relative="1" as="geometry">
            <mxPoint x="1235" y="2710" as="sourcePoint" />
            <mxPoint x="1615" y="2740" as="targetPoint" />
          </mxGeometry>
        </mxCell>
        <mxCell id="3njZrD6ApjCg7004VLz5-110" value="" style="endArrow=none;html=1;rounded=0;exitX=1;exitY=0.5;exitDx=0;exitDy=0;entryX=0;entryY=0.5;entryDx=0;entryDy=0;" edge="1" parent="1" source="3njZrD6ApjCg7004VLz5-105" target="3njZrD6ApjCg7004VLz5-103">
          <mxGeometry width="50" height="50" relative="1" as="geometry">
            <mxPoint x="1215" y="2860" as="sourcePoint" />
            <mxPoint x="1635" y="2760" as="targetPoint" />
          </mxGeometry>
        </mxCell>
        <mxCell id="3njZrD6ApjCg7004VLz5-111" value="" style="endArrow=none;html=1;rounded=0;exitX=1;exitY=0.5;exitDx=0;exitDy=0;entryX=0;entryY=1;entryDx=0;entryDy=0;" edge="1" parent="1" source="3njZrD6ApjCg7004VLz5-106" target="3njZrD6ApjCg7004VLz5-103">
          <mxGeometry width="50" height="50" relative="1" as="geometry">
            <mxPoint x="1605" y="2830" as="sourcePoint" />
            <mxPoint x="1385" y="2760" as="targetPoint" />
          </mxGeometry>
        </mxCell>
        <mxCell id="3njZrD6ApjCg7004VLz5-112" value="&lt;u&gt;&lt;b&gt;Area_ID&lt;/b&gt;&lt;/u&gt;" style="ellipse;whiteSpace=wrap;html=1;" vertex="1" parent="1">
          <mxGeometry x="995" y="1823" width="120" height="50" as="geometry" />
        </mxCell>
        <mxCell id="3njZrD6ApjCg7004VLz5-113" value="" style="endArrow=none;html=1;rounded=0;exitX=1;exitY=0.5;exitDx=0;exitDy=0;entryX=0;entryY=0;entryDx=0;entryDy=0;" edge="1" parent="1" source="3njZrD6ApjCg7004VLz5-112" target="3njZrD6ApjCg7004VLz5-103">
          <mxGeometry width="50" height="50" relative="1" as="geometry">
            <mxPoint x="1605" y="2770" as="sourcePoint" />
            <mxPoint x="1655" y="2720" as="targetPoint" />
          </mxGeometry>
        </mxCell>
        <mxCell id="3njZrD6ApjCg7004VLz5-114" value="Lake_City" style="rounded=0;whiteSpace=wrap;html=1;" vertex="1" parent="1">
          <mxGeometry x="968.75" y="1505" width="160" height="60" as="geometry" />
        </mxCell>
        <mxCell id="3njZrD6ApjCg7004VLz5-115" value="&lt;u&gt;City_ID&lt;/u&gt;" style="ellipse;whiteSpace=wrap;html=1;" vertex="1" parent="1">
          <mxGeometry x="730" y="1435" width="120" height="50" as="geometry" />
        </mxCell>
        <mxCell id="3njZrD6ApjCg7004VLz5-116" value="Name" style="ellipse;whiteSpace=wrap;html=1;" vertex="1" parent="1">
          <mxGeometry x="730" y="1560" width="120" height="50" as="geometry" />
        </mxCell>
        <mxCell id="3njZrD6ApjCg7004VLz5-117" value="" style="endArrow=none;html=1;rounded=0;exitX=1;exitY=0.5;exitDx=0;exitDy=0;entryX=0;entryY=0.5;entryDx=0;entryDy=0;" edge="1" parent="1" source="3njZrD6ApjCg7004VLz5-115" target="3njZrD6ApjCg7004VLz5-114">
          <mxGeometry width="50" height="50" relative="1" as="geometry">
            <mxPoint x="808.75" y="1520" as="sourcePoint" />
            <mxPoint x="1228.75" y="1420" as="targetPoint" />
          </mxGeometry>
        </mxCell>
        <mxCell id="3njZrD6ApjCg7004VLz5-118" value="" style="endArrow=none;html=1;rounded=0;exitX=1;exitY=0.5;exitDx=0;exitDy=0;entryX=0;entryY=0.5;entryDx=0;entryDy=0;" edge="1" parent="1" source="3njZrD6ApjCg7004VLz5-116" target="3njZrD6ApjCg7004VLz5-114">
          <mxGeometry width="50" height="50" relative="1" as="geometry">
            <mxPoint x="1198.75" y="1490" as="sourcePoint" />
            <mxPoint x="978.75" y="1420" as="targetPoint" />
          </mxGeometry>
        </mxCell>
        <mxCell id="3njZrD6ApjCg7004VLz5-119" value="" style="endArrow=none;html=1;rounded=0;entryX=0.5;entryY=1;entryDx=0;entryDy=0;" edge="1" parent="1" target="3njZrD6ApjCg7004VLz5-26">
          <mxGeometry width="50" height="50" relative="1" as="geometry">
            <mxPoint x="-600" y="1970" as="sourcePoint" />
            <mxPoint x="-580" y="1930" as="targetPoint" />
          </mxGeometry>
        </mxCell>
        <mxCell id="3njZrD6ApjCg7004VLz5-120" value="makes" style="rhombus;whiteSpace=wrap;html=1;" vertex="1" parent="1">
          <mxGeometry x="-640" y="1965" width="80" height="80" as="geometry" />
        </mxCell>
        <mxCell id="3njZrD6ApjCg7004VLz5-121" value="" style="endArrow=none;html=1;rounded=0;exitX=0;exitY=0.75;exitDx=0;exitDy=0;entryX=0.5;entryY=1;entryDx=0;entryDy=0;" edge="1" parent="1" source="3njZrD6ApjCg7004VLz5-1" target="3njZrD6ApjCg7004VLz5-120">
          <mxGeometry width="50" height="50" relative="1" as="geometry">
            <mxPoint x="530" y="3040" as="sourcePoint" />
            <mxPoint x="-500" y="2630" as="targetPoint" />
            <Array as="points">
              <mxPoint x="-600" y="3040" />
            </Array>
          </mxGeometry>
        </mxCell>
        <mxCell id="3njZrD6ApjCg7004VLz5-122" value="News" style="rounded=0;whiteSpace=wrap;html=1;" vertex="1" parent="1">
          <mxGeometry x="2850" y="-105" width="160" height="60" as="geometry" />
        </mxCell>
        <mxCell id="3njZrD6ApjCg7004VLz5-123" value="Date" style="ellipse;whiteSpace=wrap;html=1;" vertex="1" parent="1">
          <mxGeometry x="3120" y="40" width="120" height="50" as="geometry" />
        </mxCell>
        <mxCell id="3njZrD6ApjCg7004VLz5-124" value="Title" style="ellipse;whiteSpace=wrap;html=1;" vertex="1" parent="1">
          <mxGeometry x="2540" y="40" width="120" height="50" as="geometry" />
        </mxCell>
        <mxCell id="3njZrD6ApjCg7004VLz5-125" value="Content" style="ellipse;whiteSpace=wrap;html=1;" vertex="1" parent="1">
          <mxGeometry x="3110" y="-240" width="120" height="50" as="geometry" />
        </mxCell>
        <mxCell id="3njZrD6ApjCg7004VLz5-126" value="" style="endArrow=none;html=1;rounded=0;entryX=0;entryY=0.5;entryDx=0;entryDy=0;exitX=1;exitY=1;exitDx=0;exitDy=0;" edge="1" parent="1" source="3njZrD6ApjCg7004VLz5-122" target="3njZrD6ApjCg7004VLz5-123">
          <mxGeometry width="50" height="50" relative="1" as="geometry">
            <mxPoint x="3000" y="-95" as="sourcePoint" />
            <mxPoint x="3050" y="-145" as="targetPoint" />
          </mxGeometry>
        </mxCell>
        <mxCell id="3njZrD6ApjCg7004VLz5-127" value="" style="endArrow=none;html=1;rounded=0;entryX=0;entryY=0.5;entryDx=0;entryDy=0;exitX=1;exitY=0;exitDx=0;exitDy=0;" edge="1" parent="1" source="3njZrD6ApjCg7004VLz5-122" target="3njZrD6ApjCg7004VLz5-125">
          <mxGeometry width="50" height="50" relative="1" as="geometry">
            <mxPoint x="2680" y="-165" as="sourcePoint" />
            <mxPoint x="3060" y="-135" as="targetPoint" />
          </mxGeometry>
        </mxCell>
        <mxCell id="3njZrD6ApjCg7004VLz5-128" value="" style="endArrow=none;html=1;rounded=0;exitX=1;exitY=0.5;exitDx=0;exitDy=0;entryX=0;entryY=1;entryDx=0;entryDy=0;" edge="1" parent="1" source="3njZrD6ApjCg7004VLz5-124" target="3njZrD6ApjCg7004VLz5-122">
          <mxGeometry width="50" height="50" relative="1" as="geometry">
            <mxPoint x="3050" y="-45" as="sourcePoint" />
            <mxPoint x="2830" y="-115" as="targetPoint" />
          </mxGeometry>
        </mxCell>
        <mxCell id="3njZrD6ApjCg7004VLz5-129" value="&lt;u&gt;&lt;b&gt;News_ID&lt;/b&gt;&lt;/u&gt;" style="ellipse;whiteSpace=wrap;html=1;" vertex="1" parent="1">
          <mxGeometry x="2545" y="-240" width="120" height="50" as="geometry" />
        </mxCell>
        <mxCell id="3njZrD6ApjCg7004VLz5-130" value="" style="endArrow=none;html=1;rounded=0;exitX=1;exitY=0.5;exitDx=0;exitDy=0;entryX=0;entryY=0;entryDx=0;entryDy=0;" edge="1" parent="1" source="3njZrD6ApjCg7004VLz5-129" target="3njZrD6ApjCg7004VLz5-122">
          <mxGeometry width="50" height="50" relative="1" as="geometry">
            <mxPoint x="3050" y="-105" as="sourcePoint" />
            <mxPoint x="3100" y="-155" as="targetPoint" />
          </mxGeometry>
        </mxCell>
        <mxCell id="3njZrD6ApjCg7004VLz5-131" value="Publications" style="rounded=0;whiteSpace=wrap;html=1;" vertex="1" parent="1">
          <mxGeometry x="1905" y="2595.5" width="160" height="60" as="geometry" />
        </mxCell>
        <mxCell id="3njZrD6ApjCg7004VLz5-132" value="Date" style="ellipse;whiteSpace=wrap;html=1;" vertex="1" parent="1">
          <mxGeometry x="2160" y="2756" width="120" height="50" as="geometry" />
        </mxCell>
        <mxCell id="3njZrD6ApjCg7004VLz5-133" value="Publication_Type" style="ellipse;whiteSpace=wrap;html=1;" vertex="1" parent="1">
          <mxGeometry x="1655" y="2758" width="120" height="50" as="geometry" />
        </mxCell>
        <mxCell id="3njZrD6ApjCg7004VLz5-134" value="Content" style="ellipse;whiteSpace=wrap;html=1;" vertex="1" parent="1">
          <mxGeometry x="2150" y="2476" width="120" height="50" as="geometry" />
        </mxCell>
        <mxCell id="3njZrD6ApjCg7004VLz5-135" value="" style="endArrow=none;html=1;rounded=0;entryX=0;entryY=0.5;entryDx=0;entryDy=0;exitX=1;exitY=1;exitDx=0;exitDy=0;" edge="1" parent="1" source="3njZrD6ApjCg7004VLz5-131" target="3njZrD6ApjCg7004VLz5-132">
          <mxGeometry width="50" height="50" relative="1" as="geometry">
            <mxPoint x="2040" y="2621" as="sourcePoint" />
            <mxPoint x="2090" y="2571" as="targetPoint" />
          </mxGeometry>
        </mxCell>
        <mxCell id="3njZrD6ApjCg7004VLz5-136" value="" style="endArrow=none;html=1;rounded=0;entryX=0;entryY=0.5;entryDx=0;entryDy=0;exitX=1;exitY=0;exitDx=0;exitDy=0;" edge="1" parent="1" source="3njZrD6ApjCg7004VLz5-131" target="3njZrD6ApjCg7004VLz5-134">
          <mxGeometry width="50" height="50" relative="1" as="geometry">
            <mxPoint x="1720" y="2551" as="sourcePoint" />
            <mxPoint x="2100" y="2581" as="targetPoint" />
          </mxGeometry>
        </mxCell>
        <mxCell id="3njZrD6ApjCg7004VLz5-137" value="" style="endArrow=none;html=1;rounded=0;exitX=1;exitY=0.5;exitDx=0;exitDy=0;entryX=0;entryY=1;entryDx=0;entryDy=0;" edge="1" parent="1" source="3njZrD6ApjCg7004VLz5-133" target="3njZrD6ApjCg7004VLz5-131">
          <mxGeometry width="50" height="50" relative="1" as="geometry">
            <mxPoint x="2090" y="2671" as="sourcePoint" />
            <mxPoint x="1870" y="2601" as="targetPoint" />
          </mxGeometry>
        </mxCell>
        <mxCell id="3njZrD6ApjCg7004VLz5-138" value="&lt;u&gt;&lt;b&gt;Publication_ID&lt;/b&gt;&lt;/u&gt;" style="ellipse;whiteSpace=wrap;html=1;" vertex="1" parent="1">
          <mxGeometry x="1650" y="2478" width="120" height="50" as="geometry" />
        </mxCell>
        <mxCell id="3njZrD6ApjCg7004VLz5-139" value="" style="endArrow=none;html=1;rounded=0;exitX=1;exitY=0.5;exitDx=0;exitDy=0;entryX=0;entryY=0;entryDx=0;entryDy=0;" edge="1" parent="1" source="3njZrD6ApjCg7004VLz5-138" target="3njZrD6ApjCg7004VLz5-131">
          <mxGeometry width="50" height="50" relative="1" as="geometry">
            <mxPoint x="2090" y="2611" as="sourcePoint" />
            <mxPoint x="2140" y="2561" as="targetPoint" />
          </mxGeometry>
        </mxCell>
        <mxCell id="3njZrD6ApjCg7004VLz5-140" value="Education" style="rounded=0;whiteSpace=wrap;html=1;" vertex="1" parent="1">
          <mxGeometry x="3870" y="1610" width="160" height="60" as="geometry" />
        </mxCell>
        <mxCell id="3njZrD6ApjCg7004VLz5-141" value="Program_Type" style="ellipse;whiteSpace=wrap;html=1;" vertex="1" parent="1">
          <mxGeometry x="4117.5" y="1720" width="120" height="50" as="geometry" />
        </mxCell>
        <mxCell id="3njZrD6ApjCg7004VLz5-142" value="Description" style="ellipse;whiteSpace=wrap;html=1;" vertex="1" parent="1">
          <mxGeometry x="3620" y="1710" width="120" height="50" as="geometry" />
        </mxCell>
        <mxCell id="3njZrD6ApjCg7004VLz5-143" value="&lt;u&gt;&lt;b&gt;Education_ID&lt;/b&gt;&lt;/u&gt;" style="ellipse;whiteSpace=wrap;html=1;" vertex="1" parent="1">
          <mxGeometry x="4117.5" y="1480" width="120" height="50" as="geometry" />
        </mxCell>
        <mxCell id="3njZrD6ApjCg7004VLz5-144" value="" style="endArrow=none;html=1;rounded=0;entryX=0;entryY=0.5;entryDx=0;entryDy=0;exitX=1;exitY=1;exitDx=0;exitDy=0;" edge="1" parent="1" source="3njZrD6ApjCg7004VLz5-140" target="3njZrD6ApjCg7004VLz5-141">
          <mxGeometry width="50" height="50" relative="1" as="geometry">
            <mxPoint x="4020" y="1585" as="sourcePoint" />
            <mxPoint x="4070" y="1535" as="targetPoint" />
          </mxGeometry>
        </mxCell>
        <mxCell id="3njZrD6ApjCg7004VLz5-145" value="" style="endArrow=none;html=1;rounded=0;entryX=0;entryY=0.5;entryDx=0;entryDy=0;exitX=1;exitY=0;exitDx=0;exitDy=0;" edge="1" parent="1" source="3njZrD6ApjCg7004VLz5-140" target="3njZrD6ApjCg7004VLz5-143">
          <mxGeometry width="50" height="50" relative="1" as="geometry">
            <mxPoint x="3700" y="1515" as="sourcePoint" />
            <mxPoint x="4080" y="1545" as="targetPoint" />
          </mxGeometry>
        </mxCell>
        <mxCell id="3njZrD6ApjCg7004VLz5-146" value="" style="endArrow=none;html=1;rounded=0;exitX=1;exitY=0.5;exitDx=0;exitDy=0;entryX=0;entryY=1;entryDx=0;entryDy=0;" edge="1" parent="1" source="3njZrD6ApjCg7004VLz5-142" target="3njZrD6ApjCg7004VLz5-140">
          <mxGeometry width="50" height="50" relative="1" as="geometry">
            <mxPoint x="4070" y="1635" as="sourcePoint" />
            <mxPoint x="3850" y="1565" as="targetPoint" />
          </mxGeometry>
        </mxCell>
        <mxCell id="3njZrD6ApjCg7004VLz5-147" value="Program_Name" style="ellipse;whiteSpace=wrap;html=1;" vertex="1" parent="1">
          <mxGeometry x="3620" y="1467.5" width="120" height="50" as="geometry" />
        </mxCell>
        <mxCell id="3njZrD6ApjCg7004VLz5-148" value="" style="endArrow=none;html=1;rounded=0;exitX=1;exitY=0.5;exitDx=0;exitDy=0;entryX=0;entryY=0;entryDx=0;entryDy=0;" edge="1" parent="1" source="3njZrD6ApjCg7004VLz5-147" target="3njZrD6ApjCg7004VLz5-140">
          <mxGeometry width="50" height="50" relative="1" as="geometry">
            <mxPoint x="4070" y="1575" as="sourcePoint" />
            <mxPoint x="4120" y="1525" as="targetPoint" />
          </mxGeometry>
        </mxCell>
        <mxCell id="3njZrD6ApjCg7004VLz5-149" value="Instructor" style="rounded=0;whiteSpace=wrap;html=1;" vertex="1" parent="1">
          <mxGeometry x="3870" y="2105" width="160" height="60" as="geometry" />
        </mxCell>
        <mxCell id="3njZrD6ApjCg7004VLz5-150" value="Expertise" style="ellipse;whiteSpace=wrap;html=1;" vertex="1" parent="1">
          <mxGeometry x="4140" y="2250" width="120" height="50" as="geometry" />
        </mxCell>
        <mxCell id="3njZrD6ApjCg7004VLz5-151" value="Bio" style="ellipse;whiteSpace=wrap;html=1;" vertex="1" parent="1">
          <mxGeometry x="3580" y="1970" width="120" height="50" as="geometry" />
        </mxCell>
        <mxCell id="3njZrD6ApjCg7004VLz5-152" value="Instructor_Name" style="ellipse;whiteSpace=wrap;html=1;" vertex="1" parent="1">
          <mxGeometry x="3560" y="2250" width="120" height="50" as="geometry" />
        </mxCell>
        <mxCell id="3njZrD6ApjCg7004VLz5-154" value="" style="endArrow=none;html=1;rounded=0;entryX=0;entryY=0.5;entryDx=0;entryDy=0;exitX=1;exitY=1;exitDx=0;exitDy=0;" edge="1" parent="1" source="3njZrD6ApjCg7004VLz5-149" target="3njZrD6ApjCg7004VLz5-150">
          <mxGeometry width="50" height="50" relative="1" as="geometry">
            <mxPoint x="4020" y="2115" as="sourcePoint" />
            <mxPoint x="4070" y="2065" as="targetPoint" />
          </mxGeometry>
        </mxCell>
        <mxCell id="3njZrD6ApjCg7004VLz5-156" value="" style="endArrow=none;html=1;rounded=0;exitX=1;exitY=0.5;exitDx=0;exitDy=0;entryX=0;entryY=0;entryDx=0;entryDy=0;" edge="1" parent="1" source="3njZrD6ApjCg7004VLz5-151" target="3njZrD6ApjCg7004VLz5-149">
          <mxGeometry width="50" height="50" relative="1" as="geometry">
            <mxPoint x="3680" y="2195" as="sourcePoint" />
            <mxPoint x="4100" y="2095" as="targetPoint" />
          </mxGeometry>
        </mxCell>
        <mxCell id="3njZrD6ApjCg7004VLz5-157" value="" style="endArrow=none;html=1;rounded=0;exitX=1;exitY=0.5;exitDx=0;exitDy=0;entryX=0;entryY=1;entryDx=0;entryDy=0;" edge="1" parent="1" source="3njZrD6ApjCg7004VLz5-152" target="3njZrD6ApjCg7004VLz5-149">
          <mxGeometry width="50" height="50" relative="1" as="geometry">
            <mxPoint x="4070" y="2165" as="sourcePoint" />
            <mxPoint x="3850" y="2095" as="targetPoint" />
          </mxGeometry>
        </mxCell>
        <mxCell id="3njZrD6ApjCg7004VLz5-158" value="&lt;u&gt;&lt;b&gt;Instructor_ID&lt;/b&gt;&lt;/u&gt;" style="ellipse;whiteSpace=wrap;html=1;" vertex="1" parent="1">
          <mxGeometry x="3580" y="1870" width="120" height="50" as="geometry" />
        </mxCell>
        <mxCell id="3njZrD6ApjCg7004VLz5-159" value="" style="endArrow=none;html=1;rounded=0;exitX=1;exitY=0.5;exitDx=0;exitDy=0;entryX=0;entryY=0;entryDx=0;entryDy=0;" edge="1" parent="1" source="3njZrD6ApjCg7004VLz5-158" target="3njZrD6ApjCg7004VLz5-149">
          <mxGeometry width="50" height="50" relative="1" as="geometry">
            <mxPoint x="4070" y="2105" as="sourcePoint" />
            <mxPoint x="4120" y="2055" as="targetPoint" />
          </mxGeometry>
        </mxCell>
        <mxCell id="3njZrD6ApjCg7004VLz5-160" value="Contact_Information" style="ellipse;whiteSpace=wrap;html=1;" vertex="1" parent="1">
          <mxGeometry x="4150" y="1930" width="120" height="50" as="geometry" />
        </mxCell>
        <mxCell id="3njZrD6ApjCg7004VLz5-161" value="Course" style="rounded=0;whiteSpace=wrap;html=1;" vertex="1" parent="1">
          <mxGeometry x="3870" y="2715" width="160" height="60" as="geometry" />
        </mxCell>
        <mxCell id="3njZrD6ApjCg7004VLz5-162" value="Expertise" style="ellipse;whiteSpace=wrap;html=1;" vertex="1" parent="1">
          <mxGeometry x="4140" y="2860" width="120" height="50" as="geometry" />
        </mxCell>
        <mxCell id="3njZrD6ApjCg7004VLz5-163" value="Contact_Information" style="ellipse;whiteSpace=wrap;html=1;" vertex="1" parent="1">
          <mxGeometry x="3565" y="2850" width="120" height="50" as="geometry" />
        </mxCell>
        <mxCell id="3njZrD6ApjCg7004VLz5-164" value="Instructor_Name" style="ellipse;whiteSpace=wrap;html=1;" vertex="1" parent="1">
          <mxGeometry x="4130" y="2580" width="120" height="50" as="geometry" />
        </mxCell>
        <mxCell id="3njZrD6ApjCg7004VLz5-165" value="" style="endArrow=none;html=1;rounded=0;entryX=0;entryY=0.5;entryDx=0;entryDy=0;exitX=1;exitY=1;exitDx=0;exitDy=0;" edge="1" parent="1" source="3njZrD6ApjCg7004VLz5-161" target="3njZrD6ApjCg7004VLz5-162">
          <mxGeometry width="50" height="50" relative="1" as="geometry">
            <mxPoint x="4020" y="2725" as="sourcePoint" />
            <mxPoint x="4070" y="2675" as="targetPoint" />
          </mxGeometry>
        </mxCell>
        <mxCell id="3njZrD6ApjCg7004VLz5-166" value="" style="endArrow=none;html=1;rounded=0;entryX=0;entryY=0.5;entryDx=0;entryDy=0;exitX=1;exitY=0;exitDx=0;exitDy=0;" edge="1" parent="1" source="3njZrD6ApjCg7004VLz5-161" target="3njZrD6ApjCg7004VLz5-164">
          <mxGeometry width="50" height="50" relative="1" as="geometry">
            <mxPoint x="3700" y="2655" as="sourcePoint" />
            <mxPoint x="4080" y="2685" as="targetPoint" />
          </mxGeometry>
        </mxCell>
        <mxCell id="3njZrD6ApjCg7004VLz5-167" value="" style="endArrow=none;html=1;rounded=0;exitX=1;exitY=0.5;exitDx=0;exitDy=0;entryX=0;entryY=1;entryDx=0;entryDy=0;" edge="1" parent="1" source="3njZrD6ApjCg7004VLz5-163" target="3njZrD6ApjCg7004VLz5-161">
          <mxGeometry width="50" height="50" relative="1" as="geometry">
            <mxPoint x="4070" y="2775" as="sourcePoint" />
            <mxPoint x="3850" y="2705" as="targetPoint" />
          </mxGeometry>
        </mxCell>
        <mxCell id="3njZrD6ApjCg7004VLz5-168" value="&lt;u&gt;&lt;b&gt;Instructor_ID&lt;/b&gt;&lt;/u&gt;" style="ellipse;whiteSpace=wrap;html=1;" vertex="1" parent="1">
          <mxGeometry x="3565" y="2580" width="120" height="50" as="geometry" />
        </mxCell>
        <mxCell id="3njZrD6ApjCg7004VLz5-169" value="" style="endArrow=none;html=1;rounded=0;exitX=1;exitY=0.5;exitDx=0;exitDy=0;entryX=0;entryY=0;entryDx=0;entryDy=0;" edge="1" parent="1" source="3njZrD6ApjCg7004VLz5-168" target="3njZrD6ApjCg7004VLz5-161">
          <mxGeometry width="50" height="50" relative="1" as="geometry">
            <mxPoint x="4070" y="2715" as="sourcePoint" />
            <mxPoint x="4120" y="2665" as="targetPoint" />
          </mxGeometry>
        </mxCell>
        <mxCell id="3njZrD6ApjCg7004VLz5-170" value="Bio" style="ellipse;whiteSpace=wrap;html=1;" vertex="1" parent="1">
          <mxGeometry x="4125" y="2500" width="120" height="50" as="geometry" />
        </mxCell>
        <mxCell id="3njZrD6ApjCg7004VLz5-171" value="" style="endArrow=none;html=1;rounded=0;entryX=0;entryY=0.5;entryDx=0;entryDy=0;exitX=1;exitY=0;exitDx=0;exitDy=0;" edge="1" parent="1" source="3njZrD6ApjCg7004VLz5-161" target="3njZrD6ApjCg7004VLz5-170">
          <mxGeometry width="50" height="50" relative="1" as="geometry">
            <mxPoint x="4035" y="2710" as="sourcePoint" />
            <mxPoint x="4140" y="2615" as="targetPoint" />
          </mxGeometry>
        </mxCell>
        <mxCell id="3njZrD6ApjCg7004VLz5-172" value="has" style="rhombus;whiteSpace=wrap;html=1;" vertex="1" parent="1">
          <mxGeometry x="1295" y="1285" width="80" height="80" as="geometry" />
        </mxCell>
        <mxCell id="3njZrD6ApjCg7004VLz5-173" value="" style="endArrow=none;html=1;rounded=0;entryX=0.16;entryY=1.042;entryDx=0;entryDy=0;exitX=0.5;exitY=0;exitDx=0;exitDy=0;strokeColor=#000000;entryPerimeter=0;" edge="1" parent="1" source="3njZrD6ApjCg7004VLz5-172" target="3njZrD6ApjCg7004VLz5-59">
          <mxGeometry width="50" height="50" relative="1" as="geometry">
            <mxPoint x="1180" y="1510" as="sourcePoint" />
            <mxPoint x="1230" y="1460" as="targetPoint" />
          </mxGeometry>
        </mxCell>
        <mxCell id="3njZrD6ApjCg7004VLz5-175" value="" style="endArrow=none;html=1;rounded=0;entryX=0.5;entryY=0;entryDx=0;entryDy=0;exitX=0.5;exitY=1;exitDx=0;exitDy=0;strokeColor=#000000;" edge="1" parent="1" source="3njZrD6ApjCg7004VLz5-442" target="3njZrD6ApjCg7004VLz5-103">
          <mxGeometry width="50" height="50" relative="1" as="geometry">
            <mxPoint x="1300" y="1750" as="sourcePoint" />
            <mxPoint x="1350" y="1700" as="targetPoint" />
          </mxGeometry>
        </mxCell>
        <mxCell id="3njZrD6ApjCg7004VLz5-177" value="" style="endArrow=none;html=1;rounded=0;exitX=1;exitY=0.5;exitDx=0;exitDy=0;entryX=0;entryY=0.5;entryDx=0;entryDy=0;" edge="1" parent="1" source="3njZrD6ApjCg7004VLz5-179" target="3njZrD6ApjCg7004VLz5-251">
          <mxGeometry width="50" height="50" relative="1" as="geometry">
            <mxPoint x="1985" y="2058" as="sourcePoint" />
            <mxPoint x="1915" y="2028" as="targetPoint" />
          </mxGeometry>
        </mxCell>
        <mxCell id="3njZrD6ApjCg7004VLz5-178" value="" style="endArrow=none;html=1;rounded=0;exitX=1;exitY=0.5;exitDx=0;exitDy=0;entryX=0;entryY=0.5;entryDx=0;entryDy=0;" edge="1" parent="1" source="3njZrD6ApjCg7004VLz5-103" target="3njZrD6ApjCg7004VLz5-179">
          <mxGeometry width="50" height="50" relative="1" as="geometry">
            <mxPoint x="1575" y="2795" as="sourcePoint" />
            <mxPoint x="1845" y="2795" as="targetPoint" />
          </mxGeometry>
        </mxCell>
        <mxCell id="3njZrD6ApjCg7004VLz5-179" value="hosts" style="rhombus;whiteSpace=wrap;html=1;" vertex="1" parent="1">
          <mxGeometry x="1680" y="1988" width="80" height="80" as="geometry" />
        </mxCell>
        <mxCell id="3njZrD6ApjCg7004VLz5-180" value="" style="endArrow=none;html=1;rounded=0;entryX=0.5;entryY=1;entryDx=0;entryDy=0;exitX=0.5;exitY=0;exitDx=0;exitDy=0;" edge="1" parent="1" source="3njZrD6ApjCg7004VLz5-182" target="3njZrD6ApjCg7004VLz5-251">
          <mxGeometry width="50" height="50" relative="1" as="geometry">
            <mxPoint x="1985" y="2178" as="sourcePoint" />
            <mxPoint x="1985" y="3213" as="targetPoint" />
          </mxGeometry>
        </mxCell>
        <mxCell id="3njZrD6ApjCg7004VLz5-181" value="" style="endArrow=none;html=1;rounded=0;entryX=0.5;entryY=1;entryDx=0;entryDy=0;exitX=0.5;exitY=0;exitDx=0;exitDy=0;" edge="1" parent="1" source="3njZrD6ApjCg7004VLz5-131" target="3njZrD6ApjCg7004VLz5-182">
          <mxGeometry width="50" height="50" relative="1" as="geometry">
            <mxPoint x="1855" y="2803" as="sourcePoint" />
            <mxPoint x="1860" y="2298" as="targetPoint" />
          </mxGeometry>
        </mxCell>
        <mxCell id="3njZrD6ApjCg7004VLz5-182" value="releases" style="rhombus;whiteSpace=wrap;html=1;" vertex="1" parent="1">
          <mxGeometry x="1945" y="2418" width="80" height="80" as="geometry" />
        </mxCell>
        <mxCell id="3njZrD6ApjCg7004VLz5-183" value="" style="endArrow=none;html=1;rounded=0;entryX=0;entryY=0.5;entryDx=0;entryDy=0;exitX=0.5;exitY=0;exitDx=0;exitDy=0;" edge="1" parent="1" source="3njZrD6ApjCg7004VLz5-185" target="3njZrD6ApjCg7004VLz5-44">
          <mxGeometry width="50" height="50" relative="1" as="geometry">
            <mxPoint x="560" y="230" as="sourcePoint" />
            <mxPoint x="350" y="-690" as="targetPoint" />
            <Array as="points">
              <mxPoint x="280" y="-240" />
            </Array>
          </mxGeometry>
        </mxCell>
        <mxCell id="3njZrD6ApjCg7004VLz5-184" value="" style="endArrow=none;html=1;rounded=0;entryX=0.5;entryY=1;entryDx=0;entryDy=0;exitX=0.25;exitY=0;exitDx=0;exitDy=0;" edge="1" parent="1" source="3njZrD6ApjCg7004VLz5-83" target="3njZrD6ApjCg7004VLz5-185">
          <mxGeometry width="50" height="50" relative="1" as="geometry">
            <mxPoint x="310" y="935" as="sourcePoint" />
            <mxPoint x="310" y="-800" as="targetPoint" />
          </mxGeometry>
        </mxCell>
        <mxCell id="3njZrD6ApjCg7004VLz5-185" value="has" style="rhombus;whiteSpace=wrap;html=1;" vertex="1" parent="1">
          <mxGeometry x="245" y="60" width="80" height="80" as="geometry" />
        </mxCell>
        <mxCell id="3njZrD6ApjCg7004VLz5-186" value="" style="endArrow=none;html=1;rounded=0;exitX=0.5;exitY=0;exitDx=0;exitDy=0;entryX=0.186;entryY=0.971;entryDx=0;entryDy=0;entryPerimeter=0;" edge="1" parent="1" source="3njZrD6ApjCg7004VLz5-188" target="3njZrD6ApjCg7004VLz5-122">
          <mxGeometry width="50" height="50" relative="1" as="geometry">
            <mxPoint x="345" y="385" as="sourcePoint" />
            <mxPoint x="2930" y="-60" as="targetPoint" />
            <Array as="points">
              <mxPoint x="345" y="440" />
              <mxPoint x="1080" y="440" />
              <mxPoint x="2080" y="440" />
              <mxPoint x="2880" y="440" />
            </Array>
          </mxGeometry>
        </mxCell>
        <mxCell id="3njZrD6ApjCg7004VLz5-187" value="" style="endArrow=none;html=1;rounded=0;exitX=0.75;exitY=0;exitDx=0;exitDy=0;entryX=0.5;entryY=1;entryDx=0;entryDy=0;" edge="1" parent="1" source="3njZrD6ApjCg7004VLz5-83" target="3njZrD6ApjCg7004VLz5-188">
          <mxGeometry width="50" height="50" relative="1" as="geometry">
            <mxPoint x="340" y="935" as="sourcePoint" />
            <mxPoint x="1070" y="-825" as="targetPoint" />
            <Array as="points" />
          </mxGeometry>
        </mxCell>
        <mxCell id="3njZrD6ApjCg7004VLz5-188" value="publishes" style="rhombus;whiteSpace=wrap;html=1;" vertex="1" parent="1">
          <mxGeometry x="305" y="530" width="80" height="80" as="geometry" />
        </mxCell>
        <mxCell id="3njZrD6ApjCg7004VLz5-189" value="" style="endArrow=none;html=1;rounded=0;entryX=0;entryY=0.25;entryDx=0;entryDy=0;" edge="1" parent="1" source="3njZrD6ApjCg7004VLz5-192" target="3njZrD6ApjCg7004VLz5-83">
          <mxGeometry width="50" height="50" relative="1" as="geometry">
            <mxPoint x="-550" y="940" as="sourcePoint" />
            <mxPoint x="-10" y="830" as="targetPoint" />
          </mxGeometry>
        </mxCell>
        <mxCell id="3njZrD6ApjCg7004VLz5-190" value="" style="endArrow=none;html=1;rounded=0;exitX=0.5;exitY=0;exitDx=0;exitDy=0;entryX=0.5;entryY=1;entryDx=0;entryDy=0;" edge="1" parent="1" source="3njZrD6ApjCg7004VLz5-35" target="3njZrD6ApjCg7004VLz5-101">
          <mxGeometry width="50" height="50" relative="1" as="geometry">
            <mxPoint x="-50" y="870" as="sourcePoint" />
            <mxPoint y="820" as="targetPoint" />
          </mxGeometry>
        </mxCell>
        <mxCell id="3njZrD6ApjCg7004VLz5-191" value="" style="endArrow=none;html=1;rounded=0;entryX=0;entryY=0.5;entryDx=0;entryDy=0;exitX=1;exitY=0.5;exitDx=0;exitDy=0;" edge="1" parent="1" source="3njZrD6ApjCg7004VLz5-11" target="3njZrD6ApjCg7004VLz5-192">
          <mxGeometry width="50" height="50" relative="1" as="geometry">
            <mxPoint x="-550" y="940" as="sourcePoint" />
            <mxPoint x="250" y="950" as="targetPoint" />
          </mxGeometry>
        </mxCell>
        <mxCell id="3njZrD6ApjCg7004VLz5-192" value="Lists" style="rhombus;whiteSpace=wrap;html=1;" vertex="1" parent="1">
          <mxGeometry x="-490" y="910" width="80" height="80" as="geometry" />
        </mxCell>
        <mxCell id="3njZrD6ApjCg7004VLz5-193" value="Event" style="rounded=0;whiteSpace=wrap;html=1;" vertex="1" parent="1">
          <mxGeometry x="231" y="2280" width="160" height="60" as="geometry" />
        </mxCell>
        <mxCell id="3njZrD6ApjCg7004VLz5-194" value="Date" style="ellipse;whiteSpace=wrap;html=1;" vertex="1" parent="1">
          <mxGeometry x="483.75" y="2420" width="120" height="50" as="geometry" />
        </mxCell>
        <mxCell id="3njZrD6ApjCg7004VLz5-195" value="Event_Name" style="ellipse;whiteSpace=wrap;html=1;" vertex="1" parent="1">
          <mxGeometry x="-60" y="2420" width="120" height="50" as="geometry" />
        </mxCell>
        <mxCell id="3njZrD6ApjCg7004VLz5-196" value="Description" style="ellipse;whiteSpace=wrap;html=1;" vertex="1" parent="1">
          <mxGeometry x="473.75" y="2140" width="120" height="50" as="geometry" />
        </mxCell>
        <mxCell id="3njZrD6ApjCg7004VLz5-197" value="" style="endArrow=none;html=1;rounded=0;entryX=0;entryY=0.5;entryDx=0;entryDy=0;exitX=1;exitY=1;exitDx=0;exitDy=0;" edge="1" parent="1" source="3njZrD6ApjCg7004VLz5-193" target="3njZrD6ApjCg7004VLz5-194">
          <mxGeometry width="50" height="50" relative="1" as="geometry">
            <mxPoint x="363.75" y="2285" as="sourcePoint" />
            <mxPoint x="413.75" y="2235" as="targetPoint" />
          </mxGeometry>
        </mxCell>
        <mxCell id="3njZrD6ApjCg7004VLz5-198" value="" style="endArrow=none;html=1;rounded=0;entryX=0;entryY=0.5;entryDx=0;entryDy=0;exitX=1;exitY=0;exitDx=0;exitDy=0;" edge="1" parent="1" source="3njZrD6ApjCg7004VLz5-193" target="3njZrD6ApjCg7004VLz5-196">
          <mxGeometry width="50" height="50" relative="1" as="geometry">
            <mxPoint x="43.75" y="2215" as="sourcePoint" />
            <mxPoint x="423.75" y="2245" as="targetPoint" />
          </mxGeometry>
        </mxCell>
        <mxCell id="3njZrD6ApjCg7004VLz5-199" value="" style="endArrow=none;html=1;rounded=0;exitX=1;exitY=0.5;exitDx=0;exitDy=0;entryX=0;entryY=1;entryDx=0;entryDy=0;" edge="1" parent="1" source="3njZrD6ApjCg7004VLz5-195" target="3njZrD6ApjCg7004VLz5-193">
          <mxGeometry width="50" height="50" relative="1" as="geometry">
            <mxPoint x="413.75" y="2335" as="sourcePoint" />
            <mxPoint x="193.75" y="2265" as="targetPoint" />
          </mxGeometry>
        </mxCell>
        <mxCell id="3njZrD6ApjCg7004VLz5-200" value="&lt;u&gt;Event_ID&lt;/u&gt;" style="ellipse;whiteSpace=wrap;html=1;" vertex="1" parent="1">
          <mxGeometry x="-55" y="2140" width="120" height="50" as="geometry" />
        </mxCell>
        <mxCell id="3njZrD6ApjCg7004VLz5-201" value="" style="endArrow=none;html=1;rounded=0;exitX=1;exitY=0.5;exitDx=0;exitDy=0;entryX=0;entryY=0;entryDx=0;entryDy=0;" edge="1" parent="1" source="3njZrD6ApjCg7004VLz5-200" target="3njZrD6ApjCg7004VLz5-193">
          <mxGeometry width="50" height="50" relative="1" as="geometry">
            <mxPoint x="413.75" y="2275" as="sourcePoint" />
            <mxPoint x="463.75" y="2225" as="targetPoint" />
          </mxGeometry>
        </mxCell>
        <mxCell id="3njZrD6ApjCg7004VLz5-202" value="" style="endArrow=none;html=1;rounded=0;entryX=0.5;entryY=1;entryDx=0;entryDy=0;exitX=0.5;exitY=0;exitDx=0;exitDy=0;" edge="1" parent="1" source="3njZrD6ApjCg7004VLz5-204" target="3njZrD6ApjCg7004VLz5-68">
          <mxGeometry width="50" height="50" relative="1" as="geometry">
            <mxPoint x="620" y="2230" as="sourcePoint" />
            <mxPoint x="670" y="2180" as="targetPoint" />
          </mxGeometry>
        </mxCell>
        <mxCell id="3njZrD6ApjCg7004VLz5-203" value="" style="endArrow=none;html=1;rounded=0;entryX=0.5;entryY=1;entryDx=0;entryDy=0;exitX=0.5;exitY=0;exitDx=0;exitDy=0;" edge="1" parent="1" source="3njZrD6ApjCg7004VLz5-193" target="3njZrD6ApjCg7004VLz5-204">
          <mxGeometry width="50" height="50" relative="1" as="geometry">
            <mxPoint x="310" y="2280" as="sourcePoint" />
            <mxPoint x="310" y="1655" as="targetPoint" />
          </mxGeometry>
        </mxCell>
        <mxCell id="3njZrD6ApjCg7004VLz5-204" value="organizes" style="rhombus;whiteSpace=wrap;html=1;" vertex="1" parent="1">
          <mxGeometry x="270" y="1915" width="80" height="80" as="geometry" />
        </mxCell>
        <mxCell id="3njZrD6ApjCg7004VLz5-205" value="Field_Offices" style="rounded=0;whiteSpace=wrap;html=1;" vertex="1" parent="1">
          <mxGeometry x="4367.5" y="1125" width="160" height="60" as="geometry" />
        </mxCell>
        <mxCell id="3njZrD6ApjCg7004VLz5-206" value="email" style="ellipse;whiteSpace=wrap;html=1;" vertex="1" parent="1">
          <mxGeometry x="4637.5" y="1245" width="120" height="50" as="geometry" />
        </mxCell>
        <mxCell id="3njZrD6ApjCg7004VLz5-207" value="Address" style="ellipse;whiteSpace=wrap;html=1;" vertex="1" parent="1">
          <mxGeometry x="4117.5" y="1245" width="120" height="50" as="geometry" />
        </mxCell>
        <mxCell id="3njZrD6ApjCg7004VLz5-208" value="" style="endArrow=none;html=1;rounded=0;entryX=0;entryY=0.5;entryDx=0;entryDy=0;exitX=1;exitY=1;exitDx=0;exitDy=0;" edge="1" parent="1" source="3njZrD6ApjCg7004VLz5-205" target="3njZrD6ApjCg7004VLz5-206">
          <mxGeometry width="50" height="50" relative="1" as="geometry">
            <mxPoint x="4517.5" y="1130" as="sourcePoint" />
            <mxPoint x="4567.5" y="1080" as="targetPoint" />
          </mxGeometry>
        </mxCell>
        <mxCell id="3njZrD6ApjCg7004VLz5-209" value="" style="endArrow=none;html=1;rounded=0;entryX=0;entryY=0.5;entryDx=0;entryDy=0;exitX=1;exitY=0;exitDx=0;exitDy=0;" edge="1" parent="1" source="3njZrD6ApjCg7004VLz5-205" target="3njZrD6ApjCg7004VLz5-352">
          <mxGeometry width="50" height="50" relative="1" as="geometry">
            <mxPoint x="4197.5" y="1060" as="sourcePoint" />
            <mxPoint x="4620" y="1040" as="targetPoint" />
          </mxGeometry>
        </mxCell>
        <mxCell id="3njZrD6ApjCg7004VLz5-210" value="" style="endArrow=none;html=1;rounded=0;exitX=1;exitY=0.5;exitDx=0;exitDy=0;entryX=0;entryY=1;entryDx=0;entryDy=0;" edge="1" parent="1" source="3njZrD6ApjCg7004VLz5-207" target="3njZrD6ApjCg7004VLz5-205">
          <mxGeometry width="50" height="50" relative="1" as="geometry">
            <mxPoint x="4567.5" y="1180" as="sourcePoint" />
            <mxPoint x="4347.5" y="1110" as="targetPoint" />
          </mxGeometry>
        </mxCell>
        <mxCell id="3njZrD6ApjCg7004VLz5-211" value="&lt;u&gt;&lt;b&gt;office_ID&lt;/b&gt;&lt;/u&gt;" style="ellipse;whiteSpace=wrap;html=1;" vertex="1" parent="1">
          <mxGeometry x="4070" y="1005" width="120" height="50" as="geometry" />
        </mxCell>
        <mxCell id="3njZrD6ApjCg7004VLz5-212" value="" style="endArrow=none;html=1;rounded=0;exitX=1;exitY=0.5;exitDx=0;exitDy=0;entryX=0;entryY=0;entryDx=0;entryDy=0;" edge="1" parent="1" source="3njZrD6ApjCg7004VLz5-211" target="3njZrD6ApjCg7004VLz5-205">
          <mxGeometry width="50" height="50" relative="1" as="geometry">
            <mxPoint x="4567.5" y="1120" as="sourcePoint" />
            <mxPoint x="4617.5" y="1070" as="targetPoint" />
          </mxGeometry>
        </mxCell>
        <mxCell id="3njZrD6ApjCg7004VLz5-213" value="Street" style="ellipse;whiteSpace=wrap;html=1;" vertex="1" parent="1">
          <mxGeometry x="3850" y="1285" width="120" height="50" as="geometry" />
        </mxCell>
        <mxCell id="3njZrD6ApjCg7004VLz5-214" value="Pin_code" style="ellipse;whiteSpace=wrap;html=1;" vertex="1" parent="1">
          <mxGeometry x="4390" y="1385" width="120" height="50" as="geometry" />
        </mxCell>
        <mxCell id="3njZrD6ApjCg7004VLz5-215" value="Apartment" style="ellipse;whiteSpace=wrap;html=1;" vertex="1" parent="1">
          <mxGeometry x="3850" y="1200" width="120" height="50" as="geometry" />
        </mxCell>
        <mxCell id="3njZrD6ApjCg7004VLz5-216" value="City" style="ellipse;whiteSpace=wrap;html=1;" vertex="1" parent="1">
          <mxGeometry x="4387.5" y="1315" width="120" height="50" as="geometry" />
        </mxCell>
        <mxCell id="3njZrD6ApjCg7004VLz5-217" value="office_name" style="ellipse;whiteSpace=wrap;html=1;" vertex="1" parent="1">
          <mxGeometry x="4140" y="890" width="120" height="50" as="geometry" />
        </mxCell>
        <mxCell id="3njZrD6ApjCg7004VLz5-218" value="" style="endArrow=none;html=1;rounded=0;entryX=0.5;entryY=1;entryDx=0;entryDy=0;exitX=0;exitY=0;exitDx=0;exitDy=0;" edge="1" parent="1" source="3njZrD6ApjCg7004VLz5-205" target="3njZrD6ApjCg7004VLz5-217">
          <mxGeometry width="50" height="50" relative="1" as="geometry">
            <mxPoint x="4100" y="1170" as="sourcePoint" />
            <mxPoint x="4227.5" y="935" as="targetPoint" />
          </mxGeometry>
        </mxCell>
        <mxCell id="3njZrD6ApjCg7004VLz5-219" value="" style="endArrow=none;html=1;rounded=0;entryX=1;entryY=0.5;entryDx=0;entryDy=0;exitX=0;exitY=0.5;exitDx=0;exitDy=0;" edge="1" parent="1" source="3njZrD6ApjCg7004VLz5-207" target="3njZrD6ApjCg7004VLz5-215">
          <mxGeometry width="50" height="50" relative="1" as="geometry">
            <mxPoint x="4140" y="1290" as="sourcePoint" />
            <mxPoint x="4190" y="1240" as="targetPoint" />
          </mxGeometry>
        </mxCell>
        <mxCell id="3njZrD6ApjCg7004VLz5-220" value="" style="endArrow=none;html=1;rounded=0;exitX=1;exitY=0.5;exitDx=0;exitDy=0;entryX=0;entryY=0.5;entryDx=0;entryDy=0;" edge="1" parent="1" source="3njZrD6ApjCg7004VLz5-213" target="3njZrD6ApjCg7004VLz5-207">
          <mxGeometry width="50" height="50" relative="1" as="geometry">
            <mxPoint x="4140" y="1290" as="sourcePoint" />
            <mxPoint x="4190" y="1240" as="targetPoint" />
          </mxGeometry>
        </mxCell>
        <mxCell id="3njZrD6ApjCg7004VLz5-221" value="" style="endArrow=none;html=1;rounded=0;exitX=0;exitY=0.5;exitDx=0;exitDy=0;entryX=1;entryY=0.5;entryDx=0;entryDy=0;" edge="1" parent="1" source="3njZrD6ApjCg7004VLz5-214" target="3njZrD6ApjCg7004VLz5-207">
          <mxGeometry width="50" height="50" relative="1" as="geometry">
            <mxPoint x="4140" y="1290" as="sourcePoint" />
            <mxPoint x="4190" y="1240" as="targetPoint" />
          </mxGeometry>
        </mxCell>
        <mxCell id="3njZrD6ApjCg7004VLz5-222" value="" style="endArrow=none;html=1;rounded=0;exitX=0;exitY=0.5;exitDx=0;exitDy=0;entryX=1;entryY=0.5;entryDx=0;entryDy=0;" edge="1" parent="1" source="3njZrD6ApjCg7004VLz5-216" target="3njZrD6ApjCg7004VLz5-207">
          <mxGeometry width="50" height="50" relative="1" as="geometry">
            <mxPoint x="4140" y="1290" as="sourcePoint" />
            <mxPoint x="4190" y="1240" as="targetPoint" />
          </mxGeometry>
        </mxCell>
        <mxCell id="3njZrD6ApjCg7004VLz5-223" value="BurnRestriction" style="rounded=0;whiteSpace=wrap;html=1;" vertex="1" parent="1">
          <mxGeometry x="2030" y="168" width="160" height="60" as="geometry" />
        </mxCell>
        <mxCell id="3njZrD6ApjCg7004VLz5-224" value="Burn_Allowed_To" style="ellipse;whiteSpace=wrap;html=1;" vertex="1" parent="1">
          <mxGeometry x="2300" y="308" width="120" height="50" as="geometry" />
        </mxCell>
        <mxCell id="3njZrD6ApjCg7004VLz5-225" value="Burn_Status" style="ellipse;whiteSpace=wrap;html=1;" vertex="1" parent="1">
          <mxGeometry x="1755" y="308" width="120" height="50" as="geometry" />
        </mxCell>
        <mxCell id="3njZrD6ApjCg7004VLz5-226" value="Burn_Allowed_From" style="ellipse;whiteSpace=wrap;html=1;" vertex="1" parent="1">
          <mxGeometry x="2290" y="68" width="120" height="50" as="geometry" />
        </mxCell>
        <mxCell id="3njZrD6ApjCg7004VLz5-227" value="" style="endArrow=none;html=1;rounded=0;entryX=0;entryY=0.5;entryDx=0;entryDy=0;exitX=1;exitY=1;exitDx=0;exitDy=0;" edge="1" parent="1" source="3njZrD6ApjCg7004VLz5-223" target="3njZrD6ApjCg7004VLz5-224">
          <mxGeometry width="50" height="50" relative="1" as="geometry">
            <mxPoint x="2180" y="173" as="sourcePoint" />
            <mxPoint x="2230" y="123" as="targetPoint" />
          </mxGeometry>
        </mxCell>
        <mxCell id="3njZrD6ApjCg7004VLz5-228" value="" style="endArrow=none;html=1;rounded=0;entryX=0;entryY=0.5;entryDx=0;entryDy=0;exitX=1;exitY=0;exitDx=0;exitDy=0;" edge="1" parent="1" source="3njZrD6ApjCg7004VLz5-223" target="3njZrD6ApjCg7004VLz5-226">
          <mxGeometry width="50" height="50" relative="1" as="geometry">
            <mxPoint x="1860" y="103" as="sourcePoint" />
            <mxPoint x="2240" y="133" as="targetPoint" />
          </mxGeometry>
        </mxCell>
        <mxCell id="3njZrD6ApjCg7004VLz5-229" value="" style="endArrow=none;html=1;rounded=0;exitX=1;exitY=0.5;exitDx=0;exitDy=0;entryX=0;entryY=0.5;entryDx=0;entryDy=0;" edge="1" parent="1" source="3njZrD6ApjCg7004VLz5-284" target="3njZrD6ApjCg7004VLz5-223">
          <mxGeometry width="50" height="50" relative="1" as="geometry">
            <mxPoint x="1865" y="188" as="sourcePoint" />
            <mxPoint x="2260" y="153" as="targetPoint" />
          </mxGeometry>
        </mxCell>
        <mxCell id="3njZrD6ApjCg7004VLz5-230" value="" style="endArrow=none;html=1;rounded=0;exitX=1;exitY=0.5;exitDx=0;exitDy=0;entryX=0;entryY=1;entryDx=0;entryDy=0;" edge="1" parent="1" source="3njZrD6ApjCg7004VLz5-225" target="3njZrD6ApjCg7004VLz5-223">
          <mxGeometry width="50" height="50" relative="1" as="geometry">
            <mxPoint x="2230" y="223" as="sourcePoint" />
            <mxPoint x="2010" y="153" as="targetPoint" />
          </mxGeometry>
        </mxCell>
        <mxCell id="3njZrD6ApjCg7004VLz5-231" value="Additional_Restrictions" style="ellipse;whiteSpace=wrap;html=1;" vertex="1" parent="1">
          <mxGeometry x="2285" y="-22" width="130" height="50" as="geometry" />
        </mxCell>
        <mxCell id="3njZrD6ApjCg7004VLz5-232" value="" style="endArrow=none;html=1;rounded=0;entryX=0;entryY=0.5;entryDx=0;entryDy=0;exitX=1;exitY=0;exitDx=0;exitDy=0;" edge="1" parent="1" source="3njZrD6ApjCg7004VLz5-223" target="3njZrD6ApjCg7004VLz5-231">
          <mxGeometry width="50" height="50" relative="1" as="geometry">
            <mxPoint x="2200" y="173" as="sourcePoint" />
            <mxPoint x="2295" y="73" as="targetPoint" />
          </mxGeometry>
        </mxCell>
        <mxCell id="3njZrD6ApjCg7004VLz5-233" value="FAQ" style="rounded=0;whiteSpace=wrap;html=1;" vertex="1" parent="1">
          <mxGeometry x="-450" y="-95" width="160" height="60" as="geometry" />
        </mxCell>
        <mxCell id="3njZrD6ApjCg7004VLz5-234" value="Answer" style="ellipse;whiteSpace=wrap;html=1;" vertex="1" parent="1">
          <mxGeometry x="-180" y="40" width="120" height="50" as="geometry" />
        </mxCell>
        <mxCell id="3njZrD6ApjCg7004VLz5-235" value="Category" style="ellipse;whiteSpace=wrap;html=1;" vertex="1" parent="1">
          <mxGeometry x="-700" y="40" width="120" height="50" as="geometry" />
        </mxCell>
        <mxCell id="3njZrD6ApjCg7004VLz5-236" value="Question" style="ellipse;whiteSpace=wrap;html=1;" vertex="1" parent="1">
          <mxGeometry x="-190" y="-230" width="120" height="50" as="geometry" />
        </mxCell>
        <mxCell id="3njZrD6ApjCg7004VLz5-237" value="" style="endArrow=none;html=1;rounded=0;entryX=0;entryY=0.5;entryDx=0;entryDy=0;exitX=1;exitY=1;exitDx=0;exitDy=0;" edge="1" parent="1" source="3njZrD6ApjCg7004VLz5-233" target="3njZrD6ApjCg7004VLz5-234">
          <mxGeometry width="50" height="50" relative="1" as="geometry">
            <mxPoint x="-300" y="-85" as="sourcePoint" />
            <mxPoint x="-250" y="-135" as="targetPoint" />
          </mxGeometry>
        </mxCell>
        <mxCell id="3njZrD6ApjCg7004VLz5-238" value="" style="endArrow=none;html=1;rounded=0;entryX=0;entryY=0.5;entryDx=0;entryDy=0;exitX=1;exitY=0;exitDx=0;exitDy=0;" edge="1" parent="1" source="3njZrD6ApjCg7004VLz5-233" target="3njZrD6ApjCg7004VLz5-236">
          <mxGeometry width="50" height="50" relative="1" as="geometry">
            <mxPoint x="-620" y="-155" as="sourcePoint" />
            <mxPoint x="-240" y="-125" as="targetPoint" />
          </mxGeometry>
        </mxCell>
        <mxCell id="3njZrD6ApjCg7004VLz5-239" value="" style="endArrow=none;html=1;rounded=0;exitX=1;exitY=0.5;exitDx=0;exitDy=0;entryX=0;entryY=1;entryDx=0;entryDy=0;" edge="1" parent="1" source="3njZrD6ApjCg7004VLz5-235" target="3njZrD6ApjCg7004VLz5-233">
          <mxGeometry width="50" height="50" relative="1" as="geometry">
            <mxPoint x="-250" y="-35" as="sourcePoint" />
            <mxPoint x="-470" y="-105" as="targetPoint" />
          </mxGeometry>
        </mxCell>
        <mxCell id="3njZrD6ApjCg7004VLz5-240" value="&lt;u&gt;&lt;b&gt;FAQ_ID&lt;/b&gt;&lt;/u&gt;" style="ellipse;whiteSpace=wrap;html=1;" vertex="1" parent="1">
          <mxGeometry x="-695" y="-230" width="120" height="50" as="geometry" />
        </mxCell>
        <mxCell id="3njZrD6ApjCg7004VLz5-241" value="" style="endArrow=none;html=1;rounded=0;exitX=1;exitY=0.5;exitDx=0;exitDy=0;entryX=0;entryY=0;entryDx=0;entryDy=0;" edge="1" parent="1" source="3njZrD6ApjCg7004VLz5-240" target="3njZrD6ApjCg7004VLz5-233">
          <mxGeometry width="50" height="50" relative="1" as="geometry">
            <mxPoint x="-250" y="-95" as="sourcePoint" />
            <mxPoint x="-200" y="-145" as="targetPoint" />
          </mxGeometry>
        </mxCell>
        <mxCell id="3njZrD6ApjCg7004VLz5-242" value="Department" style="rounded=0;whiteSpace=wrap;html=1;" vertex="1" parent="1">
          <mxGeometry x="2980" y="1610" width="120" height="60" as="geometry" />
        </mxCell>
        <mxCell id="3njZrD6ApjCg7004VLz5-243" value="Department_Name" style="ellipse;whiteSpace=wrap;html=1;" vertex="1" parent="1">
          <mxGeometry x="3195" y="1450" width="120" height="50" as="geometry" />
        </mxCell>
        <mxCell id="3njZrD6ApjCg7004VLz5-244" value="Contact_Information" style="ellipse;whiteSpace=wrap;html=1;" vertex="1" parent="1">
          <mxGeometry x="3205" y="1720" width="120" height="50" as="geometry" />
        </mxCell>
        <mxCell id="3njZrD6ApjCg7004VLz5-245" value="Description" style="ellipse;whiteSpace=wrap;html=1;" vertex="1" parent="1">
          <mxGeometry x="2715" y="1710" width="120" height="50" as="geometry" />
        </mxCell>
        <mxCell id="3njZrD6ApjCg7004VLz5-246" value="&lt;u&gt;&lt;b&gt;Department_ID &lt;/b&gt;&lt;/u&gt;" style="ellipse;whiteSpace=wrap;html=1;" vertex="1" parent="1">
          <mxGeometry x="2715" y="1450" width="120" height="50" as="geometry" />
        </mxCell>
        <mxCell id="3njZrD6ApjCg7004VLz5-247" value="" style="endArrow=none;html=1;rounded=0;entryX=1;entryY=0.5;entryDx=0;entryDy=0;exitX=0;exitY=0;exitDx=0;exitDy=0;" edge="1" parent="1" source="3njZrD6ApjCg7004VLz5-242" target="3njZrD6ApjCg7004VLz5-246">
          <mxGeometry width="50" height="50" relative="1" as="geometry">
            <mxPoint x="2806.25" y="1525" as="sourcePoint" />
            <mxPoint x="3186.25" y="1555" as="targetPoint" />
          </mxGeometry>
        </mxCell>
        <mxCell id="3njZrD6ApjCg7004VLz5-248" value="" style="endArrow=none;html=1;rounded=0;exitX=0;exitY=0.5;exitDx=0;exitDy=0;entryX=1;entryY=0;entryDx=0;entryDy=0;" edge="1" parent="1" source="3njZrD6ApjCg7004VLz5-243" target="3njZrD6ApjCg7004VLz5-242">
          <mxGeometry width="50" height="50" relative="1" as="geometry">
            <mxPoint x="3146.25" y="1615" as="sourcePoint" />
            <mxPoint x="3196.25" y="1565" as="targetPoint" />
          </mxGeometry>
        </mxCell>
        <mxCell id="3njZrD6ApjCg7004VLz5-249" value="" style="endArrow=none;html=1;rounded=0;exitX=1;exitY=0.5;exitDx=0;exitDy=0;entryX=0;entryY=1;entryDx=0;entryDy=0;" edge="1" parent="1" source="3njZrD6ApjCg7004VLz5-245" target="3njZrD6ApjCg7004VLz5-242">
          <mxGeometry width="50" height="50" relative="1" as="geometry">
            <mxPoint x="3176.25" y="1645" as="sourcePoint" />
            <mxPoint x="2956.25" y="1575" as="targetPoint" />
          </mxGeometry>
        </mxCell>
        <mxCell id="3njZrD6ApjCg7004VLz5-250" value="" style="endArrow=none;html=1;rounded=0;exitX=0;exitY=0.5;exitDx=0;exitDy=0;entryX=1;entryY=1;entryDx=0;entryDy=0;" edge="1" parent="1" source="3njZrD6ApjCg7004VLz5-244" target="3njZrD6ApjCg7004VLz5-242">
          <mxGeometry width="50" height="50" relative="1" as="geometry">
            <mxPoint x="3186.25" y="1655" as="sourcePoint" />
            <mxPoint x="3236.25" y="1605" as="targetPoint" />
          </mxGeometry>
        </mxCell>
        <mxCell id="3njZrD6ApjCg7004VLz5-251" value="Program" style="rounded=0;whiteSpace=wrap;html=1;" vertex="1" parent="1">
          <mxGeometry x="1925" y="1998" width="120" height="60" as="geometry" />
        </mxCell>
        <mxCell id="3njZrD6ApjCg7004VLz5-252" value="Program_Name" style="ellipse;whiteSpace=wrap;html=1;" vertex="1" parent="1">
          <mxGeometry x="2160" y="1855.5" width="120" height="50" as="geometry" />
        </mxCell>
        <mxCell id="3njZrD6ApjCg7004VLz5-253" value="Contact_Information" style="ellipse;whiteSpace=wrap;html=1;" vertex="1" parent="1">
          <mxGeometry x="2170" y="2125.5" width="120" height="50" as="geometry" />
        </mxCell>
        <mxCell id="3njZrD6ApjCg7004VLz5-254" value="Description" style="ellipse;whiteSpace=wrap;html=1;" vertex="1" parent="1">
          <mxGeometry x="1680" y="2115.5" width="120" height="50" as="geometry" />
        </mxCell>
        <mxCell id="3njZrD6ApjCg7004VLz5-255" value="&lt;u&gt;&lt;b&gt;Program_ID  &lt;/b&gt;&lt;/u&gt;" style="ellipse;whiteSpace=wrap;html=1;" vertex="1" parent="1">
          <mxGeometry x="1680" y="1855.5" width="120" height="50" as="geometry" />
        </mxCell>
        <mxCell id="3njZrD6ApjCg7004VLz5-256" value="" style="endArrow=none;html=1;rounded=0;entryX=1;entryY=0.5;entryDx=0;entryDy=0;exitX=0;exitY=0;exitDx=0;exitDy=0;" edge="1" parent="1" source="3njZrD6ApjCg7004VLz5-251" target="3njZrD6ApjCg7004VLz5-255">
          <mxGeometry width="50" height="50" relative="1" as="geometry">
            <mxPoint x="1771.25" y="1930.5" as="sourcePoint" />
            <mxPoint x="2151.25" y="1960.5" as="targetPoint" />
          </mxGeometry>
        </mxCell>
        <mxCell id="3njZrD6ApjCg7004VLz5-257" value="" style="endArrow=none;html=1;rounded=0;exitX=0;exitY=0.5;exitDx=0;exitDy=0;entryX=1;entryY=0;entryDx=0;entryDy=0;" edge="1" parent="1" source="3njZrD6ApjCg7004VLz5-252" target="3njZrD6ApjCg7004VLz5-251">
          <mxGeometry width="50" height="50" relative="1" as="geometry">
            <mxPoint x="2111.25" y="2020.5" as="sourcePoint" />
            <mxPoint x="2161.25" y="1970.5" as="targetPoint" />
          </mxGeometry>
        </mxCell>
        <mxCell id="3njZrD6ApjCg7004VLz5-258" value="" style="endArrow=none;html=1;rounded=0;exitX=1;exitY=0.5;exitDx=0;exitDy=0;entryX=0;entryY=1;entryDx=0;entryDy=0;" edge="1" parent="1" source="3njZrD6ApjCg7004VLz5-254" target="3njZrD6ApjCg7004VLz5-251">
          <mxGeometry width="50" height="50" relative="1" as="geometry">
            <mxPoint x="2141.25" y="2050.5" as="sourcePoint" />
            <mxPoint x="1921.25" y="1980.5" as="targetPoint" />
          </mxGeometry>
        </mxCell>
        <mxCell id="3njZrD6ApjCg7004VLz5-259" value="" style="endArrow=none;html=1;rounded=0;exitX=0;exitY=0.5;exitDx=0;exitDy=0;entryX=1;entryY=1;entryDx=0;entryDy=0;" edge="1" parent="1" source="3njZrD6ApjCg7004VLz5-253" target="3njZrD6ApjCg7004VLz5-251">
          <mxGeometry width="50" height="50" relative="1" as="geometry">
            <mxPoint x="2151.25" y="2060.5" as="sourcePoint" />
            <mxPoint x="2201.25" y="2010.5" as="targetPoint" />
          </mxGeometry>
        </mxCell>
        <mxCell id="3njZrD6ApjCg7004VLz5-260" value="Projects" style="rounded=0;whiteSpace=wrap;html=1;" vertex="1" parent="1">
          <mxGeometry x="3011.25" y="2765" width="120" height="60" as="geometry" />
        </mxCell>
        <mxCell id="3njZrD6ApjCg7004VLz5-261" value="Project_Name" style="ellipse;whiteSpace=wrap;html=1;" vertex="1" parent="1">
          <mxGeometry x="3230" y="2615" width="120" height="50" as="geometry" />
        </mxCell>
        <mxCell id="3njZrD6ApjCg7004VLz5-262" value="Start_Date" style="ellipse;whiteSpace=wrap;html=1;" vertex="1" parent="1">
          <mxGeometry x="3240" y="2885" width="120" height="50" as="geometry" />
        </mxCell>
        <mxCell id="3njZrD6ApjCg7004VLz5-263" value="Description" style="ellipse;whiteSpace=wrap;html=1;" vertex="1" parent="1">
          <mxGeometry x="2750" y="2890" width="120" height="50" as="geometry" />
        </mxCell>
        <mxCell id="3njZrD6ApjCg7004VLz5-264" value="&lt;b&gt;Project_ID&lt;/b&gt;" style="ellipse;whiteSpace=wrap;html=1;" vertex="1" parent="1">
          <mxGeometry x="2750" y="2640" width="120" height="50" as="geometry" />
        </mxCell>
        <mxCell id="3njZrD6ApjCg7004VLz5-265" value="" style="endArrow=none;html=1;rounded=0;entryX=1;entryY=0.5;entryDx=0;entryDy=0;exitX=0;exitY=0;exitDx=0;exitDy=0;" edge="1" parent="1" source="3njZrD6ApjCg7004VLz5-260" target="3njZrD6ApjCg7004VLz5-264">
          <mxGeometry width="50" height="50" relative="1" as="geometry">
            <mxPoint x="2841.25" y="2705" as="sourcePoint" />
            <mxPoint x="3221.25" y="2735" as="targetPoint" />
          </mxGeometry>
        </mxCell>
        <mxCell id="3njZrD6ApjCg7004VLz5-266" value="" style="endArrow=none;html=1;rounded=0;exitX=0;exitY=0.5;exitDx=0;exitDy=0;entryX=1;entryY=0;entryDx=0;entryDy=0;" edge="1" parent="1" source="3njZrD6ApjCg7004VLz5-261" target="3njZrD6ApjCg7004VLz5-260">
          <mxGeometry width="50" height="50" relative="1" as="geometry">
            <mxPoint x="3181.25" y="2795" as="sourcePoint" />
            <mxPoint x="3231.25" y="2745" as="targetPoint" />
          </mxGeometry>
        </mxCell>
        <mxCell id="3njZrD6ApjCg7004VLz5-267" value="" style="endArrow=none;html=1;rounded=0;exitX=1;exitY=0.5;exitDx=0;exitDy=0;entryX=0;entryY=1;entryDx=0;entryDy=0;" edge="1" parent="1" source="3njZrD6ApjCg7004VLz5-263" target="3njZrD6ApjCg7004VLz5-260">
          <mxGeometry width="50" height="50" relative="1" as="geometry">
            <mxPoint x="3211.25" y="2825" as="sourcePoint" />
            <mxPoint x="2991.25" y="2755" as="targetPoint" />
          </mxGeometry>
        </mxCell>
        <mxCell id="3njZrD6ApjCg7004VLz5-268" value="" style="endArrow=none;html=1;rounded=0;exitX=0;exitY=0.5;exitDx=0;exitDy=0;entryX=1;entryY=1;entryDx=0;entryDy=0;" edge="1" parent="1" source="3njZrD6ApjCg7004VLz5-262" target="3njZrD6ApjCg7004VLz5-260">
          <mxGeometry width="50" height="50" relative="1" as="geometry">
            <mxPoint x="3221.25" y="2835" as="sourcePoint" />
            <mxPoint x="3271.25" y="2785" as="targetPoint" />
          </mxGeometry>
        </mxCell>
        <mxCell id="3njZrD6ApjCg7004VLz5-269" value="End_Date" style="ellipse;whiteSpace=wrap;html=1;" vertex="1" parent="1">
          <mxGeometry x="3240" y="2960" width="120" height="50" as="geometry" />
        </mxCell>
        <mxCell id="3njZrD6ApjCg7004VLz5-270" value="Status" style="ellipse;whiteSpace=wrap;html=1;" vertex="1" parent="1">
          <mxGeometry x="3230" y="2540" width="120" height="50" as="geometry" />
        </mxCell>
        <mxCell id="3njZrD6ApjCg7004VLz5-271" value="" style="endArrow=none;html=1;rounded=0;entryX=0;entryY=0.5;entryDx=0;entryDy=0;exitX=1;exitY=0;exitDx=0;exitDy=0;" edge="1" parent="1" source="3njZrD6ApjCg7004VLz5-260" target="3njZrD6ApjCg7004VLz5-270">
          <mxGeometry width="50" height="50" relative="1" as="geometry">
            <mxPoint x="2880" y="2840" as="sourcePoint" />
            <mxPoint x="2930" y="2790" as="targetPoint" />
          </mxGeometry>
        </mxCell>
        <mxCell id="3njZrD6ApjCg7004VLz5-272" value="" style="endArrow=none;html=1;rounded=0;entryX=0;entryY=0.5;entryDx=0;entryDy=0;exitX=1;exitY=1;exitDx=0;exitDy=0;" edge="1" parent="1" source="3njZrD6ApjCg7004VLz5-260" target="3njZrD6ApjCg7004VLz5-269">
          <mxGeometry width="50" height="50" relative="1" as="geometry">
            <mxPoint x="2880" y="2840" as="sourcePoint" />
            <mxPoint x="2930" y="2790" as="targetPoint" />
          </mxGeometry>
        </mxCell>
        <mxCell id="3njZrD6ApjCg7004VLz5-273" value="has" style="rhombus;whiteSpace=wrap;html=1;" vertex="1" parent="1">
          <mxGeometry x="3000" y="1235" width="80" height="80" as="geometry" />
        </mxCell>
        <mxCell id="3njZrD6ApjCg7004VLz5-274" value="" style="endArrow=none;html=1;rounded=0;entryX=0.5;entryY=1;entryDx=0;entryDy=0;exitX=0.5;exitY=0;exitDx=0;exitDy=0;" edge="1" parent="1" source="3njZrD6ApjCg7004VLz5-273" target="3njZrD6ApjCg7004VLz5-60">
          <mxGeometry width="50" height="50" relative="1" as="geometry">
            <mxPoint x="2680" y="1350" as="sourcePoint" />
            <mxPoint x="2730" y="1300" as="targetPoint" />
          </mxGeometry>
        </mxCell>
        <mxCell id="3njZrD6ApjCg7004VLz5-275" value="" style="endArrow=none;html=1;rounded=0;entryX=0.5;entryY=1;entryDx=0;entryDy=0;exitX=0.5;exitY=0;exitDx=0;exitDy=0;" edge="1" parent="1" source="3njZrD6ApjCg7004VLz5-242" target="3njZrD6ApjCg7004VLz5-273">
          <mxGeometry width="50" height="50" relative="1" as="geometry">
            <mxPoint x="2840" y="1530" as="sourcePoint" />
            <mxPoint x="2890" y="1480" as="targetPoint" />
          </mxGeometry>
        </mxCell>
        <mxCell id="3njZrD6ApjCg7004VLz5-276" value="" style="endArrow=none;html=1;rounded=0;exitX=1;exitY=0.5;exitDx=0;exitDy=0;entryX=0;entryY=0.5;entryDx=0;entryDy=0;" edge="1" parent="1" source="3njZrD6ApjCg7004VLz5-278" target="3njZrD6ApjCg7004VLz5-242">
          <mxGeometry width="50" height="50" relative="1" as="geometry">
            <mxPoint x="2848" y="1735" as="sourcePoint" />
            <mxPoint x="2989" y="1645" as="targetPoint" />
          </mxGeometry>
        </mxCell>
        <mxCell id="3njZrD6ApjCg7004VLz5-277" value="" style="endArrow=none;html=1;rounded=0;exitX=0.5;exitY=0;exitDx=0;exitDy=0;entryX=0;entryY=0.5;entryDx=0;entryDy=0;" edge="1" parent="1" source="3njZrD6ApjCg7004VLz5-251" target="3njZrD6ApjCg7004VLz5-278">
          <mxGeometry width="50" height="50" relative="1" as="geometry">
            <mxPoint x="1940" y="1640" as="sourcePoint" />
            <mxPoint x="2979" y="1605" as="targetPoint" />
            <Array as="points">
              <mxPoint x="1985" y="1640" />
            </Array>
          </mxGeometry>
        </mxCell>
        <mxCell id="3njZrD6ApjCg7004VLz5-278" value="offers" style="rhombus;whiteSpace=wrap;html=1;" vertex="1" parent="1">
          <mxGeometry x="2420" y="1600" width="80" height="80" as="geometry" />
        </mxCell>
        <mxCell id="3njZrD6ApjCg7004VLz5-279" value="County" style="rounded=0;whiteSpace=wrap;html=1;" vertex="1" parent="1">
          <mxGeometry x="1315" y="170" width="120" height="60" as="geometry" />
        </mxCell>
        <mxCell id="3njZrD6ApjCg7004VLz5-280" value="Nova Scotia" style="rounded=0;whiteSpace=wrap;html=1;" vertex="1" parent="1">
          <mxGeometry x="1310" y="-940" width="120" height="60" as="geometry" />
        </mxCell>
        <mxCell id="3njZrD6ApjCg7004VLz5-281" value="" style="endArrow=none;html=1;rounded=0;entryX=0.5;entryY=1;entryDx=0;entryDy=0;exitX=0.5;exitY=0;exitDx=0;exitDy=0;" edge="1" parent="1" source="3njZrD6ApjCg7004VLz5-420" target="3njZrD6ApjCg7004VLz5-279">
          <mxGeometry width="50" height="50" relative="1" as="geometry">
            <mxPoint x="1410" y="710" as="sourcePoint" />
            <mxPoint x="1460" y="660" as="targetPoint" />
          </mxGeometry>
        </mxCell>
        <mxCell id="3njZrD6ApjCg7004VLz5-282" value="" style="endArrow=none;html=1;rounded=0;entryX=0.5;entryY=1;entryDx=0;entryDy=0;exitX=0.5;exitY=0;exitDx=0;exitDy=0;" edge="1" parent="1" source="3njZrD6ApjCg7004VLz5-418" target="3njZrD6ApjCg7004VLz5-280">
          <mxGeometry width="50" height="50" relative="1" as="geometry">
            <mxPoint x="1380" y="660" as="sourcePoint" />
            <mxPoint x="1380" y="580" as="targetPoint" />
          </mxGeometry>
        </mxCell>
        <mxCell id="3njZrD6ApjCg7004VLz5-283" value="" style="endArrow=none;html=1;rounded=0;exitX=1;exitY=0.5;exitDx=0;exitDy=0;entryX=0;entryY=0.5;entryDx=0;entryDy=0;" edge="1" parent="1" source="3njZrD6ApjCg7004VLz5-279">
          <mxGeometry width="50" height="50" relative="1" as="geometry">
            <mxPoint x="1440" y="200" as="sourcePoint" />
            <mxPoint x="1655" y="200" as="targetPoint" />
          </mxGeometry>
        </mxCell>
        <mxCell id="3njZrD6ApjCg7004VLz5-284" value="has" style="rhombus;whiteSpace=wrap;html=1;" vertex="1" parent="1">
          <mxGeometry x="1650" y="158" width="80" height="80" as="geometry" />
        </mxCell>
        <mxCell id="3njZrD6ApjCg7004VLz5-285" value="has" style="rhombus;whiteSpace=wrap;html=1;" vertex="1" parent="1">
          <mxGeometry x="2890" y="2330.5" width="80" height="80" as="geometry" />
        </mxCell>
        <mxCell id="3njZrD6ApjCg7004VLz5-286" value="" style="endArrow=none;html=1;rounded=0;entryX=0.25;entryY=1;entryDx=0;entryDy=0;exitX=1;exitY=0.5;exitDx=0;exitDy=0;" edge="1" parent="1" source="3njZrD6ApjCg7004VLz5-285" target="3njZrD6ApjCg7004VLz5-242">
          <mxGeometry width="50" height="50" relative="1" as="geometry">
            <mxPoint x="2970" y="2370" as="sourcePoint" />
            <mxPoint x="2640" y="1810" as="targetPoint" />
            <Array as="points">
              <mxPoint x="3010" y="2370" />
              <mxPoint x="3010" y="2010" />
            </Array>
          </mxGeometry>
        </mxCell>
        <mxCell id="3njZrD6ApjCg7004VLz5-287" value="" style="endArrow=none;html=1;rounded=0;exitX=1;exitY=0.5;exitDx=0;exitDy=0;" edge="1" parent="1" source="3njZrD6ApjCg7004VLz5-131">
          <mxGeometry width="50" height="50" relative="1" as="geometry">
            <mxPoint x="2065" y="2610.5" as="sourcePoint" />
            <mxPoint x="2890" y="2370" as="targetPoint" />
            <Array as="points">
              <mxPoint x="2890" y="2620" />
            </Array>
          </mxGeometry>
        </mxCell>
        <mxCell id="3njZrD6ApjCg7004VLz5-288" value="has" style="rhombus;whiteSpace=wrap;html=1;" vertex="1" parent="1">
          <mxGeometry x="3600" y="1120" width="80" height="80" as="geometry" />
        </mxCell>
        <mxCell id="3njZrD6ApjCg7004VLz5-289" value="" style="endArrow=none;html=1;rounded=0;entryX=0;entryY=0.5;entryDx=0;entryDy=0;exitX=1;exitY=0.5;exitDx=0;exitDy=0;" edge="1" parent="1" source="3njZrD6ApjCg7004VLz5-288" target="3njZrD6ApjCg7004VLz5-205">
          <mxGeometry width="50" height="50" relative="1" as="geometry">
            <mxPoint x="3520" y="855" as="sourcePoint" />
            <mxPoint x="3570" y="805" as="targetPoint" />
          </mxGeometry>
        </mxCell>
        <mxCell id="3njZrD6ApjCg7004VLz5-290" value="" style="endArrow=none;html=1;rounded=0;entryX=0;entryY=0.5;entryDx=0;entryDy=0;exitX=1;exitY=0;exitDx=0;exitDy=0;" edge="1" parent="1" source="3njZrD6ApjCg7004VLz5-242" target="3njZrD6ApjCg7004VLz5-288">
          <mxGeometry width="50" height="50" relative="1" as="geometry">
            <mxPoint x="3130" y="1000" as="sourcePoint" />
            <mxPoint x="3830" y="1890" as="targetPoint" />
            <Array as="points">
              <mxPoint x="3100" y="1160" />
            </Array>
          </mxGeometry>
        </mxCell>
        <mxCell id="3njZrD6ApjCg7004VLz5-291" value="" style="endArrow=none;html=1;rounded=0;exitX=1;exitY=0.5;exitDx=0;exitDy=0;entryX=0;entryY=0.5;entryDx=0;entryDy=0;" edge="1" parent="1" source="3njZrD6ApjCg7004VLz5-293" target="3njZrD6ApjCg7004VLz5-140">
          <mxGeometry width="50" height="50" relative="1" as="geometry">
            <mxPoint x="3780" y="1600" as="sourcePoint" />
            <mxPoint x="3830" y="1550" as="targetPoint" />
          </mxGeometry>
        </mxCell>
        <mxCell id="3njZrD6ApjCg7004VLz5-292" value="" style="endArrow=none;html=1;rounded=0;exitX=1;exitY=0.5;exitDx=0;exitDy=0;entryX=0;entryY=0.5;entryDx=0;entryDy=0;" edge="1" parent="1" source="3njZrD6ApjCg7004VLz5-242" target="3njZrD6ApjCg7004VLz5-293">
          <mxGeometry width="50" height="50" relative="1" as="geometry">
            <mxPoint x="3100" y="1640" as="sourcePoint" />
            <mxPoint x="3870" y="1640" as="targetPoint" />
          </mxGeometry>
        </mxCell>
        <mxCell id="3njZrD6ApjCg7004VLz5-293" value="has" style="rhombus;whiteSpace=wrap;html=1;" vertex="1" parent="1">
          <mxGeometry x="3410" y="1600" width="80" height="80" as="geometry" />
        </mxCell>
        <mxCell id="3njZrD6ApjCg7004VLz5-294" value="" style="endArrow=none;html=1;rounded=0;exitX=1;exitY=0;exitDx=0;exitDy=0;entryX=0;entryY=0.5;entryDx=0;entryDy=0;" edge="1" parent="1" source="3njZrD6ApjCg7004VLz5-149" target="3njZrD6ApjCg7004VLz5-160">
          <mxGeometry width="50" height="50" relative="1" as="geometry">
            <mxPoint x="4180" y="2130" as="sourcePoint" />
            <mxPoint x="4230" y="2080" as="targetPoint" />
          </mxGeometry>
        </mxCell>
        <mxCell id="3njZrD6ApjCg7004VLz5-295" value="" style="endArrow=none;html=1;rounded=0;entryX=0.5;entryY=1;entryDx=0;entryDy=0;exitX=0.5;exitY=0;exitDx=0;exitDy=0;strokeColor=#000000;" edge="1" parent="1" source="3njZrD6ApjCg7004VLz5-297" target="3njZrD6ApjCg7004VLz5-140">
          <mxGeometry width="50" height="50" relative="1" as="geometry">
            <mxPoint x="3280" y="2040" as="sourcePoint" />
            <mxPoint x="3330" y="1990" as="targetPoint" />
          </mxGeometry>
        </mxCell>
        <mxCell id="3njZrD6ApjCg7004VLz5-504" value="Text" style="edgeLabel;html=1;align=center;verticalAlign=middle;resizable=0;points=[];strokeColor=#000000;" connectable="0" vertex="1" parent="3njZrD6ApjCg7004VLz5-295">
          <mxGeometry x="-0.5875" y="5" relative="1" as="geometry">
            <mxPoint as="offset" />
          </mxGeometry>
        </mxCell>
        <mxCell id="3njZrD6ApjCg7004VLz5-296" value="" style="endArrow=none;html=1;rounded=0;entryX=0.5;entryY=1;entryDx=0;entryDy=0;exitX=0.5;exitY=0;exitDx=0;exitDy=0;strokeColor=#000000;" edge="1" parent="1" source="3njZrD6ApjCg7004VLz5-149" target="3njZrD6ApjCg7004VLz5-297">
          <mxGeometry width="50" height="50" relative="1" as="geometry">
            <mxPoint x="3950" y="2105" as="sourcePoint" />
            <mxPoint x="3950" y="1670" as="targetPoint" />
          </mxGeometry>
        </mxCell>
        <mxCell id="3njZrD6ApjCg7004VLz5-297" value="manages" style="rhombus;whiteSpace=wrap;html=1;" vertex="1" parent="1">
          <mxGeometry x="3910" y="1870" width="80" height="80" as="geometry" />
        </mxCell>
        <mxCell id="3njZrD6ApjCg7004VLz5-298" value="" style="endArrow=none;html=1;rounded=0;entryX=0.5;entryY=1;entryDx=0;entryDy=0;exitX=0.5;exitY=0;exitDx=0;exitDy=0;strokeColor=#000000;" edge="1" parent="1" source="3njZrD6ApjCg7004VLz5-300" target="3njZrD6ApjCg7004VLz5-149">
          <mxGeometry width="50" height="50" relative="1" as="geometry">
            <mxPoint x="3280" y="2650" as="sourcePoint" />
            <mxPoint x="3330" y="2600" as="targetPoint" />
          </mxGeometry>
        </mxCell>
        <mxCell id="3njZrD6ApjCg7004VLz5-299" value="" style="endArrow=none;html=1;rounded=0;entryX=0.5;entryY=1;entryDx=0;entryDy=0;exitX=0.5;exitY=0;exitDx=0;exitDy=0;strokeColor=#000000;" edge="1" parent="1" source="3njZrD6ApjCg7004VLz5-161" target="3njZrD6ApjCg7004VLz5-300">
          <mxGeometry width="50" height="50" relative="1" as="geometry">
            <mxPoint x="3950" y="2715" as="sourcePoint" />
            <mxPoint x="3950" y="2165" as="targetPoint" />
          </mxGeometry>
        </mxCell>
        <mxCell id="3njZrD6ApjCg7004VLz5-300" value="teaches" style="rhombus;whiteSpace=wrap;html=1;" vertex="1" parent="1">
          <mxGeometry x="3910" y="2448" width="80" height="80" as="geometry" />
        </mxCell>
        <mxCell id="3njZrD6ApjCg7004VLz5-301" value="has" style="rhombus;whiteSpace=wrap;html=1;rotation=0;" vertex="1" parent="1">
          <mxGeometry x="2025" y="1200" width="80" height="80" as="geometry" />
        </mxCell>
        <mxCell id="3njZrD6ApjCg7004VLz5-302" value="" style="endArrow=none;html=1;rounded=0;entryX=0;entryY=0.25;entryDx=0;entryDy=0;exitX=1;exitY=0.5;exitDx=0;exitDy=0;" edge="1" parent="1" source="3njZrD6ApjCg7004VLz5-301" target="3njZrD6ApjCg7004VLz5-242">
          <mxGeometry width="50" height="50" relative="1" as="geometry">
            <mxPoint x="1810" y="1280" as="sourcePoint" />
            <mxPoint x="1860" y="1230" as="targetPoint" />
            <Array as="points">
              <mxPoint x="2530" y="1240" />
              <mxPoint x="2530" y="1620" />
            </Array>
          </mxGeometry>
        </mxCell>
        <mxCell id="3njZrD6ApjCg7004VLz5-303" value="" style="endArrow=none;html=1;rounded=0;entryX=0;entryY=0.5;entryDx=0;entryDy=0;exitX=0.75;exitY=1;exitDx=0;exitDy=0;" edge="1" parent="1" source="3njZrD6ApjCg7004VLz5-44" target="3njZrD6ApjCg7004VLz5-301">
          <mxGeometry width="50" height="50" relative="1" as="geometry">
            <mxPoint x="1150" y="1160" as="sourcePoint" />
            <mxPoint x="2130" y="1215" as="targetPoint" />
            <Array as="points">
              <mxPoint x="850" y="1240" />
            </Array>
          </mxGeometry>
        </mxCell>
        <mxCell id="3njZrD6ApjCg7004VLz5-304" value="" style="endArrow=none;html=1;rounded=0;entryX=0.25;entryY=1;entryDx=0;entryDy=0;exitX=0.5;exitY=0;exitDx=0;exitDy=0;" edge="1" parent="1" source="3njZrD6ApjCg7004VLz5-306" target="3njZrD6ApjCg7004VLz5-44">
          <mxGeometry width="50" height="50" relative="1" as="geometry">
            <mxPoint x="810" y="691.7778862847222" as="sourcePoint" />
            <mxPoint x="1220" y="320" as="targetPoint" />
            <Array as="points" />
          </mxGeometry>
        </mxCell>
        <mxCell id="3njZrD6ApjCg7004VLz5-305" value="" style="endArrow=none;html=1;rounded=0;entryX=0.5;entryY=1;entryDx=0;entryDy=0;exitX=0;exitY=0.5;exitDx=0;exitDy=0;" edge="1" parent="1" source="3njZrD6ApjCg7004VLz5-59" target="3njZrD6ApjCg7004VLz5-306">
          <mxGeometry width="50" height="50" relative="1" as="geometry">
            <mxPoint x="1310" y="1050" as="sourcePoint" />
            <mxPoint x="810" y="-210" as="targetPoint" />
            <Array as="points">
              <mxPoint x="780" y="1060" />
            </Array>
          </mxGeometry>
        </mxCell>
        <mxCell id="3njZrD6ApjCg7004VLz5-306" value="has" style="rhombus;whiteSpace=wrap;html=1;" vertex="1" parent="1">
          <mxGeometry x="740" y="320" width="80" height="80" as="geometry" />
        </mxCell>
        <mxCell id="3njZrD6ApjCg7004VLz5-307" value="" style="endArrow=none;html=1;rounded=0;entryX=0.439;entryY=0.989;entryDx=0;entryDy=0;entryPerimeter=0;exitX=0.5;exitY=0;exitDx=0;exitDy=0;" edge="1" parent="1" source="3njZrD6ApjCg7004VLz5-308" target="3njZrD6ApjCg7004VLz5-122">
          <mxGeometry width="50" height="50" relative="1" as="geometry">
            <mxPoint x="2920" y="1400" as="sourcePoint" />
            <mxPoint x="2910" y="214.66666666666669" as="targetPoint" />
            <Array as="points" />
          </mxGeometry>
        </mxCell>
        <mxCell id="3njZrD6ApjCg7004VLz5-308" value="publishes" style="rhombus;whiteSpace=wrap;html=1;rotation=0;" vertex="1" parent="1">
          <mxGeometry x="2880" y="680" width="80" height="80" as="geometry" />
        </mxCell>
        <mxCell id="3njZrD6ApjCg7004VLz5-309" value="" style="endArrow=none;html=1;rounded=0;entryX=0.5;entryY=1;entryDx=0;entryDy=0;exitX=0.25;exitY=0;exitDx=0;exitDy=0;" edge="1" parent="1" source="3njZrD6ApjCg7004VLz5-242" target="3njZrD6ApjCg7004VLz5-308">
          <mxGeometry width="50" height="50" relative="1" as="geometry">
            <mxPoint x="2760" y="890" as="sourcePoint" />
            <mxPoint x="2810" y="840" as="targetPoint" />
            <Array as="points">
              <mxPoint x="3010" y="1480" />
              <mxPoint x="2920" y="1480" />
            </Array>
          </mxGeometry>
        </mxCell>
        <mxCell id="3njZrD6ApjCg7004VLz5-310" value="" style="endArrow=none;html=1;rounded=0;entryX=0.5;entryY=1;entryDx=0;entryDy=0;exitX=0.5;exitY=0;exitDx=0;exitDy=0;" edge="1" parent="1" source="3njZrD6ApjCg7004VLz5-312" target="3njZrD6ApjCg7004VLz5-242">
          <mxGeometry width="50" height="50" relative="1" as="geometry">
            <mxPoint x="3530" y="2360" as="sourcePoint" />
            <mxPoint x="3580" y="2310" as="targetPoint" />
          </mxGeometry>
        </mxCell>
        <mxCell id="3njZrD6ApjCg7004VLz5-311" value="" style="endArrow=none;html=1;rounded=0;entryX=0.5;entryY=1;entryDx=0;entryDy=0;exitX=0.25;exitY=0;exitDx=0;exitDy=0;" edge="1" parent="1" source="3njZrD6ApjCg7004VLz5-260" target="3njZrD6ApjCg7004VLz5-312">
          <mxGeometry width="50" height="50" relative="1" as="geometry">
            <mxPoint x="3041" y="2765" as="sourcePoint" />
            <mxPoint x="3040" y="1670" as="targetPoint" />
          </mxGeometry>
        </mxCell>
        <mxCell id="3njZrD6ApjCg7004VLz5-312" value="manages" style="rhombus;whiteSpace=wrap;html=1;" vertex="1" parent="1">
          <mxGeometry x="3000" y="2375" width="80" height="80" as="geometry" />
        </mxCell>
        <mxCell id="3njZrD6ApjCg7004VLz5-313" value="" style="endArrow=none;html=1;rounded=0;entryX=0.5;entryY=1;entryDx=0;entryDy=0;exitX=0.5;exitY=0;exitDx=0;exitDy=0;" edge="1" parent="1" source="3njZrD6ApjCg7004VLz5-315" target="3njZrD6ApjCg7004VLz5-233">
          <mxGeometry width="50" height="50" relative="1" as="geometry">
            <mxPoint x="-460" y="680" as="sourcePoint" />
            <mxPoint x="60" y="200" as="targetPoint" />
            <Array as="points" />
          </mxGeometry>
        </mxCell>
        <mxCell id="3njZrD6ApjCg7004VLz5-314" value="" style="endArrow=none;html=1;rounded=0;entryX=0.5;entryY=1;entryDx=0;entryDy=0;exitX=0;exitY=0.5;exitDx=0;exitDy=0;" edge="1" parent="1" source="3njZrD6ApjCg7004VLz5-83" target="3njZrD6ApjCg7004VLz5-315">
          <mxGeometry width="50" height="50" relative="1" as="geometry">
            <mxPoint x="250" y="965" as="sourcePoint" />
            <mxPoint x="-370" y="-35" as="targetPoint" />
            <Array as="points">
              <mxPoint x="-370" y="960" />
            </Array>
          </mxGeometry>
        </mxCell>
        <mxCell id="3njZrD6ApjCg7004VLz5-315" value="provides" style="rhombus;whiteSpace=wrap;html=1;" vertex="1" parent="1">
          <mxGeometry x="-410" y="350" width="80" height="80" as="geometry" />
        </mxCell>
        <mxCell id="3njZrD6ApjCg7004VLz5-316" value="" style="endArrow=none;html=1;rounded=0;entryX=0;entryY=0.5;entryDx=0;entryDy=0;exitX=0.5;exitY=0;exitDx=0;exitDy=0;" edge="1" parent="1" source="3njZrD6ApjCg7004VLz5-318" target="3njZrD6ApjCg7004VLz5-149">
          <mxGeometry width="50" height="50" relative="1" as="geometry">
            <mxPoint x="2400" y="3000" as="sourcePoint" />
            <mxPoint x="950" y="2730" as="targetPoint" />
            <Array as="points">
              <mxPoint x="2400" y="2130" />
            </Array>
          </mxGeometry>
        </mxCell>
        <mxCell id="3njZrD6ApjCg7004VLz5-317" value="" style="endArrow=none;html=1;rounded=0;exitX=1;exitY=0.75;exitDx=0;exitDy=0;entryX=0.5;entryY=1;entryDx=0;entryDy=0;" edge="1" parent="1" source="3njZrD6ApjCg7004VLz5-1" target="3njZrD6ApjCg7004VLz5-318">
          <mxGeometry width="50" height="50" relative="1" as="geometry">
            <mxPoint x="588" y="3005" as="sourcePoint" />
            <mxPoint x="3870" y="2135" as="targetPoint" />
            <Array as="points">
              <mxPoint x="2400" y="3020" />
            </Array>
          </mxGeometry>
        </mxCell>
        <mxCell id="3njZrD6ApjCg7004VLz5-318" value="has" style="rhombus;whiteSpace=wrap;html=1;" vertex="1" parent="1">
          <mxGeometry x="2360" y="2455" width="80" height="80" as="geometry" />
        </mxCell>
        <mxCell id="3njZrD6ApjCg7004VLz5-319" value="Phone_number" style="ellipse;shape=doubleEllipse;margin=3;whiteSpace=wrap;html=1;align=center;" vertex="1" parent="1">
          <mxGeometry x="1029.38" y="-140" width="120.62" height="50" as="geometry" />
        </mxCell>
        <mxCell id="3njZrD6ApjCg7004VLz5-320" value="email" style="ellipse;shape=doubleEllipse;margin=3;whiteSpace=wrap;html=1;align=center;" vertex="1" parent="1">
          <mxGeometry x="1028.7600000000002" y="-410" width="120.62" height="50" as="geometry" />
        </mxCell>
        <mxCell id="3njZrD6ApjCg7004VLz5-321" value="Lattitude" style="ellipse;whiteSpace=wrap;html=1;" vertex="1" parent="1">
          <mxGeometry x="-230" y="1305" width="120" height="50" as="geometry" />
        </mxCell>
        <mxCell id="3njZrD6ApjCg7004VLz5-322" value="Longitude" style="ellipse;whiteSpace=wrap;html=1;" vertex="1" parent="1">
          <mxGeometry x="-230" y="1385" width="120" height="50" as="geometry" />
        </mxCell>
        <mxCell id="3njZrD6ApjCg7004VLz5-323" value="" style="endArrow=none;html=1;rounded=0;exitX=1;exitY=0.5;exitDx=0;exitDy=0;entryX=0;entryY=0.5;entryDx=0;entryDy=0;" edge="1" parent="1" source="3njZrD6ApjCg7004VLz5-321" target="3njZrD6ApjCg7004VLz5-85">
          <mxGeometry width="50" height="50" relative="1" as="geometry">
            <mxPoint x="130" y="1250" as="sourcePoint" />
            <mxPoint x="180" y="1200" as="targetPoint" />
          </mxGeometry>
        </mxCell>
        <mxCell id="3njZrD6ApjCg7004VLz5-324" value="" style="endArrow=none;html=1;rounded=0;exitX=1;exitY=0.5;exitDx=0;exitDy=0;entryX=0;entryY=0.5;entryDx=0;entryDy=0;" edge="1" parent="1" source="3njZrD6ApjCg7004VLz5-322" target="3njZrD6ApjCg7004VLz5-85">
          <mxGeometry width="50" height="50" relative="1" as="geometry">
            <mxPoint x="130" y="1250" as="sourcePoint" />
            <mxPoint x="180" y="1200" as="targetPoint" />
          </mxGeometry>
        </mxCell>
        <mxCell id="3njZrD6ApjCg7004VLz5-325" value="Mobile_Number" style="ellipse;shape=doubleEllipse;margin=3;whiteSpace=wrap;html=1;align=center;" vertex="1" parent="1">
          <mxGeometry x="127.5" y="3160" width="115" height="50" as="geometry" />
        </mxCell>
        <mxCell id="3njZrD6ApjCg7004VLz5-326" value="City" style="ellipse;whiteSpace=wrap;html=1;" vertex="1" parent="1">
          <mxGeometry x="760" y="3310" width="120" height="50" as="geometry" />
        </mxCell>
        <mxCell id="3njZrD6ApjCg7004VLz5-327" value="Pincode" style="ellipse;whiteSpace=wrap;html=1;" vertex="1" parent="1">
          <mxGeometry x="620" y="3310" width="120" height="50" as="geometry" />
        </mxCell>
        <mxCell id="3njZrD6ApjCg7004VLz5-328" value="Street" style="ellipse;whiteSpace=wrap;html=1;" vertex="1" parent="1">
          <mxGeometry x="900" y="3310" width="120" height="50" as="geometry" />
        </mxCell>
        <mxCell id="3njZrD6ApjCg7004VLz5-329" value="" style="endArrow=none;html=1;rounded=0;entryX=0.5;entryY=1;entryDx=0;entryDy=0;exitX=0.5;exitY=0;exitDx=0;exitDy=0;" edge="1" parent="1" source="3njZrD6ApjCg7004VLz5-326" target="3njZrD6ApjCg7004VLz5-3">
          <mxGeometry width="50" height="50" relative="1" as="geometry">
            <mxPoint x="1130" y="3380" as="sourcePoint" />
            <mxPoint x="1180" y="3330" as="targetPoint" />
          </mxGeometry>
        </mxCell>
        <mxCell id="3njZrD6ApjCg7004VLz5-330" value="" style="endArrow=none;html=1;rounded=0;entryX=0.5;entryY=1;entryDx=0;entryDy=0;exitX=1;exitY=0;exitDx=0;exitDy=0;" edge="1" parent="1" source="3njZrD6ApjCg7004VLz5-327" target="3njZrD6ApjCg7004VLz5-3">
          <mxGeometry width="50" height="50" relative="1" as="geometry">
            <mxPoint x="830" y="3320" as="sourcePoint" />
            <mxPoint x="830" y="3255" as="targetPoint" />
          </mxGeometry>
        </mxCell>
        <mxCell id="3njZrD6ApjCg7004VLz5-331" value="" style="endArrow=none;html=1;rounded=0;entryX=0.5;entryY=1;entryDx=0;entryDy=0;exitX=0;exitY=0;exitDx=0;exitDy=0;" edge="1" parent="1" source="3njZrD6ApjCg7004VLz5-328" target="3njZrD6ApjCg7004VLz5-3">
          <mxGeometry width="50" height="50" relative="1" as="geometry">
            <mxPoint x="840" y="3330" as="sourcePoint" />
            <mxPoint x="840" y="3265" as="targetPoint" />
          </mxGeometry>
        </mxCell>
        <mxCell id="3njZrD6ApjCg7004VLz5-332" value="Lattitude" style="ellipse;whiteSpace=wrap;html=1;" vertex="1" parent="1">
          <mxGeometry x="820" y="2043" width="120" height="50" as="geometry" />
        </mxCell>
        <mxCell id="3njZrD6ApjCg7004VLz5-333" value="Longitude" style="ellipse;whiteSpace=wrap;html=1;" vertex="1" parent="1">
          <mxGeometry x="820" y="2158" width="120" height="50" as="geometry" />
        </mxCell>
        <mxCell id="3njZrD6ApjCg7004VLz5-334" value="" style="endArrow=none;html=1;rounded=0;exitX=1;exitY=0.5;exitDx=0;exitDy=0;entryX=0;entryY=0.5;entryDx=0;entryDy=0;" edge="1" parent="1" source="3njZrD6ApjCg7004VLz5-332" target="3njZrD6ApjCg7004VLz5-106">
          <mxGeometry width="50" height="50" relative="1" as="geometry">
            <mxPoint x="1200" y="2153" as="sourcePoint" />
            <mxPoint x="1250" y="2103" as="targetPoint" />
          </mxGeometry>
        </mxCell>
        <mxCell id="3njZrD6ApjCg7004VLz5-335" value="" style="endArrow=none;html=1;rounded=0;exitX=1;exitY=0.5;exitDx=0;exitDy=0;entryX=0;entryY=0.5;entryDx=0;entryDy=0;" edge="1" parent="1" source="3njZrD6ApjCg7004VLz5-333" target="3njZrD6ApjCg7004VLz5-106">
          <mxGeometry width="50" height="50" relative="1" as="geometry">
            <mxPoint x="1200" y="2153" as="sourcePoint" />
            <mxPoint x="1250" y="2103" as="targetPoint" />
          </mxGeometry>
        </mxCell>
        <mxCell id="3njZrD6ApjCg7004VLz5-336" value="Lattitude" style="ellipse;whiteSpace=wrap;html=1;" vertex="1" parent="1">
          <mxGeometry x="-350" y="1965" width="120" height="50" as="geometry" />
        </mxCell>
        <mxCell id="3njZrD6ApjCg7004VLz5-337" value="Longitude" style="ellipse;whiteSpace=wrap;html=1;" vertex="1" parent="1">
          <mxGeometry x="-175" y="1965" width="120" height="50" as="geometry" />
        </mxCell>
        <mxCell id="3njZrD6ApjCg7004VLz5-338" value="" style="endArrow=none;html=1;rounded=0;entryX=0.5;entryY=1;entryDx=0;entryDy=0;exitX=0.5;exitY=0;exitDx=0;exitDy=0;" edge="1" parent="1" source="3njZrD6ApjCg7004VLz5-336" target="3njZrD6ApjCg7004VLz5-74">
          <mxGeometry width="50" height="50" relative="1" as="geometry">
            <mxPoint x="120" y="2000" as="sourcePoint" />
            <mxPoint x="170" y="1950" as="targetPoint" />
          </mxGeometry>
        </mxCell>
        <mxCell id="3njZrD6ApjCg7004VLz5-339" value="" style="endArrow=none;html=1;rounded=0;entryX=0.5;entryY=1;entryDx=0;entryDy=0;exitX=0.5;exitY=0;exitDx=0;exitDy=0;" edge="1" parent="1" source="3njZrD6ApjCg7004VLz5-337" target="3njZrD6ApjCg7004VLz5-74">
          <mxGeometry width="50" height="50" relative="1" as="geometry">
            <mxPoint x="130" y="2020" as="sourcePoint" />
            <mxPoint x="180" y="1970" as="targetPoint" />
          </mxGeometry>
        </mxCell>
        <mxCell id="3njZrD6ApjCg7004VLz5-340" value="City" style="ellipse;whiteSpace=wrap;html=1;" vertex="1" parent="1">
          <mxGeometry x="468.75" y="-650" width="120" height="50" as="geometry" />
        </mxCell>
        <mxCell id="3njZrD6ApjCg7004VLz5-341" value="Pincode" style="ellipse;whiteSpace=wrap;html=1;" vertex="1" parent="1">
          <mxGeometry x="328.75" y="-650" width="120" height="50" as="geometry" />
        </mxCell>
        <mxCell id="3njZrD6ApjCg7004VLz5-342" value="Street" style="ellipse;whiteSpace=wrap;html=1;" vertex="1" parent="1">
          <mxGeometry x="608.75" y="-650" width="120" height="50" as="geometry" />
        </mxCell>
        <mxCell id="3njZrD6ApjCg7004VLz5-343" value="" style="endArrow=none;html=1;rounded=0;exitX=0.5;exitY=0;exitDx=0;exitDy=0;" edge="1" parent="1" source="3njZrD6ApjCg7004VLz5-48">
          <mxGeometry width="50" height="50" relative="1" as="geometry">
            <mxPoint x="750" y="-660" as="sourcePoint" />
            <mxPoint x="660" y="-600" as="targetPoint" />
          </mxGeometry>
        </mxCell>
        <mxCell id="3njZrD6ApjCg7004VLz5-344" value="" style="endArrow=none;html=1;rounded=0;exitX=0.5;exitY=0;exitDx=0;exitDy=0;entryX=0.435;entryY=0.989;entryDx=0;entryDy=0;entryPerimeter=0;" edge="1" parent="1" source="3njZrD6ApjCg7004VLz5-48" target="3njZrD6ApjCg7004VLz5-340">
          <mxGeometry width="50" height="50" relative="1" as="geometry">
            <mxPoint x="750" y="-660" as="sourcePoint" />
            <mxPoint x="800" y="-710" as="targetPoint" />
          </mxGeometry>
        </mxCell>
        <mxCell id="3njZrD6ApjCg7004VLz5-345" value="" style="endArrow=none;html=1;rounded=0;exitX=0.5;exitY=0;exitDx=0;exitDy=0;entryX=0.5;entryY=1;entryDx=0;entryDy=0;" edge="1" parent="1" source="3njZrD6ApjCg7004VLz5-48" target="3njZrD6ApjCg7004VLz5-341">
          <mxGeometry width="50" height="50" relative="1" as="geometry">
            <mxPoint x="750" y="-660" as="sourcePoint" />
            <mxPoint x="800" y="-710" as="targetPoint" />
          </mxGeometry>
        </mxCell>
        <mxCell id="3njZrD6ApjCg7004VLz5-346" value="City" style="ellipse;whiteSpace=wrap;html=1;" vertex="1" parent="1">
          <mxGeometry x="805" y="1815" width="120" height="50" as="geometry" />
        </mxCell>
        <mxCell id="3njZrD6ApjCg7004VLz5-347" value="Pincode" style="ellipse;whiteSpace=wrap;html=1;" vertex="1" parent="1">
          <mxGeometry x="805" y="1890" width="120" height="50" as="geometry" />
        </mxCell>
        <mxCell id="3njZrD6ApjCg7004VLz5-348" value="Street" style="ellipse;whiteSpace=wrap;html=1;" vertex="1" parent="1">
          <mxGeometry x="810" y="1750" width="120" height="50" as="geometry" />
        </mxCell>
        <mxCell id="3njZrD6ApjCg7004VLz5-349" value="" style="endArrow=none;html=1;rounded=0;entryX=1;entryY=0.5;entryDx=0;entryDy=0;exitX=0.5;exitY=0;exitDx=0;exitDy=0;" edge="1" parent="1" source="3njZrD6ApjCg7004VLz5-105" target="3njZrD6ApjCg7004VLz5-348">
          <mxGeometry width="50" height="50" relative="1" as="geometry">
            <mxPoint x="660" y="1923" as="sourcePoint" />
            <mxPoint x="930" y="1785.5" as="targetPoint" />
          </mxGeometry>
        </mxCell>
        <mxCell id="3njZrD6ApjCg7004VLz5-350" value="" style="endArrow=none;html=1;rounded=0;entryX=1;entryY=0.5;entryDx=0;entryDy=0;exitX=0.5;exitY=0;exitDx=0;exitDy=0;" edge="1" parent="1" source="3njZrD6ApjCg7004VLz5-105" target="3njZrD6ApjCg7004VLz5-346">
          <mxGeometry width="50" height="50" relative="1" as="geometry">
            <mxPoint x="660" y="1923" as="sourcePoint" />
            <mxPoint x="930" y="1853" as="targetPoint" />
          </mxGeometry>
        </mxCell>
        <mxCell id="3njZrD6ApjCg7004VLz5-351" value="" style="endArrow=none;html=1;rounded=0;entryX=1;entryY=0.5;entryDx=0;entryDy=0;exitX=0.5;exitY=0;exitDx=0;exitDy=0;" edge="1" parent="1" source="3njZrD6ApjCg7004VLz5-105" target="3njZrD6ApjCg7004VLz5-347">
          <mxGeometry width="50" height="50" relative="1" as="geometry">
            <mxPoint x="660" y="1923" as="sourcePoint" />
            <mxPoint x="930" y="1918" as="targetPoint" />
          </mxGeometry>
        </mxCell>
        <mxCell id="3njZrD6ApjCg7004VLz5-352" value="Phone_Number" style="ellipse;shape=doubleEllipse;margin=3;whiteSpace=wrap;html=1;align=center;" vertex="1" parent="1">
          <mxGeometry x="4630" y="975" width="120" height="50" as="geometry" />
        </mxCell>
        <mxCell id="3njZrD6ApjCg7004VLz5-353" value="1" style="text;html=1;align=center;verticalAlign=middle;resizable=0;points=[];autosize=1;strokeColor=none;fillColor=none;" vertex="1" parent="1">
          <mxGeometry x="305" y="1265" width="30" height="30" as="geometry" />
        </mxCell>
        <mxCell id="3njZrD6ApjCg7004VLz5-354" value="N" style="text;html=1;align=center;verticalAlign=middle;resizable=0;points=[];autosize=1;strokeColor=none;fillColor=none;" vertex="1" parent="1">
          <mxGeometry x="305" y="1355" width="30" height="30" as="geometry" />
        </mxCell>
        <mxCell id="3njZrD6ApjCg7004VLz5-355" value="1" style="text;html=1;align=center;verticalAlign=middle;resizable=0;points=[];autosize=1;strokeColor=none;fillColor=none;" vertex="1" parent="1">
          <mxGeometry x="305" y="1888" width="30" height="30" as="geometry" />
        </mxCell>
        <mxCell id="3njZrD6ApjCg7004VLz5-356" value="N" style="text;html=1;align=center;verticalAlign=middle;resizable=0;points=[];autosize=1;strokeColor=none;fillColor=none;" vertex="1" parent="1">
          <mxGeometry x="305" y="1988" width="30" height="30" as="geometry" />
        </mxCell>
        <mxCell id="3njZrD6ApjCg7004VLz5-357" value="1" style="text;html=1;align=center;verticalAlign=middle;resizable=0;points=[];autosize=1;strokeColor=none;fillColor=none;" vertex="1" parent="1">
          <mxGeometry x="-605" y="2028" width="30" height="30" as="geometry" />
        </mxCell>
        <mxCell id="3njZrD6ApjCg7004VLz5-358" value="N" style="text;html=1;align=center;verticalAlign=middle;resizable=0;points=[];autosize=1;strokeColor=none;fillColor=none;" vertex="1" parent="1">
          <mxGeometry x="-605" y="1940" width="30" height="30" as="geometry" />
        </mxCell>
        <mxCell id="3njZrD6ApjCg7004VLz5-359" value="1" style="text;html=1;align=center;verticalAlign=middle;resizable=0;points=[];autosize=1;strokeColor=none;fillColor=none;" vertex="1" parent="1">
          <mxGeometry x="-255" y="1598" width="30" height="30" as="geometry" />
        </mxCell>
        <mxCell id="3njZrD6ApjCg7004VLz5-360" value="1" style="text;html=1;align=center;verticalAlign=middle;resizable=0;points=[];autosize=1;strokeColor=none;fillColor=none;" vertex="1" parent="1">
          <mxGeometry x="-335" y="1598" width="30" height="30" as="geometry" />
        </mxCell>
        <mxCell id="3njZrD6ApjCg7004VLz5-361" value="1" style="text;html=1;align=center;verticalAlign=middle;resizable=0;points=[];autosize=1;strokeColor=none;fillColor=none;" vertex="1" parent="1">
          <mxGeometry x="-325" y="1008" width="30" height="30" as="geometry" />
        </mxCell>
        <mxCell id="3njZrD6ApjCg7004VLz5-362" value="N" style="text;html=1;align=center;verticalAlign=middle;resizable=0;points=[];autosize=1;strokeColor=none;fillColor=none;" vertex="1" parent="1">
          <mxGeometry x="-325" y="1098" width="30" height="30" as="geometry" />
        </mxCell>
        <mxCell id="3njZrD6ApjCg7004VLz5-363" value="1" style="text;html=1;align=center;verticalAlign=middle;resizable=0;points=[];autosize=1;strokeColor=none;fillColor=none;" vertex="1" parent="1">
          <mxGeometry x="-425" y="918" width="30" height="30" as="geometry" />
        </mxCell>
        <mxCell id="3njZrD6ApjCg7004VLz5-364" value="N" style="text;html=1;align=center;verticalAlign=middle;resizable=0;points=[];autosize=1;strokeColor=none;fillColor=none;" vertex="1" parent="1">
          <mxGeometry x="-505" y="918" width="30" height="30" as="geometry" />
        </mxCell>
        <mxCell id="3njZrD6ApjCg7004VLz5-365" value="1" style="text;html=1;align=center;verticalAlign=middle;resizable=0;points=[];autosize=1;strokeColor=none;fillColor=none;" vertex="1" parent="1">
          <mxGeometry x="-365" y="408" width="30" height="30" as="geometry" />
        </mxCell>
        <mxCell id="3njZrD6ApjCg7004VLz5-366" value="N" style="text;html=1;align=center;verticalAlign=middle;resizable=0;points=[];autosize=1;strokeColor=none;fillColor=none;" vertex="1" parent="1">
          <mxGeometry x="-365" y="328" width="30" height="30" as="geometry" />
        </mxCell>
        <mxCell id="3njZrD6ApjCg7004VLz5-367" value="1" style="text;html=1;align=center;verticalAlign=middle;resizable=0;points=[];autosize=1;strokeColor=none;fillColor=none;" vertex="1" parent="1">
          <mxGeometry x="285" y="128" width="30" height="30" as="geometry" />
        </mxCell>
        <mxCell id="3njZrD6ApjCg7004VLz5-368" value="1" style="text;html=1;align=center;verticalAlign=middle;resizable=0;points=[];autosize=1;strokeColor=none;fillColor=none;" vertex="1" parent="1">
          <mxGeometry x="285" y="38" width="30" height="30" as="geometry" />
        </mxCell>
        <mxCell id="3njZrD6ApjCg7004VLz5-369" value="1" style="text;html=1;align=center;verticalAlign=middle;resizable=0;points=[];autosize=1;strokeColor=none;fillColor=none;" vertex="1" parent="1">
          <mxGeometry x="340" y="600" width="30" height="30" as="geometry" />
        </mxCell>
        <mxCell id="3njZrD6ApjCg7004VLz5-370" value="N" style="text;html=1;align=center;verticalAlign=middle;resizable=0;points=[];autosize=1;strokeColor=none;fillColor=none;" vertex="1" parent="1">
          <mxGeometry x="340" y="510" width="30" height="30" as="geometry" />
        </mxCell>
        <mxCell id="3njZrD6ApjCg7004VLz5-373" value="1" style="text;html=1;align=center;verticalAlign=middle;resizable=0;points=[];autosize=1;strokeColor=none;fillColor=none;" vertex="1" parent="1">
          <mxGeometry x="1660" y="1996" width="30" height="30" as="geometry" />
        </mxCell>
        <mxCell id="3njZrD6ApjCg7004VLz5-374" value="N" style="text;html=1;align=center;verticalAlign=middle;resizable=0;points=[];autosize=1;strokeColor=none;fillColor=none;" vertex="1" parent="1">
          <mxGeometry x="1750" y="1996" width="30" height="30" as="geometry" />
        </mxCell>
        <mxCell id="3njZrD6ApjCg7004VLz5-375" value="1" style="text;html=1;align=center;verticalAlign=middle;resizable=0;points=[];autosize=1;strokeColor=none;fillColor=none;" vertex="1" parent="1">
          <mxGeometry x="2495" y="1638" width="30" height="30" as="geometry" />
        </mxCell>
        <mxCell id="3njZrD6ApjCg7004VLz5-376" value="N" style="text;html=1;align=center;verticalAlign=middle;resizable=0;points=[];autosize=1;strokeColor=none;fillColor=none;" vertex="1" parent="1">
          <mxGeometry x="2405" y="1638" width="30" height="30" as="geometry" />
        </mxCell>
        <mxCell id="3njZrD6ApjCg7004VLz5-377" value="1" style="text;html=1;align=center;verticalAlign=middle;resizable=0;points=[];autosize=1;strokeColor=none;fillColor=none;" vertex="1" parent="1">
          <mxGeometry x="2000" y="3013" width="30" height="30" as="geometry" />
        </mxCell>
        <mxCell id="3njZrD6ApjCg7004VLz5-378" value="N" style="text;html=1;align=center;verticalAlign=middle;resizable=0;points=[];autosize=1;strokeColor=none;fillColor=none;" vertex="1" parent="1">
          <mxGeometry x="2000" y="3113" width="30" height="30" as="geometry" />
        </mxCell>
        <mxCell id="3njZrD6ApjCg7004VLz5-379" value="1" style="text;html=1;align=center;verticalAlign=middle;resizable=0;points=[];autosize=1;strokeColor=none;fillColor=none;" vertex="1" parent="1">
          <mxGeometry x="775" y="388" width="30" height="30" as="geometry" />
        </mxCell>
        <mxCell id="3njZrD6ApjCg7004VLz5-380" value="1" style="text;html=1;align=center;verticalAlign=middle;resizable=0;points=[];autosize=1;strokeColor=none;fillColor=none;" vertex="1" parent="1">
          <mxGeometry x="775" y="298" width="30" height="30" as="geometry" />
        </mxCell>
        <mxCell id="3njZrD6ApjCg7004VLz5-381" value="1" style="text;html=1;align=center;verticalAlign=middle;resizable=0;points=[];autosize=1;strokeColor=none;fillColor=none;" vertex="1" parent="1">
          <mxGeometry x="2085" y="1208" width="30" height="30" as="geometry" />
        </mxCell>
        <mxCell id="3njZrD6ApjCg7004VLz5-382" value="1" style="text;html=1;align=center;verticalAlign=middle;resizable=0;points=[];autosize=1;strokeColor=none;fillColor=none;" vertex="1" parent="1">
          <mxGeometry x="2015" y="1208" width="30" height="30" as="geometry" />
        </mxCell>
        <mxCell id="3njZrD6ApjCg7004VLz5-383" value="1" style="text;html=1;align=center;verticalAlign=middle;resizable=0;points=[];autosize=1;strokeColor=none;fillColor=none;" vertex="1" parent="1">
          <mxGeometry x="3035" y="1208" width="30" height="30" as="geometry" />
        </mxCell>
        <mxCell id="3njZrD6ApjCg7004VLz5-384" value="N" style="text;html=1;align=center;verticalAlign=middle;resizable=0;points=[];autosize=1;strokeColor=none;fillColor=none;" vertex="1" parent="1">
          <mxGeometry x="3035" y="1298" width="30" height="30" as="geometry" />
        </mxCell>
        <mxCell id="3njZrD6ApjCg7004VLz5-385" value="1" style="text;html=1;align=center;verticalAlign=middle;resizable=0;points=[];autosize=1;strokeColor=none;fillColor=none;" vertex="1" parent="1">
          <mxGeometry x="3395" y="1638" width="30" height="30" as="geometry" />
        </mxCell>
        <mxCell id="3njZrD6ApjCg7004VLz5-386" value="1" style="text;html=1;align=center;verticalAlign=middle;resizable=0;points=[];autosize=1;strokeColor=none;fillColor=none;" vertex="1" parent="1">
          <mxGeometry x="3475" y="1638" width="30" height="30" as="geometry" />
        </mxCell>
        <mxCell id="3njZrD6ApjCg7004VLz5-387" value="1" style="text;html=1;align=center;verticalAlign=middle;resizable=0;points=[];autosize=1;strokeColor=none;fillColor=none;" vertex="1" parent="1">
          <mxGeometry x="3955" y="1848" width="30" height="30" as="geometry" />
        </mxCell>
        <mxCell id="3njZrD6ApjCg7004VLz5-388" value="N" style="text;html=1;align=center;verticalAlign=middle;resizable=0;points=[];autosize=1;strokeColor=none;fillColor=none;" vertex="1" parent="1">
          <mxGeometry x="3955" y="1938" width="30" height="30" as="geometry" />
        </mxCell>
        <mxCell id="3njZrD6ApjCg7004VLz5-389" value="1" style="text;html=1;align=center;verticalAlign=middle;resizable=0;points=[];autosize=1;strokeColor=none;fillColor=none;" vertex="1" parent="1">
          <mxGeometry x="3035" y="2348" width="30" height="30" as="geometry" />
        </mxCell>
        <mxCell id="3njZrD6ApjCg7004VLz5-390" value="N" style="text;html=1;align=center;verticalAlign=middle;resizable=0;points=[];autosize=1;strokeColor=none;fillColor=none;" vertex="1" parent="1">
          <mxGeometry x="3035" y="2448" width="30" height="30" as="geometry" />
        </mxCell>
        <mxCell id="3njZrD6ApjCg7004VLz5-391" value="1" style="text;html=1;align=center;verticalAlign=middle;resizable=0;points=[];autosize=1;strokeColor=none;fillColor=none;" vertex="1" parent="1">
          <mxGeometry x="3575" y="1138" width="30" height="30" as="geometry" />
        </mxCell>
        <mxCell id="3njZrD6ApjCg7004VLz5-392" value="N" style="text;html=1;align=center;verticalAlign=middle;resizable=0;points=[];autosize=1;strokeColor=none;fillColor=none;" vertex="1" parent="1">
          <mxGeometry x="3670" y="1135" width="30" height="30" as="geometry" />
        </mxCell>
        <mxCell id="3njZrD6ApjCg7004VLz5-393" value="1" style="text;html=1;align=center;verticalAlign=middle;resizable=0;points=[];autosize=1;strokeColor=none;fillColor=none;" vertex="1" parent="1">
          <mxGeometry x="2635" y="2178" width="30" height="30" as="geometry" />
        </mxCell>
        <mxCell id="3njZrD6ApjCg7004VLz5-394" value="M" style="text;html=1;align=center;verticalAlign=middle;resizable=0;points=[];autosize=1;strokeColor=none;fillColor=none;" vertex="1" parent="1">
          <mxGeometry x="2555" y="2178" width="30" height="30" as="geometry" />
        </mxCell>
        <mxCell id="3njZrD6ApjCg7004VLz5-395" value="Last_Name" style="ellipse;whiteSpace=wrap;html=1;" vertex="1" parent="1">
          <mxGeometry x="-80" y="2695" width="120" height="50" as="geometry" />
        </mxCell>
        <mxCell id="3njZrD6ApjCg7004VLz5-396" value="Last_Name" style="ellipse;whiteSpace=wrap;html=1;" vertex="1" parent="1">
          <mxGeometry x="-80" y="2800" width="120" height="50" as="geometry" />
        </mxCell>
        <mxCell id="3njZrD6ApjCg7004VLz5-397" value="" style="endArrow=none;html=1;rounded=0;entryX=1;entryY=0.5;entryDx=0;entryDy=0;exitX=0;exitY=0.5;exitDx=0;exitDy=0;" edge="1" parent="1" source="3njZrD6ApjCg7004VLz5-5" target="3njZrD6ApjCg7004VLz5-395">
          <mxGeometry width="50" height="50" relative="1" as="geometry">
            <mxPoint x="420" y="2810" as="sourcePoint" />
            <mxPoint x="470" y="2760" as="targetPoint" />
          </mxGeometry>
        </mxCell>
        <mxCell id="3njZrD6ApjCg7004VLz5-398" value="" style="endArrow=none;html=1;rounded=0;exitX=1;exitY=0.5;exitDx=0;exitDy=0;entryX=0;entryY=0.5;entryDx=0;entryDy=0;" edge="1" parent="1" source="3njZrD6ApjCg7004VLz5-396" target="3njZrD6ApjCg7004VLz5-5">
          <mxGeometry width="50" height="50" relative="1" as="geometry">
            <mxPoint x="420" y="2810" as="sourcePoint" />
            <mxPoint x="470" y="2760" as="targetPoint" />
          </mxGeometry>
        </mxCell>
        <mxCell id="3njZrD6ApjCg7004VLz5-399" value="Lake_Name" style="ellipse;whiteSpace=wrap;html=1;" vertex="1" parent="1">
          <mxGeometry x="1140" y="1110" width="120" height="50" as="geometry" />
        </mxCell>
        <mxCell id="3njZrD6ApjCg7004VLz5-400" value="&lt;u&gt;&lt;b&gt;Lake_ID&lt;/b&gt;&lt;/u&gt;" style="ellipse;whiteSpace=wrap;html=1;" vertex="1" parent="1">
          <mxGeometry x="1500" y="940" width="120" height="50" as="geometry" />
        </mxCell>
        <mxCell id="3njZrD6ApjCg7004VLz5-401" value="Depth" style="ellipse;whiteSpace=wrap;html=1;" vertex="1" parent="1">
          <mxGeometry x="1510" y="1100" width="120" height="50" as="geometry" />
        </mxCell>
        <mxCell id="3njZrD6ApjCg7004VLz5-402" value="" style="endArrow=none;html=1;rounded=0;exitX=1;exitY=0.5;exitDx=0;exitDy=0;entryX=0;entryY=1;entryDx=0;entryDy=0;" edge="1" parent="1" source="3njZrD6ApjCg7004VLz5-399" target="3njZrD6ApjCg7004VLz5-59">
          <mxGeometry width="50" height="50" relative="1" as="geometry">
            <mxPoint x="1360" y="1060" as="sourcePoint" />
            <mxPoint x="1410" y="1010" as="targetPoint" />
          </mxGeometry>
        </mxCell>
        <mxCell id="3njZrD6ApjCg7004VLz5-403" value="" style="endArrow=none;html=1;rounded=0;entryX=0;entryY=0.5;entryDx=0;entryDy=0;exitX=1;exitY=1;exitDx=0;exitDy=0;" edge="1" parent="1" source="3njZrD6ApjCg7004VLz5-59" target="3njZrD6ApjCg7004VLz5-401">
          <mxGeometry width="50" height="50" relative="1" as="geometry">
            <mxPoint x="1360" y="1060" as="sourcePoint" />
            <mxPoint x="1410" y="1010" as="targetPoint" />
          </mxGeometry>
        </mxCell>
        <mxCell id="3njZrD6ApjCg7004VLz5-404" value="" style="endArrow=none;html=1;rounded=0;entryX=0;entryY=0.5;entryDx=0;entryDy=0;exitX=1;exitY=0;exitDx=0;exitDy=0;" edge="1" parent="1" source="3njZrD6ApjCg7004VLz5-59" target="3njZrD6ApjCg7004VLz5-400">
          <mxGeometry width="50" height="50" relative="1" as="geometry">
            <mxPoint x="1360" y="1060" as="sourcePoint" />
            <mxPoint x="1410" y="1010" as="targetPoint" />
          </mxGeometry>
        </mxCell>
        <mxCell id="3njZrD6ApjCg7004VLz5-405" value="Description" style="ellipse;whiteSpace=wrap;html=1;" vertex="1" parent="1">
          <mxGeometry x="1520" y="68" width="120" height="50" as="geometry" />
        </mxCell>
        <mxCell id="3njZrD6ApjCg7004VLz5-406" value="&lt;u&gt;&lt;b&gt;County_ID&lt;/b&gt;&lt;/u&gt;" style="ellipse;whiteSpace=wrap;html=1;" vertex="1" parent="1">
          <mxGeometry x="1130" y="28" width="120" height="50" as="geometry" />
        </mxCell>
        <mxCell id="3njZrD6ApjCg7004VLz5-407" value="County_Name" style="ellipse;whiteSpace=wrap;html=1;" vertex="1" parent="1">
          <mxGeometry x="1130" y="103" width="120" height="50" as="geometry" />
        </mxCell>
        <mxCell id="3njZrD6ApjCg7004VLz5-408" value="Population" style="ellipse;whiteSpace=wrap;html=1;" vertex="1" parent="1">
          <mxGeometry x="1130" y="250" width="120" height="50" as="geometry" />
        </mxCell>
        <mxCell id="3njZrD6ApjCg7004VLz5-409" value="Area" style="ellipse;whiteSpace=wrap;html=1;" vertex="1" parent="1">
          <mxGeometry x="1520" y="250" width="120" height="50" as="geometry" />
        </mxCell>
        <mxCell id="3njZrD6ApjCg7004VLz5-410" value="" style="endArrow=none;html=1;rounded=0;entryX=1;entryY=1;entryDx=0;entryDy=0;exitX=0;exitY=0.5;exitDx=0;exitDy=0;" edge="1" parent="1" source="3njZrD6ApjCg7004VLz5-409" target="3njZrD6ApjCg7004VLz5-279">
          <mxGeometry width="50" height="50" relative="1" as="geometry">
            <mxPoint x="1580" y="260" as="sourcePoint" />
            <mxPoint x="1630" y="210" as="targetPoint" />
          </mxGeometry>
        </mxCell>
        <mxCell id="3njZrD6ApjCg7004VLz5-411" value="" style="endArrow=none;html=1;rounded=0;entryX=0.987;entryY=0.372;entryDx=0;entryDy=0;entryPerimeter=0;exitX=0;exitY=1;exitDx=0;exitDy=0;" edge="1" parent="1" source="3njZrD6ApjCg7004VLz5-279" target="3njZrD6ApjCg7004VLz5-408">
          <mxGeometry width="50" height="50" relative="1" as="geometry">
            <mxPoint x="1580" y="260" as="sourcePoint" />
            <mxPoint x="1630" y="210" as="targetPoint" />
          </mxGeometry>
        </mxCell>
        <mxCell id="3njZrD6ApjCg7004VLz5-412" value="" style="endArrow=none;html=1;rounded=0;entryX=1;entryY=0.5;entryDx=0;entryDy=0;exitX=0;exitY=0;exitDx=0;exitDy=0;" edge="1" parent="1" source="3njZrD6ApjCg7004VLz5-279" target="3njZrD6ApjCg7004VLz5-407">
          <mxGeometry width="50" height="50" relative="1" as="geometry">
            <mxPoint x="1580" y="260" as="sourcePoint" />
            <mxPoint x="1630" y="210" as="targetPoint" />
          </mxGeometry>
        </mxCell>
        <mxCell id="3njZrD6ApjCg7004VLz5-413" value="" style="endArrow=none;html=1;rounded=0;entryX=1;entryY=0.5;entryDx=0;entryDy=0;exitX=0;exitY=0;exitDx=0;exitDy=0;" edge="1" parent="1" source="3njZrD6ApjCg7004VLz5-279" target="3njZrD6ApjCg7004VLz5-406">
          <mxGeometry width="50" height="50" relative="1" as="geometry">
            <mxPoint x="1500" y="190" as="sourcePoint" />
            <mxPoint x="1550" y="140" as="targetPoint" />
          </mxGeometry>
        </mxCell>
        <mxCell id="3njZrD6ApjCg7004VLz5-414" value="" style="endArrow=none;html=1;rounded=0;entryX=0;entryY=0.5;entryDx=0;entryDy=0;exitX=1;exitY=0;exitDx=0;exitDy=0;" edge="1" parent="1" source="3njZrD6ApjCg7004VLz5-279" target="3njZrD6ApjCg7004VLz5-405">
          <mxGeometry width="50" height="50" relative="1" as="geometry">
            <mxPoint x="1530" y="285" as="sourcePoint" />
            <mxPoint x="1450" y="240" as="targetPoint" />
          </mxGeometry>
        </mxCell>
        <mxCell id="3njZrD6ApjCg7004VLz5-415" value="1" style="text;html=1;align=center;verticalAlign=middle;resizable=0;points=[];autosize=1;strokeColor=none;fillColor=none;" vertex="1" parent="1">
          <mxGeometry x="1345" y="1335" width="30" height="30" as="geometry" />
        </mxCell>
        <mxCell id="3njZrD6ApjCg7004VLz5-416" value="N" style="text;html=1;align=center;verticalAlign=middle;resizable=0;points=[];autosize=1;strokeColor=none;fillColor=none;" vertex="1" parent="1">
          <mxGeometry x="1340" y="1268" width="30" height="30" as="geometry" />
        </mxCell>
        <mxCell id="3njZrD6ApjCg7004VLz5-417" value="" style="endArrow=none;html=1;rounded=0;entryX=0.5;entryY=1;entryDx=0;entryDy=0;exitX=0.5;exitY=0;exitDx=0;exitDy=0;" edge="1" parent="1" source="3njZrD6ApjCg7004VLz5-279" target="3njZrD6ApjCg7004VLz5-418">
          <mxGeometry width="50" height="50" relative="1" as="geometry">
            <mxPoint x="1370" y="510" as="sourcePoint" />
            <mxPoint x="1370" y="-880" as="targetPoint" />
          </mxGeometry>
        </mxCell>
        <mxCell id="3njZrD6ApjCg7004VLz5-418" value="has" style="rhombus;whiteSpace=wrap;html=1;" vertex="1" parent="1">
          <mxGeometry x="1330" y="-370" width="80" height="80" as="geometry" />
        </mxCell>
        <mxCell id="3njZrD6ApjCg7004VLz5-419" value="" style="endArrow=none;html=1;rounded=0;entryX=0.5;entryY=1;entryDx=0;entryDy=0;exitX=0.5;exitY=0;exitDx=0;exitDy=0;" edge="1" parent="1" source="3njZrD6ApjCg7004VLz5-55" target="3njZrD6ApjCg7004VLz5-420">
          <mxGeometry width="50" height="50" relative="1" as="geometry">
            <mxPoint x="1370" y="730" as="sourcePoint" />
            <mxPoint x="1370" y="228" as="targetPoint" />
          </mxGeometry>
        </mxCell>
        <mxCell id="3njZrD6ApjCg7004VLz5-420" value="has" style="rhombus;whiteSpace=wrap;html=1;" vertex="1" parent="1">
          <mxGeometry x="1340" y="500" width="80" height="80" as="geometry" />
        </mxCell>
        <mxCell id="3njZrD6ApjCg7004VLz5-421" value="" style="endArrow=none;html=1;rounded=0;exitX=1;exitY=0.5;exitDx=0;exitDy=0;" edge="1" parent="1" source="7_UV4Mxnz30BFYZljL8q-3">
          <mxGeometry width="50" height="50" relative="1" as="geometry">
            <mxPoint x="370" y="965" as="sourcePoint" />
            <mxPoint x="1370" y="820" as="targetPoint" />
          </mxGeometry>
        </mxCell>
        <mxCell id="3njZrD6ApjCg7004VLz5-424" value="" style="endArrow=none;html=1;rounded=0;exitX=0.5;exitY=0;exitDx=0;exitDy=0;" edge="1" parent="1" source="7_UV4Mxnz30BFYZljL8q-4">
          <mxGeometry width="50" height="50" relative="1" as="geometry">
            <mxPoint x="3040" y="1025" as="sourcePoint" />
            <mxPoint x="1370" y="820" as="targetPoint" />
          </mxGeometry>
        </mxCell>
        <mxCell id="3njZrD6ApjCg7004VLz5-430" value="N" style="text;html=1;align=center;verticalAlign=middle;resizable=0;points=[];autosize=1;strokeColor=none;fillColor=none;" vertex="1" parent="1">
          <mxGeometry x="3955" y="2510" width="30" height="30" as="geometry" />
        </mxCell>
        <mxCell id="3njZrD6ApjCg7004VLz5-431" value="1" style="text;html=1;align=center;verticalAlign=middle;resizable=0;points=[];autosize=1;strokeColor=none;fillColor=none;" vertex="1" parent="1">
          <mxGeometry x="3955" y="2418" width="30" height="30" as="geometry" />
        </mxCell>
        <mxCell id="3njZrD6ApjCg7004VLz5-435" value="Resource_Name" style="ellipse;whiteSpace=wrap;html=1;" vertex="1" parent="1">
          <mxGeometry x="1495" y="600" width="120" height="50" as="geometry" />
        </mxCell>
        <mxCell id="3njZrD6ApjCg7004VLz5-436" value="Resource_Type" style="ellipse;whiteSpace=wrap;html=1;" vertex="1" parent="1">
          <mxGeometry x="1500" y="680" width="120" height="50" as="geometry" />
        </mxCell>
        <mxCell id="3njZrD6ApjCg7004VLz5-437" value="&lt;u&gt;&lt;b&gt;Resource_ID&lt;/b&gt;&lt;/u&gt;" style="ellipse;whiteSpace=wrap;html=1;" vertex="1" parent="1">
          <mxGeometry x="1160" y="600" width="120" height="50" as="geometry" />
        </mxCell>
        <mxCell id="3njZrD6ApjCg7004VLz5-438" value="" style="endArrow=none;html=1;rounded=0;entryX=0;entryY=0.5;entryDx=0;entryDy=0;exitX=1;exitY=0;exitDx=0;exitDy=0;" edge="1" parent="1" source="3njZrD6ApjCg7004VLz5-55" target="3njZrD6ApjCg7004VLz5-435">
          <mxGeometry width="50" height="50" relative="1" as="geometry">
            <mxPoint x="1330" y="670" as="sourcePoint" />
            <mxPoint x="1380" y="620" as="targetPoint" />
          </mxGeometry>
        </mxCell>
        <mxCell id="3njZrD6ApjCg7004VLz5-439" value="" style="endArrow=none;html=1;rounded=0;entryX=0;entryY=0.5;entryDx=0;entryDy=0;exitX=1;exitY=0;exitDx=0;exitDy=0;" edge="1" parent="1" source="3njZrD6ApjCg7004VLz5-55" target="3njZrD6ApjCg7004VLz5-436">
          <mxGeometry width="50" height="50" relative="1" as="geometry">
            <mxPoint x="1330" y="670" as="sourcePoint" />
            <mxPoint x="1380" y="620" as="targetPoint" />
          </mxGeometry>
        </mxCell>
        <mxCell id="3njZrD6ApjCg7004VLz5-440" value="" style="endArrow=none;html=1;rounded=0;entryX=1;entryY=0.5;entryDx=0;entryDy=0;exitX=0;exitY=0;exitDx=0;exitDy=0;" edge="1" parent="1" source="3njZrD6ApjCg7004VLz5-55" target="3njZrD6ApjCg7004VLz5-437">
          <mxGeometry width="50" height="50" relative="1" as="geometry">
            <mxPoint x="1330" y="670" as="sourcePoint" />
            <mxPoint x="1380" y="620" as="targetPoint" />
          </mxGeometry>
        </mxCell>
        <mxCell id="3njZrD6ApjCg7004VLz5-441" value="" style="endArrow=none;html=1;rounded=0;entryX=0.5;entryY=1;entryDx=0;entryDy=0;exitX=0.5;exitY=0;exitDx=0;exitDy=0;strokeColor=#000000;" edge="1" parent="1" source="3njZrD6ApjCg7004VLz5-114" target="3njZrD6ApjCg7004VLz5-172">
          <mxGeometry width="50" height="50" relative="1" as="geometry">
            <mxPoint x="1410" y="1520" as="sourcePoint" />
            <mxPoint x="1470" y="1480" as="targetPoint" />
          </mxGeometry>
        </mxCell>
        <mxCell id="3njZrD6ApjCg7004VLz5-444" value="" style="endArrow=none;html=1;rounded=0;entryX=0.5;entryY=0;entryDx=0;entryDy=0;exitX=0.5;exitY=1;exitDx=0;exitDy=0;strokeColor=#000000;" edge="1" parent="1" source="3njZrD6ApjCg7004VLz5-114" target="3njZrD6ApjCg7004VLz5-442">
          <mxGeometry width="50" height="50" relative="1" as="geometry">
            <mxPoint x="1375" y="1647" as="sourcePoint" />
            <mxPoint x="1375" y="1998" as="targetPoint" />
          </mxGeometry>
        </mxCell>
        <mxCell id="3njZrD6ApjCg7004VLz5-442" value="has" style="rhombus;whiteSpace=wrap;html=1;rotation=-45;" vertex="1" parent="1">
          <mxGeometry x="1170" y="1743" width="80" height="80" as="geometry" />
        </mxCell>
        <mxCell id="3njZrD6ApjCg7004VLz5-445" value="1" style="text;html=1;align=center;verticalAlign=middle;resizable=0;points=[];autosize=1;strokeColor=none;fillColor=none;rotation=-45;" vertex="1" parent="1">
          <mxGeometry x="1240" y="1793" width="30" height="30" as="geometry" />
        </mxCell>
        <mxCell id="3njZrD6ApjCg7004VLz5-446" value="N" style="text;html=1;align=center;verticalAlign=middle;resizable=0;points=[];autosize=1;strokeColor=none;fillColor=none;rotation=-30;" vertex="1" parent="1">
          <mxGeometry x="1175" y="1730" width="30" height="30" as="geometry" />
        </mxCell>
        <mxCell id="3njZrD6ApjCg7004VLz5-447" value="&lt;b&gt;&lt;u&gt;Burn_ID&lt;/u&gt;&lt;/b&gt;" style="ellipse;whiteSpace=wrap;html=1;" vertex="1" parent="1">
          <mxGeometry x="1755" width="120" height="50" as="geometry" />
        </mxCell>
        <mxCell id="3njZrD6ApjCg7004VLz5-451" value="" style="endArrow=none;html=1;rounded=0;entryX=1;entryY=0.5;entryDx=0;entryDy=0;exitX=0;exitY=0;exitDx=0;exitDy=0;" edge="1" parent="1" source="3njZrD6ApjCg7004VLz5-223" target="3njZrD6ApjCg7004VLz5-447">
          <mxGeometry width="50" height="50" relative="1" as="geometry">
            <mxPoint x="1730" y="250" as="sourcePoint" />
            <mxPoint x="1780" y="200" as="targetPoint" />
          </mxGeometry>
        </mxCell>
        <mxCell id="3njZrD6ApjCg7004VLz5-492" value="1" style="text;html=1;align=center;verticalAlign=middle;resizable=0;points=[];autosize=1;strokeColor=none;fillColor=none;" vertex="1" parent="1">
          <mxGeometry x="2950" y="2328" width="30" height="30" as="geometry" />
        </mxCell>
        <mxCell id="3njZrD6ApjCg7004VLz5-493" value="N" style="text;html=1;align=center;verticalAlign=middle;resizable=0;points=[];autosize=1;strokeColor=none;fillColor=none;" vertex="1" parent="1">
          <mxGeometry x="2880" y="2330.5" width="30" height="30" as="geometry" />
        </mxCell>
        <mxCell id="3njZrD6ApjCg7004VLz5-494" value="has" style="rhombus;whiteSpace=wrap;html=1;" vertex="1" parent="1">
          <mxGeometry x="1370" y="1575" width="80" height="80" as="geometry" />
        </mxCell>
        <mxCell id="3njZrD6ApjCg7004VLz5-495" value="" style="endArrow=none;html=1;rounded=0;entryX=0.5;entryY=1;entryDx=0;entryDy=0;exitX=0.75;exitY=0;exitDx=0;exitDy=0;strokeColor=#000000;" edge="1" parent="1" source="3njZrD6ApjCg7004VLz5-103" target="3njZrD6ApjCg7004VLz5-494">
          <mxGeometry width="50" height="50" relative="1" as="geometry">
            <mxPoint x="1210" y="1850" as="sourcePoint" />
            <mxPoint x="1260" y="1800" as="targetPoint" />
          </mxGeometry>
        </mxCell>
        <mxCell id="3njZrD6ApjCg7004VLz5-496" value="" style="endArrow=none;html=1;rounded=0;entryX=0.75;entryY=1;entryDx=0;entryDy=0;exitX=0.5;exitY=0;exitDx=0;exitDy=0;strokeColor=#000000;" edge="1" parent="1" source="3njZrD6ApjCg7004VLz5-494" target="3njZrD6ApjCg7004VLz5-59">
          <mxGeometry width="50" height="50" relative="1" as="geometry">
            <mxPoint x="1210" y="1850" as="sourcePoint" />
            <mxPoint x="1260" y="1800" as="targetPoint" />
          </mxGeometry>
        </mxCell>
        <mxCell id="3njZrD6ApjCg7004VLz5-497" value="1" style="text;html=1;align=center;verticalAlign=middle;resizable=0;points=[];autosize=1;strokeColor=none;fillColor=none;" vertex="1" parent="1">
          <mxGeometry x="1410" y="1635" width="30" height="30" as="geometry" />
        </mxCell>
        <mxCell id="3njZrD6ApjCg7004VLz5-498" value="N" style="text;html=1;align=center;verticalAlign=middle;resizable=0;points=[];autosize=1;strokeColor=none;fillColor=none;" vertex="1" parent="1">
          <mxGeometry x="1410" y="1555" width="30" height="30" as="geometry" />
        </mxCell>
        <mxCell id="3njZrD6ApjCg7004VLz5-499" value="offers" style="rhombus;whiteSpace=wrap;html=1;" vertex="1" parent="1">
          <mxGeometry x="4330" y="1600" width="80" height="80" as="geometry" />
        </mxCell>
        <mxCell id="3njZrD6ApjCg7004VLz5-500" value="" style="endArrow=none;html=1;rounded=0;entryX=0.5;entryY=1;entryDx=0;entryDy=0;exitX=1;exitY=0.5;exitDx=0;exitDy=0;strokeColor=#000000;" edge="1" parent="1">
          <mxGeometry width="50" height="50" relative="1" as="geometry">
            <mxPoint x="4030" y="2750" as="sourcePoint" />
            <mxPoint x="4370" y="1680" as="targetPoint" />
            <Array as="points">
              <mxPoint x="4370" y="2750" />
            </Array>
          </mxGeometry>
        </mxCell>
        <mxCell id="3njZrD6ApjCg7004VLz5-501" value="" style="endArrow=none;html=1;rounded=0;entryX=1;entryY=0.5;entryDx=0;entryDy=0;exitX=0;exitY=0.5;exitDx=0;exitDy=0;" edge="1" parent="1">
          <mxGeometry width="50" height="50" relative="1" as="geometry">
            <mxPoint x="4330" y="1640" as="sourcePoint" />
            <mxPoint x="4030" y="1640" as="targetPoint" />
          </mxGeometry>
        </mxCell>
        <mxCell id="3njZrD6ApjCg7004VLz5-502" value="1" style="text;html=1;align=center;verticalAlign=middle;resizable=0;points=[];autosize=1;strokeColor=none;fillColor=none;" vertex="1" parent="1">
          <mxGeometry x="4295" y="1608" width="30" height="30" as="geometry" />
        </mxCell>
        <mxCell id="3njZrD6ApjCg7004VLz5-503" value="N" style="text;html=1;align=center;verticalAlign=middle;resizable=0;points=[];autosize=1;strokeColor=none;fillColor=none;" vertex="1" parent="1">
          <mxGeometry x="4375" y="1668" width="30" height="30" as="geometry" />
        </mxCell>
        <mxCell id="7_UV4Mxnz30BFYZljL8q-2" value="" style="endArrow=none;html=1;rounded=0;exitX=0.5;exitY=0;exitDx=0;exitDy=0;entryX=0.5;entryY=1;entryDx=0;entryDy=0;" edge="1" parent="1" source="3njZrD6ApjCg7004VLz5-59" target="7_UV4Mxnz30BFYZljL8q-1">
          <mxGeometry width="50" height="50" relative="1" as="geometry">
            <mxPoint x="1380" y="1030" as="sourcePoint" />
            <mxPoint x="1380" y="820" as="targetPoint" />
          </mxGeometry>
        </mxCell>
        <mxCell id="7_UV4Mxnz30BFYZljL8q-1" value="has" style="rhombus;whiteSpace=wrap;html=1;" vertex="1" parent="1">
          <mxGeometry x="1340" y="900" width="80" height="80" as="geometry" />
        </mxCell>
        <mxCell id="7_UV4Mxnz30BFYZljL8q-5" value="" style="endArrow=none;html=1;rounded=0;exitX=0.5;exitY=0;exitDx=0;exitDy=0;" edge="1" parent="1" source="3njZrD6ApjCg7004VLz5-60" target="7_UV4Mxnz30BFYZljL8q-4">
          <mxGeometry width="50" height="50" relative="1" as="geometry">
            <mxPoint x="3040" y="1025" as="sourcePoint" />
            <mxPoint x="1370" y="820" as="targetPoint" />
          </mxGeometry>
        </mxCell>
        <mxCell id="7_UV4Mxnz30BFYZljL8q-4" value="has" style="rhombus;whiteSpace=wrap;html=1;rotation=-75;" vertex="1" parent="1">
          <mxGeometry x="1900" y="840" width="80" height="80" as="geometry" />
        </mxCell>
        <mxCell id="7_UV4Mxnz30BFYZljL8q-6" value="" style="endArrow=none;html=1;rounded=0;exitX=1;exitY=0.5;exitDx=0;exitDy=0;" edge="1" parent="1" source="3njZrD6ApjCg7004VLz5-83" target="7_UV4Mxnz30BFYZljL8q-3">
          <mxGeometry width="50" height="50" relative="1" as="geometry">
            <mxPoint x="370" y="965" as="sourcePoint" />
            <mxPoint x="1370" y="820" as="targetPoint" />
          </mxGeometry>
        </mxCell>
        <mxCell id="7_UV4Mxnz30BFYZljL8q-3" value="has" style="rhombus;whiteSpace=wrap;html=1;" vertex="1" parent="1">
          <mxGeometry x="930" y="840" width="80" height="80" as="geometry" />
        </mxCell>
        <mxCell id="7_UV4Mxnz30BFYZljL8q-7" value="1" style="text;html=1;align=center;verticalAlign=middle;resizable=0;points=[];autosize=1;strokeColor=none;fillColor=none;" vertex="1" parent="1">
          <mxGeometry x="1005" y="838" width="30" height="30" as="geometry" />
        </mxCell>
        <mxCell id="7_UV4Mxnz30BFYZljL8q-8" value="N" style="text;html=1;align=center;verticalAlign=middle;resizable=0;points=[];autosize=1;strokeColor=none;fillColor=none;" vertex="1" parent="1">
          <mxGeometry x="905" y="848" width="30" height="30" as="geometry" />
        </mxCell>
        <mxCell id="7_UV4Mxnz30BFYZljL8q-9" value="1" style="text;html=1;align=center;verticalAlign=middle;resizable=0;points=[];autosize=1;strokeColor=none;fillColor=none;" vertex="1" parent="1">
          <mxGeometry x="1885" y="828" width="30" height="30" as="geometry" />
        </mxCell>
        <mxCell id="7_UV4Mxnz30BFYZljL8q-10" value="N" style="text;html=1;align=center;verticalAlign=middle;resizable=0;points=[];autosize=1;strokeColor=none;fillColor=none;" vertex="1" parent="1">
          <mxGeometry x="1985" y="848" width="30" height="30" as="geometry" />
        </mxCell>
        <mxCell id="7_UV4Mxnz30BFYZljL8q-11" value="1" style="text;html=1;align=center;verticalAlign=middle;resizable=0;points=[];autosize=1;strokeColor=none;fillColor=none;" vertex="1" parent="1">
          <mxGeometry x="1385" y="478" width="30" height="30" as="geometry" />
        </mxCell>
        <mxCell id="7_UV4Mxnz30BFYZljL8q-12" value="NM" style="text;html=1;align=center;verticalAlign=middle;resizable=0;points=[];autosize=1;strokeColor=none;fillColor=none;" vertex="1" parent="1">
          <mxGeometry x="1370" y="578" width="40" height="30" as="geometry" />
        </mxCell>
        <mxCell id="7_UV4Mxnz30BFYZljL8q-13" value="1" style="text;html=1;align=center;verticalAlign=middle;resizable=0;points=[];autosize=1;strokeColor=none;fillColor=none;" vertex="1" parent="1">
          <mxGeometry x="1625" y="168" width="30" height="30" as="geometry" />
        </mxCell>
        <mxCell id="7_UV4Mxnz30BFYZljL8q-14" value="N" style="text;html=1;align=center;verticalAlign=middle;resizable=0;points=[];autosize=1;strokeColor=none;fillColor=none;" vertex="1" parent="1">
          <mxGeometry x="1720" y="168" width="30" height="30" as="geometry" />
        </mxCell>
        <mxCell id="7_UV4Mxnz30BFYZljL8q-15" value="1" style="text;html=1;align=center;verticalAlign=middle;resizable=0;points=[];autosize=1;strokeColor=none;fillColor=none;" vertex="1" parent="1">
          <mxGeometry x="1345" y="-392" width="30" height="30" as="geometry" />
        </mxCell>
        <mxCell id="7_UV4Mxnz30BFYZljL8q-16" value="N" style="text;html=1;align=center;verticalAlign=middle;resizable=0;points=[];autosize=1;strokeColor=none;fillColor=none;" vertex="1" parent="1">
          <mxGeometry x="1345" y="-302" width="30" height="30" as="geometry" />
        </mxCell>
        <mxCell id="7_UV4Mxnz30BFYZljL8q-17" value="1" style="text;html=1;align=center;verticalAlign=middle;resizable=0;points=[];autosize=1;strokeColor=none;fillColor=none;" vertex="1" parent="1">
          <mxGeometry x="1375" y="878" width="30" height="30" as="geometry" />
        </mxCell>
        <mxCell id="7_UV4Mxnz30BFYZljL8q-18" value="N" style="text;html=1;align=center;verticalAlign=middle;resizable=0;points=[];autosize=1;strokeColor=none;fillColor=none;" vertex="1" parent="1">
          <mxGeometry x="1375" y="968" width="30" height="30" as="geometry" />
        </mxCell>
        <mxCell id="7_UV4Mxnz30BFYZljL8q-19" value="1" style="text;html=1;align=center;verticalAlign=middle;resizable=0;points=[];autosize=1;strokeColor=none;fillColor=none;" vertex="1" parent="1">
          <mxGeometry x="2915" y="658" width="30" height="30" as="geometry" />
        </mxCell>
        <mxCell id="7_UV4Mxnz30BFYZljL8q-20" value="N" style="text;html=1;align=center;verticalAlign=middle;resizable=0;points=[];autosize=1;strokeColor=none;fillColor=none;" vertex="1" parent="1">
          <mxGeometry x="2915" y="748" width="30" height="30" as="geometry" />
        </mxCell>
      </root>
    </mxGraphModel>
  </diagram>
</mxfile>
